SplineFontDB: 3.0
FontName: Dyuthi
FullName: Dyuthi
FamilyName: Dyuthi
Weight: Book
Copyright: Digitized data copyright (c) 2007,Hiran Venugopalan, Hussain K H,Suresh P, Swathanthra Malayalam Computing(http://smc.org.in)
Version: 1.0.1.1
ItalicAngle: 0
UnderlinePosition: -1800
UnderlineWidth: 120
Ascent: 1434
Descent: 614
InvalidEm: 0
LayerCount: 2
Layer: 0 1 "Back" 1
Layer: 1 1 "Fore" 0
XUID: [1021 400 913805956 9518307]
FSType: 0
OS2Version: 1
OS2_WeightWidthSlopeOnly: 0
OS2_UseTypoMetrics: 1
CreationTime: 1201144287
ModificationTime: 1454859423
PfmFamily: 17
TTFWeight: 400
TTFWidth: 5
LineGap: 0
VLineGap: 0
Panose: 2 0 6 3 0 0 0 0 0 0
OS2TypoAscent: 0
OS2TypoAOffset: 1
OS2TypoDescent: 0
OS2TypoDOffset: 1
OS2TypoLinegap: 0
OS2WinAscent: 0
OS2WinAOffset: 1
OS2WinDescent: 0
OS2WinDOffset: 1
HheadAscent: 0
HheadAOffset: 1
HheadDescent: 0
HheadDOffset: 1
OS2SubXSize: 1330
OS2SubYSize: 1226
OS2SubXOff: 0
OS2SubYOff: 152
OS2SupXSize: 1330
OS2SupYSize: 1430
OS2SupXOff: 0
OS2SupYOff: 978
OS2StrikeYSize: 100
OS2StrikeYPos: 512
OS2CapHeight: 0
OS2XHeight: 0
OS2Vendor: 'PfEd'
OS2CodePages: 00000000.80000000
OS2UnicodeRanges: 80800001.00002000.00000000.00000000
MarkAttachClasses: 1
DEI: 91125

StartChar: .notdef
Encoding: 187 -1 0
Width: 598
GlyphClass: 2
Flags: W
LayerCount: 2
Back
Fore
SplineSet
44 0 m 1,0,-1
 44 932 l 1,1,-1
 512 932 l 1,2,-1
 512 0 l 1,3,-1
 44 0 l 1,0,-1
92 44 m 1,4,-1
 468 44 l 1,5,-1
 468 884 l 1,6,-1
 92 884 l 1,7,-1
 92 44 l 1,4,-1
EndSplineSet
EndChar

StartChar: exclam
Encoding: 4 33 4
Width: 343
VWidth: 1495
GlyphClass: 2
Flags: W
LayerCount: 2
Back
Fore
SplineSet
316.959960938 928.559570312 m 2,0,1
 319.879882812 969.440429688 319.879882812 969.440429688 290.6796875 998.639648438 c 256,2,3
 264.399414062 1027.83984375 264.399414062 1027.83984375 223.51953125 1027.83984375 c 2,4,-1
 170.959960938 1027.83984375 l 2,5,6
 130.080078125 1027.83984375 130.080078125 1027.83984375 103.799804688 998.639648438 c 256,7,8
 76.0595703125 969.440429688 76.0595703125 969.440429688 77.51953125 928.559570312 c 2,9,-1
 102.33984375 449.6796875 l 2,10,11
 105.259765625 411.719726562 105.259765625 411.719726562 131.540039062 386.900390625 c 256,12,13
 159.279296875 362.080078125 159.279296875 362.080078125 197.239257812 362.080078125 c 2,14,-1
 197.239257812 362.080078125 l 2,15,16
 235.200195312 362.080078125 235.200195312 362.080078125 262.939453125 386.900390625 c 256,17,18
 289.219726562 411.719726562 289.219726562 411.719726562 292.139648438 449.6796875 c 2,19,-1
 316.959960938 928.559570312 l 2,0,1
293.599609375 35.0400390625 m 0,21,22
 255.639648438 -5.83984375 255.639648438 -5.83984375 197.239257812 -5.83984375 c 0,23,24
 141.759765625 -5.83984375 141.759765625 -5.83984375 100.879882812 35.0400390625 c 0,25,26
 60 74.4599609375 60 74.4599609375 60 131.400390625 c 0,27,28
 60 186.879882812 60 186.879882812 100.879882812 227.759765625 c 128,-1,29
 141.759765625 268.639648438 141.759765625 268.639648438 197.239257812 267.1796875 c 0,30,31
 255.639648438 268.639648438 255.639648438 268.639648438 293.599609375 227.759765625 c 0,32,33
 334.479492188 188.33984375 334.479492188 188.33984375 333.01953125 131.400390625 c 0,34,20
 334.479492188 74.4599609375 334.479492188 74.4599609375 293.599609375 35.0400390625 c 0,21,22
EndSplineSet
EndChar

StartChar: quotedbl
Encoding: 5 34 5
Width: 476
VWidth: 1495
GlyphClass: 2
Flags: W
LayerCount: 2
Back
Fore
SplineSet
484.833007812 699.33984375 m 2,0,1
 480.453125 677.440429688 480.453125 677.440429688 465.853515625 662.83984375 c 128,-1,2
 451.252929688 648.240234375 451.252929688 648.240234375 430.813476562 648.240234375 c 2,3,-1
 389.93359375 648.240234375 l 2,4,5
 366.573242188 648.240234375 366.573242188 648.240234375 351.973632812 662.83984375 c 0,6,7
 335.913085938 677.440429688 335.913085938 677.440429688 334.453125 699.33984375 c 2,8,-1
 312.553710938 943.16015625 l 2,9,10
 309.6328125 984.040039062 309.6328125 984.040039062 337.373046875 1016.16015625 c 256,11,12
 366.573242188 1048.28027344 366.573242188 1048.28027344 408.913085938 1048.28027344 c 2,13,-1
 410.373046875 1048.28027344 l 2,14,15
 452.712890625 1048.28027344 452.712890625 1048.28027344 481.913085938 1016.16015625 c 256,16,17
 511.11328125 984.040039062 511.11328125 984.040039062 506.733398438 943.16015625 c 2,18,-1
 484.833007812 699.33984375 l 2,0,1
232.252929688 699.33984375 m 2,19,20
 229.333007812 677.440429688 229.333007812 677.440429688 214.733398438 662.83984375 c 0,21,22
 197.212890625 648.240234375 197.212890625 648.240234375 176.7734375 648.240234375 c 2,23,-1
 137.353515625 648.240234375 l 2,24,25
 118.373046875 648.240234375 118.373046875 648.240234375 100.853515625 662.83984375 c 0,26,27
 86.2529296875 677.440429688 86.2529296875 677.440429688 83.3330078125 699.33984375 c 2,28,-1
 59.9736328125 943.16015625 l 2,29,30
 57.0537109375 984.040039062 57.0537109375 984.040039062 84.79296875 1016.16015625 c 0,31,32
 113.993164062 1048.28027344 113.993164062 1048.28027344 156.333007812 1048.28027344 c 2,33,-1
 159.252929688 1048.28027344 l 2,34,35
 201.592773438 1048.28027344 201.592773438 1048.28027344 229.333007812 1016.16015625 c 0,36,37
 258.533203125 984.040039062 258.533203125 984.040039062 254.153320312 943.16015625 c 2,38,-1
 232.252929688 699.33984375 l 2,19,20
EndSplineSet
EndChar

StartChar: numbersign
Encoding: 6 35 6
Width: 816
VWidth: 1495
GlyphClass: 2
Flags: W
LayerCount: 2
Back
Fore
SplineSet
501.461914062 394.200195312 m 1,0,-1
 524.821289062 560.639648438 l 1,1,-1
 380.28125 560.639648438 l 1,2,-1
 355.461914062 394.200195312 l 1,3,-1
 501.461914062 394.200195312 l 1,0,-1
191.94140625 258.419921875 m 1,4,-1
 127.701171875 258.419921875 l 2,5,6
 99.9619140625 256.959960938 99.9619140625 256.959960938 80.9814453125 277.400390625 c 256,7,8
 60.541015625 297.83984375 60.541015625 297.83984375 60.541015625 325.580078125 c 2,9,-1
 60.541015625 327.040039062 l 2,10,11
 60.541015625 353.3203125 60.541015625 353.3203125 80.9814453125 373.759765625 c 256,12,13
 101.421875 394.200195312 101.421875 394.200195312 127.701171875 394.200195312 c 2,14,-1
 215.301757812 394.200195312 l 1,15,-1
 240.12109375 560.639648438 l 1,16,-1
 174.421875 560.639648438 l 2,17,18
 148.141601562 560.639648438 148.141601562 560.639648438 127.701171875 581.080078125 c 256,19,20
 107.26171875 601.51953125 107.26171875 601.51953125 107.26171875 627.799804688 c 2,21,-1
 107.26171875 627.799804688 l 2,22,23
 107.26171875 657 107.26171875 657 127.701171875 675.98046875 c 128,-1,24
 148.141601562 694.959960938 148.141601562 694.959960938 174.421875 694.959960938 c 2,25,-1
 262.021484375 694.959960938 l 1,26,-1
 294.141601562 894.98046875 l 2,27,28
 297.061523438 919.799804688 297.061523438 919.799804688 317.500976562 935.860351562 c 128,-1,29
 337.94140625 951.919921875 337.94140625 951.919921875 361.301757812 951.919921875 c 2,30,-1
 362.76171875 951.919921875 l 2,31,32
 393.421875 951.919921875 393.421875 951.919921875 413.861328125 928.559570312 c 256,33,34
 434.301757812 905.200195312 434.301757812 905.200195312 429.921875 873.080078125 c 2,35,-1
 402.181640625 694.959960938 l 1,36,-1
 548.181640625 694.959960938 l 1,37,-1
 578.841796875 893.51953125 l 2,38,39
 580.301757812 918.33984375 580.301757812 918.33984375 600.741210938 935.860351562 c 0,40,41
 621.181640625 951.919921875 621.181640625 951.919921875 646.000976562 951.919921875 c 2,42,-1
 648.921875 951.919921875 l 2,43,44
 679.581054688 951.919921875 679.581054688 951.919921875 700.021484375 928.559570312 c 256,45,46
 720.461914062 905.200195312 720.461914062 905.200195312 716.081054688 873.080078125 c 2,47,-1
 688.341796875 694.959960938 l 1,48,-1
 748.201171875 694.959960938 l 2,49,50
 775.94140625 694.959960938 775.94140625 694.959960938 796.381835938 675.98046875 c 128,-1,51
 816.821289062 657 816.821289062 657 815.361328125 627.799804688 c 2,52,-1
 815.361328125 627.799804688 l 2,53,54
 816.821289062 601.51953125 816.821289062 601.51953125 796.381835938 581.080078125 c 256,55,56
 775.94140625 560.639648438 775.94140625 560.639648438 748.201171875 560.639648438 c 2,57,-1
 664.981445312 560.639648438 l 1,58,-1
 641.62109375 394.200195312 l 1,59,-1
 702.94140625 394.200195312 l 2,60,61
 730.681640625 394.200195312 730.681640625 394.200195312 751.12109375 373.759765625 c 256,62,63
 770.1015625 353.3203125 770.1015625 353.3203125 770.1015625 327.040039062 c 2,64,-1
 770.1015625 325.580078125 l 2,65,66
 770.1015625 297.83984375 770.1015625 297.83984375 751.12109375 277.400390625 c 256,67,68
 729.221679688 256.959960938 729.221679688 256.959960938 702.94140625 258.419921875 c 2,69,-1
 615.341796875 258.419921875 l 1,70,-1
 586.141601562 54.01953125 l 2,71,72
 583.221679688 27.740234375 583.221679688 27.740234375 562.78125 11.6796875 c 256,73,74
 542.341796875 -5.83984375 542.341796875 -5.83984375 516.061523438 -5.83984375 c 2,75,-1
 516.061523438 -5.83984375 l 2,76,77
 483.94140625 -5.83984375 483.94140625 -5.83984375 463.500976562 18.98046875 c 0,78,79
 443.061523438 42.33984375 443.061523438 42.33984375 445.981445312 74.4599609375 c 2,80,-1
 475.181640625 258.419921875 l 1,81,-1
 332.1015625 258.419921875 l 1,82,-1
 299.981445312 54.01953125 l 2,83,84
 297.061523438 27.740234375 297.061523438 27.740234375 276.62109375 11.6796875 c 0,85,86
 259.1015625 -5.83984375 259.1015625 -5.83984375 232.821289062 -5.83984375 c 2,87,-1
 229.901367188 -5.83984375 l 2,88,89
 197.78125 -5.83984375 197.78125 -5.83984375 177.341796875 18.98046875 c 0,90,91
 156.901367188 42.33984375 156.901367188 42.33984375 162.741210938 74.4599609375 c 2,92,-1
 191.94140625 258.419921875 l 1,4,-1
EndSplineSet
EndChar

StartChar: dollar
Encoding: 7 36 7
Width: 828
VWidth: 1495
GlyphClass: 2
Flags: W
LayerCount: 2
Back
Fore
SplineSet
526.33203125 397.120117188 m 5,0,1
 620.657226562 392.005859375 620.657226562 392.005859375 634.372070312 306.599609375 c 4,2,3
 650.431640625 209.509765625 650.431640625 209.509765625 526.33203125 204.400390625 c 5,4,-1
 526.33203125 397.120117188 l 5,0,1
386.171875 833.66015625 m 5,6,-1
 386.171875 657 l 5,7,8
 273.751953125 667.950195312 273.751953125 667.950195312 285.431640625 741.6796875 c 4,9,5
 299.010742188 834.225585938 299.010742188 834.225585938 386.171875 833.66015625 c 5,6,-1
748.251953125 516.83984375 m 4,11,12
 743.872070312 521.219726562 743.872070312 521.219726562 542.391601562 621.959960938 c 4,13,14
 526.33203125 630.719726562 l 5,15,-1
 526.33203125 843.879882812 l 5,16,17
 554.071289062 843.879882812 554.071289062 843.879882812 603.711914062 835.120117188 c 4,18,19
 643.131835938 827.8203125 643.131835938 827.8203125 675.251953125 849.719726562 c 132,-1,20
 707.372070312 871.620117188 707.372070312 871.620117188 713.211914062 909.580078125 c 5,21,-1
 714.671875 911.040039062 l 5,22,23
 721.971679688 951.919921875 721.971679688 951.919921875 698.611328125 984.040039062 c 4,24,25
 674.521484375 1016.88964844 674.521484375 1016.88964844 635.83203125 1023.45996094 c 4,26,27
 560.641601562 1035.13964844 560.641601562 1035.13964844 526.33203125 1036.59960938 c 5,28,-1
 526.33203125 1149.01953125 l 6,29,30
 526.33203125 1170.27148438 526.33203125 1170.27148438 500.051757812 1176.75976562 c 4,31,32
 467.931640625 1184.79003906 467.931640625 1184.79003906 427.051757812 1188.44042969 c 6,33,-1
 427.051757812 1188.44042969 l 6,34,35
 409.53125 1188.44042969 409.53125 1188.44042969 397.8515625 1176.75976562 c 132,-1,36
 386.171875 1165.08007812 386.171875 1165.08007812 386.171875 1149.01953125 c 6,37,-1
 386.171875 1030.75976562 l 5,38,39
 267.181640625 1015.4296875 267.181640625 1015.4296875 175.931640625 919.799804688 c 4,40,41
 89.0615234375 829.280273438 89.0615234375 829.280273438 100.01171875 702.259765625 c 4,42,43
 118.26171875 489.099609375 118.26171875 489.099609375 371.571289062 426.3203125 c 4,44,45
 374.491210938 425.58984375 374.491210938 425.58984375 386.171875 423.400390625 c 5,46,-1
 386.171875 192.719726562 l 5,47,48
 359.891601562 192.719726562 359.891601562 192.719726562 275.211914062 210.240234375 c 4,49,50
 234.33203125 219 234.33203125 219 199.291992188 195.639648438 c 132,-1,51
 164.251953125 172.280273438 164.251953125 172.280273438 158.411132812 129.940429688 c 5,52,-1
 156.951171875 128.48046875 l 5,53,54
 151.111328125 88.330078125 151.111328125 88.330078125 173.01171875 55.48046875 c 4,55,56
 194.181640625 24.08984375 194.181640625 24.08984375 234.33203125 16.0595703125 c 4,57,58
 336.53125 -5.83984375 336.53125 -5.83984375 386.171875 -2.919921875 c 5,59,-1
 386.171875 -110.959960938 l 6,60,61
 386.171875 -135.049804688 386.171875 -135.049804688 397.8515625 -138.700195312 c 260,62,63
 422.671875 -146.73046875 422.671875 -146.73046875 456.251953125 -150.379882812 c 6,64,-1
 456.251953125 -150.379882812 l 6,65,66
 514.651367188 -138.700195312 l 260,67,68
 526.33203125 -127.01953125 526.33203125 -127.01953125 526.33203125 -110.959960938 c 6,69,-1
 526.33203125 5.83984375 l 5,70,71
 681.091796875 32.1201171875 681.091796875 32.1201171875 765.771484375 137.240234375 c 4,72,73
 836.58203125 225.5703125 836.58203125 225.5703125 827.091796875 343.099609375 c 4,74,10
 818.33203125 446.759765625 818.33203125 446.759765625 748.251953125 516.83984375 c 4,11,12
EndSplineSet
EndChar

StartChar: percent
Encoding: 8 37 8
Width: 1376
VWidth: 1495
GlyphClass: 2
Flags: W
LayerCount: 2
Back
Fore
SplineSet
1016.45996094 169 m 4,1,2
 1045.66015625 120.8203125 1045.66015625 120.8203125 1095.29980469 120.8203125 c 4,3,4
 1197.5 120.8203125 1197.5 120.8203125 1197.5 293.099609375 c 260,5,6
 1197.5 465.379882812 1197.5 465.379882812 1093.83984375 465.379882812 c 4,7,8
 1042.74023438 463.919921875 1042.74023438 463.919921875 1016.45996094 414.280273438 c 4,9,10
 990.1796875 367.559570312 990.1796875 367.559570312 990.1796875 293.099609375 c 4,11,0
 990.1796875 215.719726562 990.1796875 215.719726562 1016.45996094 169 c 4,1,2
1288.02050781 75.5595703125 m 4,13,14
 1210 -2 1210 -2 1090.91992188 -1.8203125 c 4,15,16
 971 -2 971 -2 893.8203125 75.5595703125 c 4,17,18
 812 156 812 156 812.060546875 287.259765625 c 4,19,20
 812 420 812 420 890.900390625 501.879882812 c 4,21,22
 973 587 973 587 1101.140625 586.559570312 c 4,23,24
 1230 587 1230 587 1302.62011719 507.719726562 c 4,25,26
 1376 429 1376 429 1375.62011719 303.3203125 c 4,27,12
 1376 163 1376 163 1288.02050781 75.5595703125 c 4,13,14
957.620117188 957.400390625 m 6,28,29
 973.530273438 984.004882812 973.530273438 984.004882812 1004.33984375 983.6796875 c 6,30,-1
 1004.33984375 983.6796875 l 6,31,32
 1034 984 1034 984 1052.52050781 955.940429688 c 4,33,34
 1068.16601562 930.732421875 1068.16601562 930.732421875 1051.06054688 901.919921875 c 6,35,-1
 528.379882812 21.5400390625 l 6,36,37
 513.150390625 -4.740234375 513.150390625 -4.740234375 481.66015625 -4.740234375 c 6,38,-1
 478.740234375 -4.740234375 l 6,39,40
 445 -5 445 -5 430.560546875 23 c 260,41,42
 416.083984375 51.83203125 416.083984375 51.83203125 432.020507812 78.48046875 c 6,43,-1
 957.620117188 957.400390625 l 6,28,29
326.240234375 566.120117188 m 4,44,45
 356.900390625 516.48046875 356.900390625 516.48046875 406.540039062 516.48046875 c 4,46,47
 505.8203125 516.48046875 505.8203125 516.48046875 505.8203125 691.6796875 c 4,48,49
 505.8203125 863.959960938 505.8203125 863.959960938 402.16015625 863.959960938 c 4,50,51
 352.520507812 863.959960938 352.520507812 863.959960938 324.780273438 812.860351562 c 4,52,53
 299.959960938 764.6796875 299.959960938 764.6796875 299.959960938 688.759765625 c 4,54,55
 298.5 612.83984375 298.5 612.83984375 326.240234375 566.120117188 c 4,44,45
599.259765625 472.6796875 m 4,56,57
 520.419921875 393.83984375 520.419921875 393.83984375 400.700195312 393.83984375 c 132,-1,58
 280.98046875 393.83984375 280.98046875 393.83984375 202.140625 472.6796875 c 4,59,60
 120.379882812 554.440429688 120.379882812 554.440429688 120.379882812 685.83984375 c 4,61,62
 120.379882812 815.780273438 120.379882812 815.780273438 199.219726562 899 c 4,63,64
 278.060546875 985.139648438 278.060546875 985.139648438 409.459960938 985.139648438 c 4,65,66
 537.940429688 986.599609375 537.940429688 986.599609375 613.860351562 904.83984375 c 4,67,68
 685.400390625 826 685.400390625 826 685.400390625 700.440429688 c 4,69,70
 686.860351562 557.360351562 686.860351562 557.360351562 599.259765625 472.6796875 c 4,56,57
EndSplineSet
EndChar

StartChar: ampersand
Encoding: 9 38 9
Width: 1001
VWidth: 1495
GlyphClass: 2
Flags: W
LayerCount: 2
Back
Fore
SplineSet
378.134765625 193.940429688 m 4,1,2
 338.890625 230.76171875 338.890625 230.76171875 338.890625 287.41015625 c 4,3,4
 338.890625 352.555664062 338.890625 352.555664062 408.970703125 400.706054688 c 5,5,6
 557.541015625 244.923828125 557.541015625 244.923828125 577.162109375 225.096679688 c 4,7,8
 591.178710938 213.767578125 591.178710938 213.767578125 588.375 198.188476562 c 260,9,10
 585.572265625 181.1953125 585.572265625 181.1953125 570.154296875 174.114257812 c 4,11,12
 529.508789062 157.119140625 529.508789062 157.119140625 487.4609375 157.119140625 c 4,13,0
 420.18359375 157.119140625 420.18359375 157.119140625 378.134765625 193.940429688 c 4,1,2
532.311523438 859.5546875 m 6,14,15
 571.556640625 859.5546875 571.556640625 859.5546875 596.78515625 828.3984375 c 4,16,17
 616.407226562 800.07421875 616.407226562 800.07421875 616.407226562 763.252929688 c 4,18,19
 616.407226562 698.108398438 616.407226562 698.108398438 536.516601562 640.043945312 c 4,20,21
 511.287109375 620.216796875 511.287109375 620.216796875 490.263671875 645.708007812 c 4,22,23
 442.608398438 700.940429688 442.608398438 700.940429688 442.608398438 760.420898438 c 4,24,25
 442.608398438 800.07421875 442.608398438 800.07421875 465.03515625 828.3984375 c 4,26,27
 490.263671875 859.5546875 490.263671875 859.5546875 529.508789062 859.5546875 c 6,28,-1
 532.311523438 859.5546875 l 6,14,15
812.631835938 403.538085938 m 5,29,30
 798.615234375 369.548828125 798.615234375 369.548828125 784.599609375 336.9765625 c 4,31,32
 742.551757812 383.711914062 l 4,33,34
 720.125976562 406.370117188 720.125976562 406.370117188 680.880859375 448.857421875 c 4,35,36
 636.030273438 497.0078125 636.030273438 497.0078125 617.80859375 516.833984375 c 5,37,-1
 619.209960938 522.5 l 5,38,39
 821.041015625 615.967773438 821.041015625 615.967773438 821.041015625 768.91796875 c 4,40,41
 821.041015625 870.883789062 821.041015625 870.883789062 742.551757812 934.61328125 c 4,42,43
 665.463867188 995.509765625 665.463867188 995.509765625 544.92578125 995.509765625 c 4,44,45
 400.560546875 995.509765625 400.560546875 995.509765625 313.662109375 913.37109375 c 4,46,47
 235.171875 839.728515625 235.171875 839.728515625 235.171875 740.59375 c 4,48,49
 235.171875 638.627929688 235.171875 638.627929688 313.662109375 553.65625 c 5,50,-1
 313.662109375 549.40625 l 5,51,52
 120.241210938 454.521484375 120.241210938 454.521484375 120.241210938 273.248046875 c 4,53,54
 120.241210938 161.368164062 120.241210938 161.368164062 205.739257812 84.8935546875 c 4,55,56
 302.44921875 -1.4951171875 302.44921875 -1.4951171875 476.247070312 -1.4951171875 c 4,57,58
 641.63671875 -1.4951171875 641.63671875 -1.4951171875 756.567382812 83.4765625 c 5,59,-1
 757.96875 83.4765625 l 5,60,61
 771.985351562 67.8994140625 771.985351562 67.8994140625 788.803710938 50.904296875 c 4,62,63
 823.84375 15.4990234375 823.84375 15.4990234375 874.301757812 15.4990234375 c 6,64,-1
 877.10546875 15.4990234375 l 6,65,66
 938.775390625 15.4990234375 938.775390625 15.4990234375 961.201171875 70.7314453125 c 4,67,68
 986.4296875 127.37890625 986.4296875 127.37890625 944.381835938 171.282226562 c 4,69,70
 930.365234375 188.275390625 930.365234375 188.275390625 912.145507812 205.270507812 c 5,71,72
 944.381835938 236.426757812 944.381835938 236.426757812 980.82421875 293.07421875 c 4,73,74
 1000.4453125 321.3984375 1000.4453125 321.3984375 992.036132812 356.803710938 c 4,75,76
 985.028320312 392.208984375 985.028320312 392.208984375 959.799804688 412.036132812 c 4,77,78
 916.349609375 448.857421875 916.349609375 448.857421875 891.12109375 446.024414062 c 4,79,80
 851.875976562 443.19140625 851.875976562 443.19140625 812.631835938 403.538085938 c 5,81,-1
 812.631835938 403.538085938 l 5,29,30
EndSplineSet
EndChar

StartChar: quotesingle
Encoding: 10 39 10
Width: 311
VWidth: 1495
GlyphClass: 2
Flags: W
LayerCount: 2
Back
Fore
SplineSet
290.579101562 699.33984375 m 6,0,1
 287.659179688 677.440429688 287.659179688 677.440429688 273.059570312 662.83984375 c 4,2,3
 256.999023438 648.240234375 256.999023438 648.240234375 235.099609375 648.240234375 c 6,4,-1
 194.219726562 648.240234375 l 6,5,6
 173.779296875 648.240234375 173.779296875 648.240234375 157.719726562 662.83984375 c 132,-1,7
 141.659179688 677.440429688 141.659179688 677.440429688 140.19921875 699.33984375 c 6,8,-1
 118.299804688 943.16015625 l 6,9,10
 115.37890625 984.040039062 115.37890625 984.040039062 141.659179688 1016.16015625 c 4,11,12
 170.859375 1048.28027344 170.859375 1048.28027344 214.659179688 1048.28027344 c 6,13,-1
 216.119140625 1048.28027344 l 6,14,15
 258.458984375 1048.28027344 258.458984375 1048.28027344 287.659179688 1016.16015625 c 132,-1,16
 316.859375 984.040039062 316.859375 984.040039062 311.01953125 943.16015625 c 6,17,-1
 290.579101562 699.33984375 l 6,0,1
EndSplineSet
EndChar

StartChar: parenleft
Encoding: 11 40 11
Width: 455
VWidth: 1495
GlyphClass: 2
Flags: W
LayerCount: 2
Back
Fore
SplineSet
368.708007812 1147.55957031 m 6,0,1
 413.96875 1147.55957031 413.96875 1147.55957031 438.788085938 1108.13964844 c 260,2,3
 463.608398438 1065.79980469 463.608398438 1065.79980469 443.16796875 1024.91992188 c 4,4,5
 332.208007812 776.719726562 332.208007812 776.719726562 332.208007812 458.440429688 c 4,6,7
 332.208007812 146 332.208007812 146 446.087890625 -106.580078125 c 4,8,9
 466.528320312 -148.919921875 466.528320312 -148.919921875 440.248046875 -189.799804688 c 4,10,11
 416.888671875 -227.759765625 416.888671875 -227.759765625 370.16796875 -227.759765625 c 6,12,-1
 367.248046875 -227.759765625 l 6,13,14
 323.448242188 -227.759765625 323.448242188 -227.759765625 297.16796875 -189.799804688 c 4,15,16
 121.96875 87.599609375 121.96875 87.599609375 121.96875 458.440429688 c 4,17,18
 124.888671875 836.580078125 124.888671875 836.580078125 297.16796875 1109.59960938 c 4,19,20
 323.448242188 1147.55957031 323.448242188 1147.55957031 367.248046875 1147.55957031 c 6,21,-1
 368.708007812 1147.55957031 l 6,0,1
EndSplineSet
EndChar

StartChar: parenright
Encoding: 12 41 12
Width: 439
VWidth: 1495
GlyphClass: 2
Flags: W
LayerCount: 2
Back
Fore
SplineSet
203.123046875 1147.55957031 m 2,0,1
 246.922851562 1147.55957031 246.922851562 1147.55957031 271.7421875 1109.59960938 c 0,2,3
 444.022460938 835.120117188 444.022460938 835.120117188 446.942382812 458.440429688 c 0,4,5
 446.942382812 87.599609375 446.942382812 87.599609375 271.7421875 -189.799804688 c 0,6,7
 246.922851562 -227.759765625 246.922851562 -227.759765625 203.123046875 -227.759765625 c 2,8,-1
 200.202148438 -227.759765625 l 2,9,10
 156.40234375 -227.759765625 156.40234375 -227.759765625 130.123046875 -189.799804688 c 0,11,12
 106.762695312 -148.919921875 106.762695312 -148.919921875 124.282226562 -106.580078125 c 0,13,14
 238.162109375 146 238.162109375 146 238.162109375 458.440429688 c 0,15,16
 238.162109375 776.719726562 238.162109375 776.719726562 124.282226562 1024.91992188 c 0,17,18
 105.302734375 1067.25976562 105.302734375 1067.25976562 130.123046875 1108.13964844 c 256,19,20
 154.942382812 1147.55957031 154.942382812 1147.55957031 200.202148438 1147.55957031 c 2,21,-1
 203.123046875 1147.55957031 l 2,0,1
EndSplineSet
EndChar

StartChar: asterisk
Encoding: 13 42 13
Width: 701
VWidth: 1495
GlyphClass: 2
Flags: W
LayerCount: 2
Back
Fore
SplineSet
508.200195312 943.16015625 m 6,0,1
 496.51953125 934.400390625 496.51953125 934.400390625 499.439453125 922.719726562 c 4,2,3
 502.359375 909.580078125 502.359375 909.580078125 515.5 908.120117188 c 6,4,-1
 646.899414062 884.759765625 l 6,5,6
 673.1796875 880.379882812 673.1796875 880.379882812 687.779296875 858.48046875 c 4,7,8
 702.379882812 835.120117188 702.379882812 835.120117188 692.16015625 808.83984375 c 5,9,-1
 690.700195312 808.83984375 l 5,10,11
 681.939453125 782.559570312 681.939453125 782.559570312 658.580078125 772.33984375 c 260,12,13
 632.299804688 762.120117188 632.299804688 762.120117188 608.939453125 773.799804688 c 6,14,-1
 489.219726562 835.120117188 l 6,15,16
 477.540039062 840.959960938 477.540039062 840.959960938 468.779296875 832.200195312 c 4,17,18
 458.559570312 823.440429688 458.559570312 823.440429688 462.939453125 810.299804688 c 6,19,-1
 511.120117188 683.280273438 l 6,20,21
 521.33984375 657 521.33984375 657 508.200195312 633.639648438 c 4,22,23
 492.139648438 607.360351562 492.139648438 607.360351562 465.859375 601.51953125 c 5,24,-1
 465.859375 601.51953125 l 5,25,26
 439.580078125 595.6796875 439.580078125 595.6796875 416.219726562 613.200195312 c 260,27,28
 392.859375 630.719726562 392.859375 630.719726562 392.859375 657 c 6,29,-1
 384.099609375 794.240234375 l 6,30,31
 384.099609375 805.919921875 384.099609375 805.919921875 369.5 811.759765625 c 4,32,33
 357.819335938 814.6796875 357.819335938 814.6796875 349.059570312 805.919921875 c 6,34,-1
 257.080078125 700.799804688 l 6,35,36
 238.099609375 680.360351562 238.099609375 680.360351562 211.819335938 680.360351562 c 132,-1,37
 185.540039062 680.360351562 185.540039062 680.360351562 168.01953125 700.799804688 c 5,38,-1
 168.01953125 702.259765625 l 5,39,40
 150.5 721.240234375 150.5 721.240234375 156.33984375 747.51953125 c 260,41,42
 162.1796875 773.799804688 162.1796875 773.799804688 182.620117188 788.400390625 c 6,43,-1
 297.959960938 861.400390625 l 6,44,45
 311.099609375 867.240234375 311.099609375 867.240234375 308.1796875 881.83984375 c 132,-1,46
 305.259765625 896.440429688 305.259765625 896.440429688 290.66015625 899.360351562 c 6,47,-1
 165.099609375 921.259765625 l 6,48,49
 138.819335938 925.639648438 138.819335938 925.639648438 124.219726562 949 c 260,50,51
 109.620117188 972.360351562 109.620117188 972.360351562 119.83984375 998.639648438 c 5,52,-1
 119.83984375 998.639648438 l 5,53,54
 128.599609375 1024.91992188 128.599609375 1024.91992188 153.419921875 1035.13964844 c 260,55,56
 179.700195312 1045.36035156 179.700195312 1045.36035156 203.059570312 1033.6796875 c 6,57,-1
 315.479492188 975.280273438 l 6,58,59
 327.16015625 969.440429688 327.16015625 969.440429688 337.379882812 978.200195312 c 4,60,61
 349.059570312 986.959960938 349.059570312 986.959960938 343.219726562 1000.09960938 c 6,62,-1
 296.5 1127.12011719 l 6,63,64
 287.739257812 1153.40039062 287.739257812 1153.40039062 299.419921875 1176.75976562 c 4,65,66
 314.01953125 1201.58007812 314.01953125 1201.58007812 340.299804688 1205.95996094 c 5,67,-1
 340.299804688 1205.95996094 l 5,68,69
 366.580078125 1211.79980469 366.580078125 1211.79980469 389.939453125 1195.74023438 c 4,70,71
 410.379882812 1176.75976562 410.379882812 1176.75976562 413.299804688 1150.48046875 c 6,72,-1
 419.139648438 1016.16015625 l 6,73,74
 419.139648438 1003.01953125 419.139648438 1003.01953125 433.739257812 998.639648438 c 4,75,76
 445.419921875 994.259765625 445.419921875 994.259765625 454.1796875 1004.48046875 c 6,77,-1
 544.700195312 1109.59960938 l 6,78,79
 562.219726562 1130.04003906 562.219726562 1130.04003906 589.959960938 1130.04003906 c 4,80,81
 616.239257812 1130.04003906 616.239257812 1130.04003906 635.219726562 1109.59960938 c 6,82,-1
 635.219726562 1109.59960938 l 6,83,84
 652.739257812 1089.16015625 652.739257812 1089.16015625 649.819335938 1061.41992188 c 260,85,86
 646.899414062 1033.6796875 646.899414062 1033.6796875 623.540039062 1019.08007812 c 6,87,-1
 508.200195312 943.16015625 l 6,0,1
EndSplineSet
EndChar

StartChar: plus
Encoding: 14 43 14
Width: 937
VWidth: 1495
GlyphClass: 2
Flags: W
LayerCount: 2
Back
Fore
SplineSet
605.379882812 525.599609375 m 1,0,-1
 868.1796875 525.599609375 l 2,1,2
 897.379882812 525.599609375 897.379882812 525.599609375 914.900390625 505.16015625 c 256,3,4
 935.33984375 484.719726562 935.33984375 484.719726562 935.33984375 458.440429688 c 2,5,-1
 935.33984375 455.51953125 l 2,6,7
 935.33984375 427.780273438 935.33984375 427.780273438 914.900390625 408.799804688 c 0,8,9
 894.459960938 388.360351562 894.459960938 388.360351562 868.1796875 388.360351562 c 2,10,-1
 605.379882812 388.360351562 l 1,11,-1
 605.379882812 140.16015625 l 2,12,13
 605.379882812 108.040039062 605.379882812 108.040039062 582.01953125 84.6796875 c 256,14,15
 558.66015625 61.3203125 558.66015625 61.3203125 529.459960938 62.7802734375 c 2,16,-1
 526.540039062 62.7802734375 l 2,17,18
 494.419921875 61.3203125 494.419921875 61.3203125 472.51953125 84.6796875 c 128,-1,19
 450.620117188 108.040039062 450.620117188 108.040039062 450.620117188 140.16015625 c 2,20,-1
 450.620117188 388.360351562 l 1,21,-1
 187.8203125 388.360351562 l 2,22,23
 158.620117188 388.360351562 158.620117188 388.360351562 139.639648438 408.799804688 c 128,-1,24
 120.66015625 429.240234375 120.66015625 429.240234375 120.66015625 455.51953125 c 2,25,-1
 120.66015625 458.440429688 l 2,26,27
 120.66015625 487.639648438 120.66015625 487.639648438 139.639648438 505.16015625 c 256,28,29
 160.080078125 525.599609375 160.080078125 525.599609375 187.8203125 525.599609375 c 2,30,-1
 450.620117188 525.599609375 l 1,31,-1
 450.620117188 770.879882812 l 2,32,33
 450.620117188 803 450.620117188 803 472.51953125 823.440429688 c 0,34,35
 494.419921875 846.799804688 494.419921875 846.799804688 526.540039062 846.799804688 c 2,36,-1
 529.459960938 846.799804688 l 2,37,38
 561.580078125 846.799804688 561.580078125 846.799804688 582.01953125 823.440429688 c 256,39,40
 605.379882812 800.080078125 605.379882812 800.080078125 605.379882812 770.879882812 c 2,41,-1
 605.379882812 525.599609375 l 1,0,-1
EndSplineSet
EndChar

StartChar: comma
Encoding: 15 44 15
Width: 372
VWidth: 1495
GlyphClass: 2
Flags: W
LayerCount: 2
Back
Fore
SplineSet
331.400390625 227.759765625 m 4,1,2
 291.98046875 268.639648438 291.98046875 268.639648438 236.5 267.1796875 c 4,3,4
 182.48046875 268.639648438 182.48046875 268.639648438 141.599609375 227.759765625 c 4,5,6
 100.719726562 188.33984375 100.719726562 188.33984375 100.719726562 131.400390625 c 4,7,8
 100.719726562 84.6796875 100.719726562 84.6796875 129.919921875 48.1796875 c 132,-1,9
 159.120117188 11.6796875 159.120117188 11.6796875 202.919921875 0 c 5,10,11
 197.080078125 -8.759765625 197.080078125 -8.759765625 188.3203125 -11.6796875 c 6,12,-1
 185.400390625 -11.6796875 l 6,13,14
 182.48046875 -16.0595703125 182.48046875 -16.0595703125 162.040039062 -26.2802734375 c 4,15,16
 127 -40.8798828125 127 -40.8798828125 129.919921875 -73 c 4,17,18
 132.83984375 -102.200195312 132.83984375 -102.200195312 150.360351562 -108.040039062 c 4,19,20
 224.8203125 -129.940429688 224.8203125 -129.940429688 297.8203125 -49.6396484375 c 4,21,22
 372.280273438 30.66015625 372.280273438 30.66015625 372.280273438 131.400390625 c 4,23,0
 372.280273438 188.33984375 372.280273438 188.33984375 331.400390625 227.759765625 c 4,1,2
EndSplineSet
EndChar

StartChar: hyphen
Encoding: 16 45 16
Width: 585
VWidth: 1495
GlyphClass: 2
Flags: W
LayerCount: 2
Back
Fore
SplineSet
585.98046875 389.8203125 m 6,0,1
 585.98046875 359.16015625 585.98046875 359.16015625 559.700195312 335.799804688 c 4,2,3
 536.33984375 312.440429688 536.33984375 312.440429688 501.299804688 312.440429688 c 6,4,-1
 194.700195312 312.440429688 l 6,5,6
 159.66015625 312.440429688 159.66015625 312.440429688 134.83984375 335.799804688 c 260,7,8
 110.01953125 359.16015625 110.01953125 359.16015625 110.01953125 389.8203125 c 6,9,-1
 110.01953125 391.280273438 l 6,10,11
 110.01953125 423.400390625 110.01953125 423.400390625 134.83984375 446.759765625 c 260,12,13
 159.66015625 470.120117188 159.66015625 470.120117188 194.700195312 468.66015625 c 6,14,-1
 501.299804688 468.66015625 l 6,15,16
 536.33984375 470.120117188 536.33984375 470.120117188 559.700195312 446.759765625 c 4,17,18
 585.98046875 423.400390625 585.98046875 423.400390625 585.98046875 391.280273438 c 6,19,-1
 585.98046875 389.8203125 l 6,0,1
EndSplineSet
EndChar

StartChar: period
Encoding: 17 46 17
Width: 389
VWidth: 1495
GlyphClass: 2
Flags: W
LayerCount: 2
Back
Fore
SplineSet
349.12890625 43.7998046875 m 128,-1,1
 309.708984375 2.919921875 309.708984375 2.919921875 254.23046875 2.919921875 c 128,-1,2
 198.75 2.919921875 198.75 2.919921875 157.869140625 43.7998046875 c 0,3,4
 118.44921875 84.6796875 118.44921875 84.6796875 118.44921875 140.16015625 c 128,-1,5
 118.44921875 195.639648438 118.44921875 195.639648438 157.869140625 235.059570312 c 0,6,7
 198.75 274.48046875 198.75 274.48046875 254.23046875 274.48046875 c 128,-1,8
 309.708984375 274.48046875 309.708984375 274.48046875 349.12890625 235.059570312 c 128,-1,9
 388.55078125 195.639648438 388.55078125 195.639648438 388.55078125 140.16015625 c 128,-1,0
 388.55078125 84.6796875 388.55078125 84.6796875 349.12890625 43.7998046875 c 128,-1,1
EndSplineSet
EndChar

StartChar: slash
Encoding: 18 47 18
Width: 436
VWidth: 1495
GlyphClass: 2
Flags: W
LayerCount: 2
Back
Fore
SplineSet
287.560546875 1018.28027344 m 6,0,1
 305.080078125 1070.83984375 305.080078125 1070.83984375 359.100585938 1070.83984375 c 6,2,-1
 360.560546875 1070.83984375 l 6,3,4
 398.520507812 1070.83984375 398.520507812 1070.83984375 421.879882812 1041.63964844 c 4,5,6
 443.780273438 1009.51953125 443.780273438 1009.51953125 432.100585938 973.01953125 c 6,7,-1
 109.440429688 -18.3203125 l 6,8,9
 93.3798828125 -70.8798828125 93.3798828125 -70.8798828125 37.900390625 -70.8798828125 c 6,10,-1
 34.98046875 -70.8798828125 l 6,11,12
 -2.9794921875 -70.8798828125 -2.9794921875 -70.8798828125 -24.8798828125 -41.6796875 c 260,13,14
 -46.779296875 -12.48046875 -46.779296875 -12.48046875 -35.099609375 25.48046875 c 6,15,-1
 287.560546875 1018.28027344 l 6,0,1
EndSplineSet
EndChar

StartChar: zero
Encoding: 19 48 19
Width: 991
VWidth: 1495
GlyphClass: 2
Flags: W
LayerCount: 2
Back
Fore
SplineSet
398.44140625 225.250976562 m 0,1,2
 337.041015625 321 337.041015625 321 337.12109375 498.359375 c 256,3,4
 337.041015625 679 337.041015625 679 398.44140625 774.604492188 c 0,5,6
 461.041015625 871 461.041015625 871 551.741210938 870.672851562 c 256,7,8
 641.041015625 871 641.041015625 871 703.581054688 774.604492188 c 256,9,10
 766.041015625 679 766.041015625 679 766.361328125 498.359375 c 256,11,12
 766.041015625 321 766.041015625 321 703.581054688 225.250976562 c 256,13,14
 635.041015625 119 635.041015625 119 551.741210938 119.18359375 c 256,15,0
 466.041015625 119 466.041015625 119 398.44140625 225.250976562 c 0,1,2
551.741210938 1002.42382812 m 256,17,18
 544.041015625 1002 544.041015625 1002 524.000976562 999.678710938 c 0,19,20
 344.041015625 980 344.041015625 980 233.4609375 851.458984375 c 0,21,22
 115.041015625 712 115.041015625 712 116.661132812 484.635742188 c 0,23,24
 118.041015625 272 118.041015625 272 220.321289062 145.258789062 c 0,25,26
 310.473632812 33.2197265625 310.473632812 33.2197265625 524.000976562 -2.9599609375 c 0,27,28
 536.041015625 -5 536.041015625 -5 541.521484375 -5.705078125 c 0,29,30
 544.041015625 -6 544.041015625 -6 547.361328125 -5.705078125 c 256,31,32
 550.041015625 -6 550.041015625 -6 551.741210938 -5.705078125 c 0,33,34
 553.041015625 -6 553.041015625 -6 556.12109375 -5.705078125 c 0,35,36
 559.041015625 -6 559.041015625 -6 561.9609375 -5.705078125 c 0,37,38
 568.041015625 -4 568.041015625 -4 579.481445312 -2.9599609375 c 0,39,40
 778.041015625 13 778.041015625 13 883.161132812 145.258789062 c 0,41,42
 985.041015625 274 985.041015625 274 985.361328125 484.635742188 c 0,43,44
 985.041015625 716 985.041015625 716 868.560546875 851.458984375 c 0,45,46
 760.041015625 978 760.041015625 978 579.481445312 999.678710938 c 0,47,16
 560.041015625 1002 560.041015625 1002 551.741210938 1002.42382812 c 256,17,18
EndSplineSet
EndChar

StartChar: one
Encoding: 20 49 20
Width: 553
VWidth: 1495
GlyphClass: 2
Flags: W
LayerCount: 2
Back
Fore
SplineSet
359.712890625 996.287109375 m 2,0,1
 323.724609375 996.287109375 323.724609375 996.287109375 292.877929688 963.204101562 c 1,2,3
 292.877929688 963.204101562 l 1,4,-1
 292.877929688 963.204101562 l 1,5,6
 244.45703125 912 244.45703125 912 168.321289062 880.495117188 c 0,7,8
 131.45703125 865 131.45703125 865 116.67578125 832.374023438 c 0,9,10
 96.37109375 784.797851562 96.37109375 784.797851562 118.1953125 763.198242188 c 2,11,-1
 119.713867188 761.6953125 l 2,12,13
 133.45703125 731 133.45703125 731 165.283203125 716.581054688 c 0,14,15
 200.45703125 701 200.45703125 701 232.119140625 715.077148438 c 0,16,17
 271.45703125 732 271.45703125 732 309.587890625 752.672851562 c 1,18,-1
 309.587890625 98.5947265625 l 2,19,20
 309.45703125 42 309.45703125 42 344.5234375 5.8857421875 c 0,21,22
 360.663085938 -10.205078125 360.663085938 -10.205078125 429.586914062 -10.205078125 c 2,23,-1
 432.624023438 -10.205078125 l 2,24,25
 500.45703125 -10 500.45703125 -10 516.16796875 5.8857421875 c 0,26,27
 551.10546875 39.66015625 551.10546875 39.66015625 551.10546875 98.5947265625 c 2,28,-1
 551.10546875 912.075195312 l 2,29,30
 551.45703125 947 551.45703125 947 526.801757812 972.2265625 c 0,31,32
 502.163085938 996.287109375 502.163085938 996.287109375 466.041992188 996.287109375 c 2,33,-1
 359.712890625 996.287109375 l 2,0,1
EndSplineSet
EndChar

StartChar: two
Encoding: 21 50 21
Width: 762
VWidth: 1495
GlyphClass: 2
Flags: W
LayerCount: 2
Back
Fore
SplineSet
736.274414062 594.01953125 m 4,0,1
 762.686523438 654 762.686523438 654 762.5546875 719.580078125 c 4,2,3
 762.686523438 836 762.686523438 836 669.114257812 915.219726562 c 4,4,5
 576.686523438 993 576.686523438 993 416.534179688 992.599609375 c 4,6,7
 280.686523438 993 280.686523438 993 180.014648438 919.599609375 c 4,8,9
 147.686523438 896 147.686523438 896 144.974609375 858.280273438 c 4,10,11
 141.686523438 817 141.686523438 817 172.713867188 794.040039062 c 5,12,-1
 174.173828125 794.040039062 l 6,13,14
 195.686523438 777 195.686523438 777 226.734375 775.059570312 c 260,15,16
 255.686523438 774 255.686523438 774 277.833984375 794.040039062 c 4,17,18
 319.686523438 829 319.686523438 829 375.654296875 834.919921875 c 4,19,20
 421.686523438 840 421.686523438 840 483.694335938 805.719726562 c 4,21,22
 495.686523438 799 495.686523438 799 504.133789062 792.580078125 c 4,23,24
 519.686523438 780 519.686523438 780 530.4140625 753.16015625 c 4,25,26
 539.686523438 729 539.686523438 729 542.094726562 712.280273438 c 4,27,28
 546.686523438 672 546.686523438 672 509.974609375 618.83984375 c 4,29,30
 508.686523438 617 508.686523438 617 498.293945312 601.3203125 c 4,31,32
 180.686523438 182 180.686523438 182 130.374023438 119.719726562 c 4,33,34
 100.686523438 83 100.686523438 83 120.154296875 35.9599609375 c 4,35,36
 138.619140625 -7.83984375 138.619140625 -7.83984375 188.774414062 -7.83984375 c 6,37,-1
 669.114257812 -7.83984375 l 6,38,39
 708.686523438 -8 708.686523438 -8 734.814453125 19.900390625 c 4,40,41
 762.5546875 48.8623046875 762.5546875 48.8623046875 762.5546875 87.599609375 c 6,42,-1
 762.5546875 90.51953125 l 6,43,44
 762.686523438 127 762.686523438 127 734.814453125 156.219726562 c 4,45,46
 706.727539062 183.959960938 706.727539062 183.959960938 669.114257812 183.959960938 c 6,47,-1
 428.213867188 183.959960938 l 5,48,49
 582.686523438 382 582.686523438 382 653.0546875 459.919921875 c 4,50,51
 700.686523438 513 700.686523438 513 736.274414062 594.01953125 c 4,0,1
EndSplineSet
EndChar

StartChar: three
Encoding: 22 51 22
Width: 726
VWidth: 1495
GlyphClass: 2
Flags: W
LayerCount: 2
Back
Fore
SplineSet
681.03515625 785.48046875 m 4,1,2
 669.481445312 883 669.481445312 883 567.155273438 944.16015625 c 4,3,4
 460.73828125 1007.21777344 460.73828125 1007.21777344 321.875 1005.48046875 c 4,5,6
 270.481445312 1005 270.481445312 1005 248.875 1002.55957031 c 4,7,8
 217.481445312 999 217.481445312 999 170.03515625 986.5 c 4,9,10
 120.395507812 972.9765625 120.395507812 972.9765625 120.395507812 920.799804688 c 6,11,-1
 120.395507812 919.33984375 l 6,12,13
 120.481445312 886 120.481445312 886 148.135742188 864.3203125 c 4,14,15
 172.03125 846.10546875 172.03125 846.10546875 207.995117188 852.639648438 c 4,16,17
 226.481445312 856 226.481445312 856 245.955078125 858.48046875 c 4,18,19
 260.481445312 861 260.481445312 861 278.075195312 861.400390625 c 4,20,21
 345.481445312 861 345.481445312 861 394.875 829.280273438 c 260,22,23
 444.481445312 797 444.481445312 797 448.895507812 753.360351562 c 4,24,25
 454.481445312 703 454.481445312 703 405.095703125 659.919921875 c 4,26,27
 381.481445312 639 381.481445312 639 302.895507812 617.580078125 c 4,28,29
 245.955078125 602.12890625 245.955078125 602.12890625 245.955078125 543.120117188 c 6,30,-1
 245.955078125 540.200195312 l 6,31,32
 245.481445312 510 245.481445312 510 263.475585938 490.559570312 c 4,33,34
 282.673828125 468.638671875 282.673828125 468.638671875 310.1953125 464.280273438 c 4,35,36
 362.481445312 456 362.481445312 456 378.815429688 446.759765625 c 4,37,38
 416.481445312 427 416.481445312 427 438.67578125 385.440429688 c 260,39,40
 450.35546875 364.228515625 450.35546875 364.228515625 450.35546875 303.6796875 c 6,41,-1
 450.35546875 294.919921875 l 6,42,43
 450.481445312 237 450.481445312 237 372.975585938 195.639648438 c 4,44,45
 307.481445312 161 307.481445312 161 222.595703125 176.66015625 c 4,46,-1
 216.754882812 178.120117188 l 6,47,48
 181.481445312 187 181.481445312 187 149.595703125 157.6796875 c 4,49,50
 120.395507812 130.920898438 120.395507812 130.920898438 120.395507812 93.4404296875 c 6,51,-1
 120.395507812 93.4404296875 l 6,52,53
 120.481445312 63 120.481445312 63 139.375 38.419921875 c 4,54,55
 148.80078125 26.6171875 148.80078125 26.6171875 187.555664062 9.2197265625 c 4,56,57
 193.481445312 7 193.481445312 7 202.155273438 4.83984375 c 4,58,59
 258.481445312 -7 258.481445312 -7 327.71484375 -6.83984375 c 4,60,61
 477.015625 -6.9970703125 477.015625 -6.9970703125 590.515625 62.7802734375 c 4,62,63
 699.481445312 130 699.481445312 130 721.915039062 239.440429688 c 4,64,65
 739.481445312 324 739.481445312 324 691.254882812 408.799804688 c 260,66,67
 643.481445312 493 643.481445312 493 546.71484375 557.719726562 c 5,68,0
 696.481445312 655 696.481445312 655 681.03515625 785.48046875 c 4,1,2
EndSplineSet
EndChar

StartChar: four
Encoding: 23 52 23
Width: 999
VWidth: 1495
GlyphClass: 2
Flags: W
LayerCount: 2
Back
Fore
SplineSet
621.872070312 417.120117188 m 5,0,-1
 360.532226562 417.120117188 l 5,1,-1
 360.532226562 422.959960938 l 5,2,-1
 621.872070312 830.299804688 l 5,3,-1
 621.872070312 417.120117188 l 5,0,-1
835.032226562 417.120117188 m 5,4,-1
 835.032226562 863.879882812 l 6,5,6
 835.517578125 941 835.517578125 941 802.912109375 972.799804688 c 4,7,8
 770.59765625 1004.91992188 770.59765625 1004.91992188 726.9921875 1004.91992188 c 6,9,-1
 607.711914062 1004.91992188 l 6,10,11
 550.90234375 1004.99902344 550.90234375 1004.99902344 520.112304688 959.66015625 c 6,12,-1
 153.65234375 420.040039062 l 6,13,14
 120.072265625 370.340820312 120.072265625 370.340820312 120.072265625 357.259765625 c 6,15,-1
 120.072265625 355.799804688 l 6,16,17
 120.517578125 307 120.517578125 307 165.33203125 259.879882812 c 4,18,19
 194.309570312 229.219726562 194.309570312 229.219726562 239.791992188 229.219726562 c 6,20,-1
 621.872070312 229.219726562 l 5,21,-1
 607.272460938 108.040039062 l 6,22,23
 601.517578125 57 601.517578125 57 640.852539062 17.740234375 c 260,24,25
 674.357421875 -15.83984375 674.357421875 -15.83984375 721.15234375 -15.83984375 c 6,26,-1
 722.612304688 -15.83984375 l 6,27,28
 770.517578125 -16 770.517578125 -16 802.912109375 17.740234375 c 260,29,30
 835.032226562 49.51953125 835.032226562 49.51953125 835.032226562 106.580078125 c 6,31,-1
 835.032226562 229.219726562 l 5,32,-1
 916.791992188 229.219726562 l 6,33,34
 959.517578125 229 959.517578125 229 983.952148438 270.719726562 c 4,35,36
 1009.51757812 315 1009.51757812 315 994.171875 361.639648438 c 5,37,-1
 992.711914062 361.639648438 l 5,38,39
 972.473632812 417.120117188 972.473632812 417.120117188 915.33203125 417.120117188 c 6,40,-1
 835.032226562 417.120117188 l 5,4,-1
EndSplineSet
EndChar

StartChar: five
Encoding: 24 53 24
Width: 814
VWidth: 1495
GlyphClass: 2
Flags: W
LayerCount: 2
Back
Fore
SplineSet
380.626953125 819.3203125 m 5,0,-1
 707.666992188 795.959960938 l 6,1,2
 762.6328125 792.009765625 762.6328125 792.009765625 796.727539062 860.200195312 c 6,3,-1
 798.1875 863.120117188 l 6,4,5
 823.76953125 915 823.76953125 915 783.586914062 968.240234375 c 4,6,7
 755.622070312 1006.20019531 755.622070312 1006.20019531 709.126953125 1006.20019531 c 6,8,-1
 199.34765625 1006.20019531 l 5,9,-1
 159.927734375 563.559570312 l 6,10,11
 156.76953125 528 156.76953125 528 158.467773438 521.219726562 c 4,12,13
 165.76953125 483 165.76953125 483 206.647460938 474.5 c 4,14,15
 219.76953125 472 219.76953125 472 301.547851562 474.5 c 4,16,17
 388.76953125 477 388.76953125 477 427.34765625 465.740234375 c 4,18,19
 486.76953125 448 486.76953125 448 512.02734375 411.719726562 c 4,20,21
 541.227539062 367.303710938 541.227539062 367.303710938 541.227539062 327.040039062 c 6,22,-1
 541.227539062 318.280273438 l 6,23,24
 540.76953125 248 540.76953125 248 475.52734375 198.559570312 c 4,25,26
 409.76953125 149 409.76953125 149 316.387695312 147.459960938 c 5,27,28
 265.76953125 144 265.76953125 144 206.887695312 154.759765625 c 4,29,30
 173.76953125 161 173.76953125 161 147.02734375 138.700195312 c 4,31,32
 120.747070312 117.982421875 120.747070312 117.982421875 120.747070312 83.2197265625 c 6,33,-1
 120.747070312 81.759765625 l 6,34,35
 120.76953125 55 120.76953125 55 138.267578125 36.5 c 260,36,37
 155.76953125 18 155.76953125 18 179.147460938 11.6796875 c 4,38,39
 251.76953125 -6 251.76953125 -6 329.52734375 -5.83984375 c 4,40,41
 530.76953125 -6 530.76953125 -6 672.626953125 89.0595703125 c 4,42,43
 813.76953125 184 813.76953125 184 814.247070312 315.360351562 c 4,44,45
 815.76953125 634 815.76953125 634 368.947265625 633.639648438 c 5,46,-1
 380.626953125 819.3203125 l 5,0,-1
EndSplineSet
EndChar

StartChar: six
Encoding: 25 54 25
Width: 967
VWidth: 1495
GlyphClass: 2
Flags: W
LayerCount: 2
Back
Fore
SplineSet
700.408203125 194.040039062 m 0,0,1
 639 138 639 138 573.387695312 138.780273438 c 0,2,3
 466 140 466 140 411.328125 198.639648438 c 0,4,5
 369 243 369 243 364.608398438 330.040039062 c 0,6,7
 362 396 362 396 390.448242188 442.120117188 c 4,8,9
 447 531 447 531 551.48828125 530.959960938 c 4,10,11
 634 531 634 531 696.248046875 481.3203125 c 4,12,13
 776 418 776 418 760.047851562 320.83984375 c 0,14,15
 746 236 746 236 700.408203125 194.040039062 c 0,0,1
697.48828125 7.2998046875 m 24,16,17
 815 51 815 51 880.125 124.5 c 0,18,19
 951 203 951 203 965.125 307.5 c 0,20,21
 984 450 984 450 891.125 548 c 0,22,23
 791 653 791 653 634.625 653 c 0,24,25
 478 653 478 653 360.448242188 573.299804688 c 1,26,27
 398 683 398 683 486.125 754.5 c 0,28,29
 574 826 574 826 659.528320312 821.5 c 0,30,31
 669 821 669 821 703.125 815.5 c 0,32,33
 737 810 737 810 768.625 832.5 c 0,34,35
 800 855 800 855 805.528320312 893.040039062 c 1,36,-1
 806.98828125 893.040039062 l 1,37,38
 814 933 814 933 790.927734375 964.580078125 c 256,39,40
 759 1007 759 1007 679.967773438 1006.91992188 c 0,41,42
 667 1007 667 1007 647.84765625 1005.45996094 c 0,43,44
 432 988 432 988 292.625 852.5 c 0,45,46
 124.636149874 687.95072502 124.636149874 687.95072502 123.815429688 493.694335938 c 0,47,48
 124 64 124 64 424.688476562 0 c 0,49,50
 480.549357626 -11.6796875 480.549357626 -11.6796875 521.047851562 -11.6796875 c 2,51,-1
 523.967773438 -11.6796875 l 2,52,53
 527 -12 527 -12 529.807617188 -11.6796875 c 2,54,-1
 559.0078125 -11.6796875 l 2,55,56
 649 -12 649 -12 697.48828125 7.2998046875 c 24,16,17
EndSplineSet
EndChar

StartChar: seven
Encoding: 26 55 26
Width: 851
VWidth: 1495
GlyphClass: 2
Flags: W
LayerCount: 2
Back
Fore
SplineSet
539.348632812 795.040039062 m 5,0,-1
 539.348632812 789.200195312 l 5,1,-1
 200.62890625 159.360351562 l 6,2,3
 168.721679688 101 168.721679688 101 200.62890625 42.5595703125 c 132,-1,4
 232.633789062 -15.83984375 232.633789062 -15.83984375 299.909179688 -15.83984375 c 6,5,-1
 302.829101562 -15.83984375 l 6,6,7
 369.63671875 -16 369.63671875 -16 402.109375 42.5595703125 c 6,8,-1
 837.188476562 827.16015625 l 6,9,10
 851.7890625 853.120117188 851.7890625 853.120117188 851.7890625 879.719726562 c 6,11,-1
 851.7890625 899.719726562 l 6,12,13
 851.721679688 942 851.721679688 942 819.668945312 972.719726562 c 4,14,15
 790.80078125 1001.91992188 790.80078125 1001.91992188 748.12890625 1001.91992188 c 6,16,-1
 206.46875 1001.91992188 l 6,17,18
 161.721679688 1002 161.721679688 1002 140.548828125 978.959960938 c 4,19,20
 115.059570312 951.366210938 115.059570312 951.366210938 117.409179688 900.740234375 c 6,21,-1
 118.869140625 869.280273438 l 6,22,23
 122.719726562 795.040039062 122.719726562 795.040039062 206.46875 795.040039062 c 6,24,-1
 539.348632812 795.040039062 l 5,0,-1
EndSplineSet
EndChar

StartChar: eight
Encoding: 27 56 27
Width: 917
VWidth: 1495
GlyphClass: 2
Flags: W
LayerCount: 2
Back
Fore
SplineSet
495.33984375 594.826171875 m 6,0,1
 430.1953125 606.038085938 430.1953125 606.038085938 394.791015625 650.889648438 c 4,2,3
 350.888671875 709.756835938 350.888671875 709.756835938 366.466796875 816.278320312 c 5,4,-1
 367.8828125 819.08203125 l 5,5,6
 376.37890625 866.735351562 376.37890625 866.735351562 418.865234375 894.767578125 c 4,7,8
 462.767578125 922.799804688 462.767578125 922.799804688 516.583984375 914.390625 c 6,9,-1
 525.080078125 911.587890625 l 6,10,11
 594.474609375 900.374023438 594.474609375 900.374023438 634.12890625 849.916992188 c 260,12,13
 682.279296875 785.443359375 682.279296875 785.443359375 665.283203125 674.716796875 c 4,14,15
 658.203125 631.267578125 658.203125 631.267578125 618.548828125 606.038085938 c 260,16,17
 580.3125 580.809570312 580.3125 580.809570312 529.330078125 589.21875 c 6,18,-1
 495.33984375 594.826171875 l 6,0,1
670.94921875 224.802734375 m 6,19,20
 670.94921875 171.54296875 670.94921875 171.54296875 632.7109375 132.296875 c 132,-1,21
 594.474609375 93.052734375 594.474609375 93.052734375 540.658203125 94.4541015625 c 6,22,-1
 530.74609375 94.4541015625 l 6,23,24
 461.3515625 94.4541015625 461.3515625 94.4541015625 413.201171875 143.510742188 c 4,25,26
 362.216796875 191.165039062 362.216796875 191.165039062 362.216796875 345.340820312 c 4,27,28
 362.216796875 395.798828125 362.216796875 395.798828125 399.0390625 429.436523438 c 132,-1,29
 435.859375 463.075195312 435.859375 463.075195312 484.009765625 463.075195312 c 6,30,-1
 518 463.075195312 l 6,31,32
 580.3125 463.075195312 580.3125 463.075195312 625.630859375 418.224609375 c 260,33,34
 670.94921875 373.372070312 670.94921875 373.372070312 670.94921875 227.606445312 c 6,35,-1
 670.94921875 224.802734375 l 6,19,20
710.603515625 547.170898438 m 5,36,37
 789.91015625 575.203125 789.91015625 575.203125 833.8125 629.866210938 c 4,38,39
 877.712890625 681.724609375 877.712890625 681.724609375 877.712890625 751.8046875 c 4,40,41
 877.712890625 863.932617188 877.712890625 863.932617188 781.412109375 936.815429688 c 132,-1,42
 685.111328125 1009.69921875 685.111328125 1009.69921875 512.333984375 1008.296875 c 4,43,44
 336.7265625 1009.69921875 336.7265625 1009.69921875 243.255859375 936.815429688 c 4,45,46
 148.37109375 863.932617188 148.37109375 863.932617188 148.37109375 751.8046875 c 4,47,48
 148.37109375 687.331054688 148.37109375 687.331054688 189.44140625 632.668945312 c 4,49,50
 230.509765625 579.408203125 230.509765625 579.408203125 321.1484375 547.170898438 c 5,51,52
 216.349609375 510.729492188 216.349609375 510.729492188 166.78125 443.452148438 c 260,53,54
 118.630859375 376.17578125 118.630859375 376.17578125 118.630859375 294.8828125 c 4,55,56
 118.630859375 149.1171875 118.630859375 149.1171875 248.921875 65.021484375 c 4,57,58
 359.384765625 -5.05859375 359.384765625 -5.05859375 523.6640625 -5.05859375 c 4,59,60
 702.10546875 -5.05859375 702.10546875 -5.05859375 809.736328125 80.4384765625 c 132,-1,61
 917.369140625 165.935546875 917.369140625 165.935546875 917.369140625 303.29296875 c 4,62,63
 917.369140625 387.388671875 917.369140625 387.388671875 863.552734375 450.4609375 c 132,-1,64
 809.736328125 513.532226562 809.736328125 513.532226562 710.603515625 547.170898438 c 5,36,37
EndSplineSet
EndChar

StartChar: nine
Encoding: 28 57 28
Width: 931
VWidth: 1495
GlyphClass: 2
Flags: W
LayerCount: 2
Back
Fore
SplineSet
386.954101562 833.345703125 m 4,0,1
 327 782 327 782 326.5546875 700.096679688 c 4,2,3
 326 623 326 623 380.189453125 568.625976562 c 4,4,5
 429 518 429 518 521.456054688 517.663085938 c 4,6,7
 640 518 640 518 688.28515625 595.521484375 c 4,8,9
 711 634 711 634 710.392578125 667.899414062 c 4,10,11
 706 764 706 764 658.340820312 819.189453125 c 4,12,13
 607 877 607 877 510.34765625 877.229492188 c 4,14,15
 438 877 438 877 386.954101562 833.345703125 c 4,0,1
604.9765625 1008.09765625 m 260,16,17
 774.110351562 991 774.110351562 991 869.913085938 840.422851562 c 4,18,19
 949.110351562 716 949.110351562 716 926.418945312 523.325195312 c 4,20,21
 901.110351562 313 901.110351562 313 766.317382812 169.420898438 c 4,22,23
 629.110351562 24 629.110351562 24 434.005859375 9.45703125 c 4,24,25
 415.110351562 8 415.110351562 8 401.716796875 8.0419921875 c 4,26,27
 391.110351562 8 391.110351562 8 372.118164062 9.45703125 c 4,28,29
 357.110351562 11 357.110351562 11 355.973632812 10.873046875 c 4,30,31
 328.110351562 8 328.110351562 8 299.466796875 49.0947265625 c 4,32,33
 278.110351562 80 278.110351562 80 286.013671875 117.043945312 c 5,34,-1
 286.013671875 118.459960938 l 5,35,36
 294.110351562 158 294.110351562 158 323.684570312 177.915039062 c 132,-1,37
 353.110351562 198 353.110351562 198 388.263671875 192.072265625 c 4,38,39
 407.110351562 189 407.110351562 189 423.243164062 187.825195312 c 4,40,41
 503.110351562 182 503.110351562 182 580.653320312 254.358398438 c 4,42,43
 656.110351562 325 656.110351562 325 688.28515625 427.063476562 c 5,44,45
 573.110351562 341 573.110351562 341 462.258789062 352.036132812 c 4,46,47
 452.110351562 353 452.110351562 353 450.151367188 353.451171875 c 6,48,-1
 444.768554688 353.451171875 l 5,49,-1
 439.38671875 353.451171875 l 6,50,51
 431.110351562 352 431.110351562 352 427.279296875 352.036132812 c 4,52,53
 273.110351562 353 273.110351562 353 189.145507812 458.20703125 c 4,54,55
 112.110351562 557 112.110351562 557 119.110351562 701 c 4,56,57
 138.110351562 1056 138.110351562 1056 604.9765625 1008.09765625 c 260,16,17
EndSplineSet
EndChar

StartChar: colon
Encoding: 29 58 29
Width: 384
VWidth: 1495
GlyphClass: 2
Flags: W
LayerCount: 2
Back
Fore
SplineSet
341.400390625 513.48046875 m 128,-1,1
 300.51953125 472.599609375 300.51953125 472.599609375 245.0390625 472.599609375 c 128,-1,2
 189.560546875 472.599609375 189.560546875 472.599609375 150.140625 513.48046875 c 128,-1,3
 110.720703125 554.360351562 110.720703125 554.360351562 110.720703125 609.83984375 c 128,-1,4
 110.720703125 665.3203125 110.720703125 665.3203125 150.140625 704.740234375 c 128,-1,5
 189.560546875 744.16015625 189.560546875 744.16015625 245.0390625 744.16015625 c 128,-1,6
 300.51953125 744.16015625 300.51953125 744.16015625 341.400390625 704.740234375 c 128,-1,7
 382.279296875 665.3203125 382.279296875 665.3203125 382.279296875 609.83984375 c 128,-1,0
 382.279296875 554.360351562 382.279296875 554.360351562 341.400390625 513.48046875 c 128,-1,1
344.3203125 63.7998046875 m 0,8,9
 304.900390625 22.919921875 304.900390625 22.919921875 247.958984375 22.919921875 c 256,10,11
 192.48046875 22.919921875 192.48046875 22.919921875 151.599609375 63.7998046875 c 128,-1,12
 110.720703125 104.6796875 110.720703125 104.6796875 112.1796875 160.16015625 c 0,13,14
 110.720703125 215.639648438 110.720703125 215.639648438 151.599609375 255.059570312 c 0,15,16
 191.01953125 294.48046875 191.01953125 294.48046875 247.958984375 294.48046875 c 256,17,18
 303.439453125 294.48046875 303.439453125 294.48046875 344.3203125 255.059570312 c 0,19,20
 382.279296875 215.639648438 382.279296875 215.639648438 382.279296875 160.16015625 c 128,-1,21
 382.279296875 104.6796875 382.279296875 104.6796875 344.3203125 63.7998046875 c 0,8,9
EndSplineSet
EndChar

StartChar: semicolon
Encoding: 30 59 30
Width: 397
VWidth: 1495
GlyphClass: 2
Flags: W
LayerCount: 2
Back
Fore
SplineSet
356.8203125 513.48046875 m 132,-1,1
 315.940429688 472.599609375 315.940429688 472.599609375 260.459960938 472.599609375 c 132,-1,2
 204.98046875 472.599609375 204.98046875 472.599609375 165.560546875 513.48046875 c 132,-1,3
 126.140625 554.360351562 126.140625 554.360351562 126.140625 609.83984375 c 132,-1,4
 126.140625 665.3203125 126.140625 665.3203125 165.560546875 704.740234375 c 132,-1,5
 204.98046875 744.16015625 204.98046875 744.16015625 260.459960938 744.16015625 c 132,-1,6
 315.940429688 744.16015625 315.940429688 744.16015625 356.8203125 704.740234375 c 132,-1,7
 397.700195312 665.3203125 397.700195312 665.3203125 397.700195312 609.83984375 c 132,-1,0
 397.700195312 554.360351562 397.700195312 554.360351562 356.8203125 513.48046875 c 132,-1,1
350.98046875 257.98046875 m 132,-1,9
 310.100585938 297.400390625 310.100585938 297.400390625 254.620117188 297.400390625 c 132,-1,10
 199.140625 297.400390625 199.140625 297.400390625 159.719726562 257.98046875 c 132,-1,11
 120.299804688 218.559570312 120.299804688 218.559570312 120.299804688 163.080078125 c 4,12,13
 120.299804688 116.360351562 120.299804688 116.360351562 149.5 78.400390625 c 4,14,15
 178.700195312 43.3603515625 178.700195312 43.3603515625 221.040039062 31.6796875 c 5,16,17
 213.740234375 22.919921875 213.740234375 22.919921875 206.440429688 20 c 6,18,-1
 204.98046875 18.5400390625 l 6,19,20
 202.060546875 14.16015625 202.060546875 14.16015625 180.16015625 5.400390625 c 4,21,22
 145.120117188 -9.2001953125 145.120117188 -9.2001953125 148.040039062 -42.7802734375 c 4,23,24
 150.959960938 -70.51953125 150.959960938 -70.51953125 168.48046875 -76.3603515625 c 4,25,26
 242.940429688 -96.7998046875 242.940429688 -96.7998046875 315.940429688 -17.9599609375 c 4,27,28
 391.860351562 63.7998046875 391.860351562 63.7998046875 391.860351562 163.080078125 c 4,29,8
 391.860351562 218.559570312 391.860351562 218.559570312 350.98046875 257.98046875 c 132,-1,9
EndSplineSet
EndChar

StartChar: less
Encoding: 31 60 31
Width: 920
VWidth: 1495
GlyphClass: 2
Flags: W
LayerCount: 2
Back
Fore
SplineSet
893.990234375 846.799804688 m 132,-1,1
 867.7109375 873.080078125 867.7109375 873.080078125 829.75 874.540039062 c 4,2,3
 812.23046875 876 812.23046875 876 793.25 867.240234375 c 6,4,-1
 188.810546875 605.900390625 l 6,5,6
 118.73046875 575.240234375 118.73046875 575.240234375 118.73046875 497.860351562 c 4,7,8
 118.73046875 421.940429688 118.73046875 421.940429688 188.810546875 391.280273438 c 6,9,-1
 793.25 131.400390625 l 6,10,11
 812.23046875 122.639648438 812.23046875 122.639648438 829.75 122.639648438 c 4,12,13
 867.7109375 122.639648438 867.7109375 122.639648438 893.990234375 148.919921875 c 132,-1,14
 920.26953125 175.200195312 920.26953125 175.200195312 920.26953125 216.080078125 c 4,15,16
 920.26953125 277.400390625 920.26953125 277.400390625 863.330078125 300.759765625 c 6,17,-1
 374.23046875 499.3203125 l 5,18,-1
 863.330078125 697.879882812 l 6,19,20
 920.26953125 721.240234375 920.26953125 721.240234375 920.26953125 782.559570312 c 4,21,0
 920.26953125 820.51953125 920.26953125 820.51953125 893.990234375 846.799804688 c 132,-1,1
EndSplineSet
EndChar

StartChar: equal
Encoding: 32 61 32
Width: 975
VWidth: 1495
GlyphClass: 2
Flags: W
LayerCount: 2
Back
Fore
SplineSet
207.587890625 697.879882812 m 6,0,1
 169.627929688 697.879882812 169.627929688 697.879882812 143.34765625 671.599609375 c 132,-1,2
 117.068359375 645.3203125 117.068359375 645.3203125 118.528320312 608.8203125 c 4,3,4
 117.068359375 572.3203125 117.068359375 572.3203125 143.34765625 546.040039062 c 132,-1,5
 169.627929688 519.759765625 169.627929688 519.759765625 207.587890625 519.759765625 c 6,6,-1
 886.48828125 519.759765625 l 6,7,8
 924.448242188 519.759765625 924.448242188 519.759765625 949.268554688 546.040039062 c 260,9,10
 975.547851562 572.3203125 975.547851562 572.3203125 975.547851562 610.280273438 c 4,11,12
 975.547851562 645.3203125 975.547851562 645.3203125 949.268554688 671.599609375 c 132,-1,13
 922.98828125 697.879882812 922.98828125 697.879882812 886.48828125 697.879882812 c 6,14,-1
 207.587890625 697.879882812 l 6,0,1
207.587890625 394.200195312 m 6,15,16
 169.627929688 394.200195312 169.627929688 394.200195312 143.34765625 367.919921875 c 132,-1,17
 117.068359375 341.639648438 117.068359375 341.639648438 118.528320312 303.6796875 c 4,18,19
 117.068359375 268.639648438 117.068359375 268.639648438 143.34765625 242.360351562 c 132,-1,20
 169.627929688 216.080078125 169.627929688 216.080078125 207.587890625 216.080078125 c 6,21,-1
 886.48828125 216.080078125 l 6,22,23
 924.448242188 216.080078125 924.448242188 216.080078125 949.268554688 242.360351562 c 260,24,25
 975.547851562 268.639648438 975.547851562 268.639648438 975.547851562 305.139648438 c 132,-1,26
 975.547851562 341.639648438 975.547851562 341.639648438 949.268554688 367.919921875 c 132,-1,27
 922.98828125 394.200195312 922.98828125 394.200195312 886.48828125 394.200195312 c 6,28,-1
 207.587890625 394.200195312 l 6,15,16
EndSplineSet
EndChar

StartChar: greater
Encoding: 33 62 33
Width: 920
VWidth: 1495
GlyphClass: 2
Flags: W
LayerCount: 2
Back
Fore
SplineSet
118.73046875 782.559570312 m 4,0,1
 118.73046875 721.240234375 118.73046875 721.240234375 175.669921875 697.879882812 c 6,2,-1
 663.310546875 499.3203125 l 5,3,-1
 175.669921875 300.759765625 l 6,4,5
 118.73046875 277.400390625 118.73046875 277.400390625 118.73046875 216.080078125 c 4,6,7
 120.189453125 178.120117188 120.189453125 178.120117188 146.470703125 148.919921875 c 4,8,9
 172.75 122.639648438 172.75 122.639648438 209.25 122.639648438 c 4,10,11
 228.23046875 122.639648438 228.23046875 122.639648438 245.75 131.400390625 c 6,12,-1
 850.189453125 391.280273438 l 6,13,14
 920.26953125 421.940429688 920.26953125 421.940429688 920.26953125 497.860351562 c 4,15,16
 920.26953125 575.240234375 920.26953125 575.240234375 850.189453125 605.900390625 c 6,17,-1
 245.75 867.240234375 l 6,18,19
 228.23046875 876 228.23046875 876 209.25 874.540039062 c 4,20,21
 172.75 873.080078125 172.75 873.080078125 146.470703125 846.799804688 c 132,-1,22
 120.189453125 820.51953125 120.189453125 820.51953125 118.73046875 782.559570312 c 4,0,1
EndSplineSet
EndChar

StartChar: question
Encoding: 34 63 34
Width: 709
VWidth: 1495
GlyphClass: 2
Flags: W
LayerCount: 2
Back
Fore
SplineSet
282.086914062 233.599609375 m 260,1,2
 321.506835938 271.559570312 321.506835938 271.559570312 382.827148438 271.559570312 c 4,3,4
 447.06640625 271.559570312 447.06640625 271.559570312 485.026367188 233.599609375 c 132,-1,5
 522.986328125 195.639648438 522.986328125 195.639648438 525.907226562 137.240234375 c 4,6,7
 525.907226562 78.83984375 525.907226562 78.83984375 487.947265625 40.8798828125 c 4,8,9
 447.06640625 2.919921875 447.06640625 2.919921875 382.827148438 2.919921875 c 132,-1,10
 318.586914062 2.919921875 318.586914062 2.919921875 280.626953125 40.8798828125 c 132,-1,11
 242.666992188 78.83984375 242.666992188 78.83984375 242.666992188 137.240234375 c 132,-1,0
 242.666992188 195.639648438 242.666992188 195.639648438 282.086914062 233.599609375 c 260,1,2
382.827148438 341.639648438 m 6,12,13
 336.106445312 341.639648438 336.106445312 341.639648438 305.447265625 379.599609375 c 132,-1,14
 274.787109375 417.559570312 274.787109375 417.559570312 283.546875 464.280273438 c 4,15,16
 303.986328125 572.3203125 303.986328125 572.3203125 390.126953125 632.1796875 c 4,17,18
 482.106445312 697.879882812 482.106445312 697.879882812 482.106445312 786.940429688 c 4,19,20
 482.106445312 870.16015625 482.106445312 870.16015625 365.306640625 876 c 4,21,22
 298.146484375 878.919921875 298.146484375 878.919921875 254.346679688 832.200195312 c 4,23,24
 213.466796875 788.400390625 213.466796875 788.400390625 166.747070312 814.6796875 c 4,25,26
 137.546875 832.200195312 137.546875 832.200195312 120.026367188 884.759765625 c 5,27,-1
 120.026367188 884.759765625 l 5,28,29
 108.346679688 915.419921875 108.346679688 915.419921875 131.70703125 959.219726562 c 4,30,31
 149.2265625 992.799804688 149.2265625 992.799804688 184.266601562 1001.55957031 c 4,32,33
 295.2265625 1030.75976562 295.2265625 1030.75976562 406.186523438 1030.75976562 c 4,34,35
 555.106445312 1030.75976562 555.106445312 1030.75976562 636.8671875 960.6796875 c 4,36,37
 709.8671875 896.440429688 709.8671875 896.440429688 709.8671875 800.080078125 c 4,38,39
 709.8671875 718.3203125 709.8671875 718.3203125 671.907226562 648.240234375 c 4,40,41
 633.947265625 581.080078125 633.947265625 581.080078125 575.546875 553.33984375 c 4,42,43
 496.70703125 515.379882812 496.70703125 515.379882812 486.486328125 432.16015625 c 4,44,45
 482.106445312 394.200195312 482.106445312 394.200195312 452.907226562 367.919921875 c 132,-1,46
 423.70703125 341.639648438 423.70703125 341.639648438 385.747070312 341.639648438 c 6,47,-1
 382.827148438 341.639648438 l 6,12,13
EndSplineSet
EndChar

StartChar: at
Encoding: 35 64 35
Width: 1111
VWidth: 1495
GlyphClass: 2
Flags: W
LayerCount: 2
Back
Fore
SplineSet
634.400390625 379.599609375 m 4,1,2
 611.0390625 367.919921875 611.0390625 367.919921875 584.759765625 367.919921875 c 4,3,4
 549.720703125 367.919921875 549.720703125 367.919921875 527.8203125 389.8203125 c 4,5,6
 504.458984375 411.719726562 504.458984375 411.719726562 504.458984375 458.440429688 c 4,7,8
 504.458984375 496.400390625 504.458984375 496.400390625 521.98046875 546.040039062 c 4,9,10
 532.19921875 572.3203125 532.19921875 572.3203125 562.859375 602.98046875 c 4,11,12
 603.740234375 645.3203125 603.740234375 645.3203125 647.5390625 645.3203125 c 4,13,14
 679.66015625 645.3203125 679.66015625 645.3203125 708.859375 620.5 c 4,15,16
 714.69921875 617.580078125 714.69921875 617.580078125 720.5390625 611.740234375 c 4,17,18
 729.298828125 605.900390625 729.298828125 605.900390625 730.759765625 588.379882812 c 4,19,20
 729.298828125 524.139648438 729.298828125 524.139648438 711.779296875 471.580078125 c 4,21,22
 694.259765625 417.559570312 694.259765625 417.559570312 670.900390625 402.959960938 c 4,23,24
 665.060546875 400.040039062 665.060546875 400.040039062 653.37890625 391.280273438 c 4,25,0
 638.779296875 382.51953125 638.779296875 382.51953125 634.400390625 379.599609375 c 4,1,2
869.458984375 146 m 4,27,28
 781.859375 110.959960938 781.859375 110.959960938 659.220703125 110.959960938 c 4,29,30
 530.740234375 110.959960938 530.740234375 110.959960938 432.919921875 151.83984375 c 4,31,32
 338.01953125 192.719726562 338.01953125 192.719726562 282.5390625 280.3203125 c 132,-1,33
 227.060546875 367.919921875 227.060546875 367.919921875 227.060546875 474.5 c 4,34,35
 227.060546875 586.919921875 227.060546875 586.919921875 276.69921875 689.120117188 c 4,36,37
 323.419921875 791.3203125 323.419921875 791.3203125 419.779296875 846.799804688 c 132,-1,38
 516.140625 902.280273438 516.140625 902.280273438 656.298828125 902.280273438 c 4,39,40
 818.359375 902.280273438 818.359375 902.280273438 907.419921875 817.599609375 c 4,41,42
 997.939453125 734.379882812 997.939453125 734.379882812 997.939453125 611.740234375 c 4,43,44
 997.939453125 541.66015625 997.939453125 541.66015625 965.8203125 477.419921875 c 4,45,46
 905.958984375 356.240234375 905.958984375 356.240234375 850.48046875 356.240234375 c 4,47,48
 846.099609375 356.240234375 846.099609375 356.240234375 843.1796875 359.16015625 c 260,49,50
 840.259765625 362.080078125 840.259765625 362.080078125 840.259765625 367.919921875 c 4,51,52
 843.1796875 397.120117188 843.1796875 397.120117188 881.140625 668.6796875 c 4,53,54
 885.51953125 697.879882812 885.51953125 697.879882812 865.080078125 721.240234375 c 4,55,56
 851.939453125 738.759765625 851.939453125 738.759765625 828.580078125 741.6796875 c 4,57,58
 808.140625 746.059570312 808.140625 746.059570312 787.69921875 735.83984375 c 4,59,60
 776.01953125 730 776.01953125 730 767.259765625 719.780273438 c 5,61,62
 720.5390625 776.719726562 720.5390625 776.719726562 635.859375 776.719726562 c 4,63,64
 504.458984375 776.719726562 504.458984375 776.719726562 422.69921875 659.919921875 c 4,65,66
 355.5390625 563.559570312 355.5390625 563.559570312 355.5390625 448.219726562 c 4,67,68
 355.5390625 351.860351562 355.5390625 351.860351562 412.48046875 294.919921875 c 4,69,70
 469.419921875 236.51953125 469.419921875 236.51953125 557.01953125 236.51953125 c 4,71,72
 630.01953125 236.51953125 630.01953125 236.51953125 689.87890625 284.700195312 c 5,73,74
 700.099609375 264.259765625 700.099609375 264.259765625 717.619140625 252.580078125 c 4,75,76
 754.119140625 230.6796875 754.119140625 230.6796875 796.458984375 230.6796875 c 4,77,78
 910.33984375 230.6796875 910.33984375 230.6796875 1027.140625 359.16015625 c 4,79,80
 1111.8203125 452.599609375 1111.8203125 452.599609375 1111.8203125 605.900390625 c 4,81,82
 1111.8203125 721.240234375 1111.8203125 721.240234375 1056.33984375 817.599609375 c 132,-1,83
 1000.859375 913.959960938 1000.859375 913.959960938 895.740234375 966.51953125 c 132,-1,84
 790.619140625 1019.08007812 790.619140625 1019.08007812 656.298828125 1019.08007812 c 4,85,86
 498.619140625 1019.08007812 498.619140625 1019.08007812 377.439453125 954.83984375 c 4,87,88
 254.798828125 890.599609375 254.798828125 890.599609375 183.259765625 759.200195312 c 4,89,90
 113.1796875 630.719726562 113.1796875 630.719726562 113.1796875 481.799804688 c 4,91,92
 113.1796875 347.48046875 113.1796875 347.48046875 174.5 230.6796875 c 4,93,94
 237.279296875 113.879882812 237.279296875 113.879882812 365.759765625 54.01953125 c 4,95,96
 492.779296875 -5.83984375 492.779296875 -5.83984375 667.98046875 -5.83984375 c 4,97,98
 849.01953125 -5.83984375 849.01953125 -5.83984375 974.580078125 64.240234375 c 4,99,100
 995.01953125 75.919921875 995.01953125 75.919921875 1012.5390625 89.0595703125 c 4,101,102
 1032.98046875 102.200195312 1032.98046875 102.200195312 1035.90039062 128.48046875 c 4,103,104
 1038.8203125 151.83984375 1038.8203125 151.83984375 1024.22070312 173.740234375 c 4,105,106
 1009.61914062 192.719726562 1009.61914062 192.719726562 986.259765625 195.639648438 c 260,107,108
 962.900390625 198.559570312 962.900390625 198.559570312 945.37890625 186.879882812 c 4,109,26
 910.33984375 163.51953125 910.33984375 163.51953125 869.458984375 146 c 4,27,28
EndSplineSet
EndChar

StartChar: A
Encoding: 36 65 36
Width: 1024
VWidth: 1495
GlyphClass: 2
Flags: W
LayerCount: 2
Back
Fore
SplineSet
419.314453125 424.860351562 m 5,0,-1
 549.25390625 784.01953125 l 29,1,-1
 679.194335938 424.860351562 l 5,2,-1
 419.314453125 424.860351562 l 5,0,-1
733.213867188 861.400390625 m 6,3,4
 712.45703125 918.806640625 712.45703125 918.806640625 661.673828125 954.83984375 c 4,5,6
 609.700195312 991.33984375 609.700195312 991.33984375 557.793945312 991.33984375 c 6,7,-1
 534.874023438 991.33984375 l 6,8,9
 482.184570312 991 482.184570312 991 430.994140625 954.83984375 c 4,10,11
 380.333007812 919.104492188 380.333007812 919.104492188 359.454101562 858.48046875 c 6,12,-1
 117.09375 154.759765625 l 6,13,14
 97.1845703125 97 97.1845703125 97 133.154296875 46.7197265625 c 4,15,16
 168.127929688 -2.919921875 168.127929688 -2.919921875 228.053710938 -2.919921875 c 6,17,-1
 245.793945312 -2.919921875 l 6,18,19
 291.184570312 -3 291.184570312 -3 325.874023438 20.4404296875 c 4,20,21
 359.240234375 43.0380859375 359.240234375 43.0380859375 366.75390625 81.759765625 c 6,22,-1
 404.713867188 277.400390625 l 5,23,-1
 708.393554688 277.400390625 l 5,24,-1
 749.274414062 78.83984375 l 6,25,26
 756.184570312 44 756.184570312 44 790.154296875 20.4404296875 c 4,27,28
 822.075195312 -2.919921875 822.075195312 -2.919921875 860.234375 -2.919921875 c 6,29,-1
 877.75390625 -2.919921875 l 6,30,31
 937.184570312 -3 937.184570312 -3 974.114257812 48.1796875 c 4,32,33
 1009.45898438 97.3828125 1009.45898438 97.3828125 988.713867188 154.759765625 c 6,34,-1
 733.213867188 861.400390625 l 6,3,4
EndSplineSet
EndChar

StartChar: B
Encoding: 37 66 37
Width: 883
VWidth: 1495
GlyphClass: 2
Flags: W
LayerCount: 2
Back
Fore
SplineSet
390.100585938 143.080078125 m 0,1,2
 376.959960938 143.080078125 376.959960938 143.080078125 368.200195312 151.83984375 c 0,3,4
 357.98046875 160.599609375 357.98046875 160.599609375 357.98046875 172.280273438 c 2,5,-1
 357.98046875 421.940429688 l 2,6,7
 357.98046875 435.080078125 357.98046875 435.080078125 368.200195312 443.83984375 c 128,-1,8
 378.419921875 452.599609375 378.419921875 452.599609375 391.560546875 452.599609375 c 2,9,-1
 441.200195312 452.599609375 l 2,10,11
 537.560546875 452.599609375 537.560546875 452.599609375 594.5 423.400390625 c 0,12,13
 657.280273438 391.280273438 657.280273438 391.280273438 657.280273438 292 c 0,14,15
 657.280273438 204.400390625 657.280273438 204.400390625 595.959960938 170.8203125 c 0,16,17
 539.020507812 141.620117188 539.020507812 141.620117188 451.419921875 141.620117188 c 0,18,0
 407.620117188 143.080078125 407.620117188 143.080078125 390.100585938 143.080078125 c 0,1,2
357.98046875 811.540039062 m 2,19,20
 357.98046875 839.280273438 357.98046875 839.280273438 387.180664062 840.740234375 c 256,21,22
 415.900390625 842 415.900390625 842 454.340820312 842.200195312 c 0,23,24
 610.740234375 842.00390625 610.740234375 842.00390625 613.48046875 704.959960938 c 0,25,26
 614.900390625 632 614.900390625 632 568.220703125 602.759765625 c 0,27,28
 521.19140625 573.559570312 521.19140625 573.559570312 432.440429688 573.559570312 c 2,29,-1
 390.100585938 573.559570312 l 2,30,31
 374.903320312 574.157226562 374.903320312 574.157226562 366.740234375 582.3203125 c 0,32,33
 357.98046875 590.920898438 357.98046875 590.920898438 357.98046875 602.759765625 c 2,34,-1
 357.98046875 811.540039062 l 2,19,20
728.8203125 534.708007812 m 256,35,36
 729 545 729 545 737.580078125 549.30859375 c 0,37,38
 875 612 875 612 874.8203125 737.6484375 c 0,39,40
 875 875 875 875 747.80078125 936.208007812 c 1,41,42
 649 988 649 988 430.98046875 990.228515625 c 0,43,44
 331 992 331 992 322.940429688 991.688476562 c 0,45,46
 247 994 247 994 223.66015625 994.608398438 c 0,47,48
 182.287109375 994.979492188 182.287109375 994.979492188 150.66015625 965.408203125 c 0,49,50
 120 937 120 937 120 893.868164062 c 2,51,-1
 120 94.0087890625 l 2,52,53
 120 48.92578125 120 48.92578125 152.120117188 21.0087890625 c 0,54,55
 188 -10 188 -10 229.5 -8.19140625 c 0,56,57
 373 -2 373 -2 381.340820312 -2.3515625 c 0,58,59
 690.284179688 -1.9970703125 690.284179688 -1.9970703125 798.900390625 77.9482421875 c 0,60,61
 910 160 910 160 909.860351562 283.80859375 c 0,62,63
 909.997070312 459.637695312 909.997070312 459.637695312 739.040039062 511.568359375 c 0,64,65
 729 515 729 515 728.8203125 534.708007812 c 256,35,36
EndSplineSet
EndChar

StartChar: C
Encoding: 38 67 38
Width: 909
VWidth: 1495
GlyphClass: 2
Flags: W
LayerCount: 2
Back
Fore
SplineSet
840.620117188 188.360351562 m 6,0,1
 808.5 197.120117188 808.5 197.120117188 773.459960938 182.51953125 c 4,2,3
 719.440429688 159.16015625 719.440429688 159.16015625 661.040039062 159.16015625 c 4,4,5
 535.48046875 159.16015625 535.48046875 159.16015625 447.879882812 258.440429688 c 132,-1,6
 360.280273438 357.719726562 360.280273438 357.719726562 360.280273438 497.879882812 c 260,7,8
 360.280273438 638.040039062 360.280273438 638.040039062 447.879882812 740.240234375 c 260,9,10
 535.48046875 839.51953125 535.48046875 839.51953125 661.040039062 839.51953125 c 4,11,12
 719.440429688 839.51953125 719.440429688 839.51953125 774.919921875 813.240234375 c 4,13,14
 807.040039062 798.639648438 807.040039062 798.639648438 839.16015625 808.860351562 c 6,15,-1
 842.080078125 810.3203125 l 5,16,17
 903.400390625 830.759765625 903.400390625 830.759765625 904.860351562 895 c 260,18,19
 904.860351562 962.16015625 904.860351562 962.16015625 843.540039062 979.6796875 c 4,20,21
 773.459960938 1003.04003906 773.459960938 1003.04003906 696.080078125 1008.87988281 c 4,22,23
 672.720703125 1011.79980469 672.720703125 1011.79980469 661.040039062 1010.33984375 c 260,24,25
 649.360351562 1011.79980469 649.360351562 1011.79980469 626 1008.87988281 c 4,26,27
 401.16015625 988.440429688 401.16015625 988.440429688 261 854.120117188 c 4,28,29
 115 713.959960938 115 713.959960938 115 486.200195312 c 4,30,31
 115 275.959960938 115 275.959960938 243.48046875 141.639648438 c 4,32,33
 380.720703125 1.48046875 380.720703125 1.48046875 626 -10.2001953125 c 4,34,35
 640.600585938 -13.1201171875 640.600585938 -13.1201171875 649.360351562 -13.1201171875 c 6,36,-1
 655.200195312 -13.1201171875 l 6,37,38
 658.120117188 -13.1201171875 658.120117188 -13.1201171875 661.040039062 -13.1201171875 c 260,39,40
 663.959960938 -13.1201171875 663.959960938 -13.1201171875 666.879882812 -13.1201171875 c 6,41,-1
 672.720703125 -13.1201171875 l 6,42,43
 681.48046875 -13.1201171875 681.48046875 -13.1201171875 696.080078125 -10.2001953125 c 4,44,45
 773.459960938 -7.2802734375 773.459960938 -7.2802734375 840.620117188 10.240234375 c 260,46,47
 909.240234375 27.759765625 909.240234375 27.759765625 909.240234375 97.83984375 c 4,48,49
 910.700195312 167.919921875 910.700195312 167.919921875 843.540039062 188.360351562 c 5,50,-1
 840.620117188 188.360351562 l 6,0,1
EndSplineSet
EndChar

StartChar: D
Encoding: 39 68 39
Width: 1039
VWidth: 1495
GlyphClass: 2
Flags: W
LayerCount: 2
Back
Fore
SplineSet
414.919921875 105.759765625 m 6,0,1
 383.245117188 105.759765625 383.245117188 105.759765625 359.439453125 129.120117188 c 4,2,3
 337.541015625 151.46875 337.541015625 151.46875 337.541015625 184.599609375 c 6,4,-1
 337.541015625 809.919921875 l 6,5,6
 338 844 338 844 359.439453125 865.400390625 c 4,7,8
 382.759765625 888.759765625 382.759765625 888.759765625 414.919921875 888.759765625 c 6,9,-1
 416.380859375 888.759765625 l 6,10,11
 570 889 570 889 677.720703125 789.48046875 c 260,12,13
 776 699 776 699 775.759765625 550.040039062 c 260,14,15
 776 295 776 295 677.720703125 205.040039062 c 260,16,17
 569.73828125 105.759765625 569.73828125 105.759765625 416.380859375 105.759765625 c 6,18,-1
 414.919921875 105.759765625 l 6,0,1
191.541015625 992.200195312 m 4,19,20
 160.880859375 989.280273438 160.880859375 989.280273438 140.439453125 968.83984375 c 4,21,22
 120 946.940429688 120 946.940429688 120 916.280273438 c 6,23,-1
 120 84.080078125 l 6,24,25
 120 51.9599609375 120 51.9599609375 140.439453125 30.0595703125 c 132,-1,26
 160.880859375 8.16015625 160.880859375 8.16015625 193 6.7001953125 c 4,27,28
 391.560546875 -3.51953125 391.560546875 -3.51953125 444.12109375 -3.51953125 c 4,29,30
 730.279296875 -3.51953125 730.279296875 -3.51953125 890.880859375 136.639648438 c 4,31,32
 1039.80078125 269.5 1039.80078125 269.5 1039.80078125 487.040039062 c 4,33,34
 1039.80078125 729.400390625 1039.80078125 729.400390625 858.759765625 871.01953125 c 4,35,36
 686.48046875 1003.87988281 686.48046875 1003.87988281 417.83984375 1003.87988281 c 4,37,38
 363.8203125 1003.87988281 363.8203125 1003.87988281 191.541015625 992.200195312 c 4,19,20
EndSplineSet
EndChar

StartChar: E
Encoding: 40 69 40
Width: 782
VWidth: 1495
GlyphClass: 2
Flags: W
LayerCount: 2
Back
Fore
SplineSet
360.900390625 172.280273438 m 5,0,-1
 360.900390625 424.860351562 l 5,1,-1
 651.440429688 417.559570312 l 6,2,3
 687.120117188 417 687.120117188 417 714.950195312 443.83984375 c 4,4,5
 741.959960938 469.845703125 741.959960938 469.845703125 741.959960938 508.080078125 c 6,6,-1
 741.959960938 511 l 6,7,8
 742.120117188 549 742.120117188 549 715.6796875 573.780273438 c 4,9,10
 687.165039062 600.95703125 687.165039062 600.95703125 651.440429688 600.059570312 c 6,11,-1
 360.900390625 592.759765625 l 5,12,-1
 360.900390625 820 l 5,13,-1
 668.959960938 805.400390625 l 6,14,15
 700.120117188 804 700.120117188 804 727.360351562 825.83984375 c 260,16,17
 736.001953125 832.903320312 736.001953125 832.903320312 758.020507812 876.940429688 c 6,18,-1
 759.48046875 879.860351562 l 6,19,20
 781.120117188 924 781.120117188 924 741.959960938 971.83984375 c 4,21,22
 716.15234375 1003.95996094 716.15234375 1003.95996094 670.419921875 1003.95996094 c 6,23,-1
 263.080078125 1003.95996094 l 6,24,25
 202.120117188 1004 202.120117188 1004 162.33984375 963.080078125 c 4,26,27
 120 918.875 120 918.875 120 860.879882812 c 6,28,-1
 120 137.240234375 l 6,29,30
 120.120117188 79 120.120117188 79 162.33984375 36.5 c 4,31,32
 204.958984375 -5.83984375 204.958984375 -5.83984375 263.080078125 -5.83984375 c 6,33,-1
 692.3203125 -5.83984375 l 6,34,35
 730.120117188 -6 730.120117188 -6 756.560546875 20.4404296875 c 132,-1,36
 782.83984375 46.7197265625 782.83984375 46.7197265625 782.83984375 84.6796875 c 6,37,-1
 782.83984375 87.599609375 l 6,38,39
 783.120117188 128 783.120117188 128 756.560546875 151.83984375 c 4,40,41
 727.403320312 178.73828125 727.403320312 178.73828125 692.3203125 178.120117188 c 6,42,-1
 360.900390625 172.280273438 l 5,0,-1
EndSplineSet
EndChar

StartChar: F
Encoding: 41 70 41
Width: 762
VWidth: 1495
GlyphClass: 2
Flags: W
LayerCount: 2
Back
Fore
SplineSet
359.442382812 435.16015625 m 5,0,-1
 671.8828125 420.559570312 l 6,1,2
 705 419 705 419 734.663085938 446.83984375 c 4,3,4
 762.40234375 473.384765625 762.40234375 473.384765625 762.40234375 511.080078125 c 6,5,-1
 762.40234375 512.540039062 l 6,6,7
 762 549 762 549 734.663085938 576.780273438 c 132,-1,8
 707.280273438 604.713867188 707.280273438 604.713867188 671.8828125 603.059570312 c 6,9,-1
 359.442382812 588.459960938 l 5,10,-1
 359.442382812 820.599609375 l 5,11,-1
 668.962890625 806 l 6,12,13
 698 805 698 805 724.442382812 826.440429688 c 4,14,15
 756.5625 851.65625 756.5625 851.65625 756.5625 876.080078125 c 6,16,-1
 756.5625 910.459960938 l 6,17,18
 757 945 757 945 739.04296875 966.379882812 c 4,19,20
 713.03125 999.959960938 713.03125 999.959960938 668.962890625 999.959960938 c 6,21,-1
 268.922851562 999.959960938 l 6,22,23
 208 1000 208 1000 163.802734375 956.16015625 c 260,24,25
 120.002929688 912.002929688 120.002929688 912.002929688 120.002929688 851.040039062 c 6,26,-1
 120.002929688 107.879882812 l 6,27,28
 120 58 120 58 155.04296875 23.2001953125 c 4,29,30
 189.840820312 -11.83984375 189.840820312 -11.83984375 238.262695312 -11.83984375 c 6,31,-1
 239.72265625 -11.83984375 l 6,32,33
 290 -12 290 -12 324.40234375 23.2001953125 c 4,34,35
 359.442382812 58.4453125 359.442382812 58.4453125 359.442382812 107.879882812 c 6,36,-1
 359.442382812 435.16015625 l 5,0,-1
EndSplineSet
EndChar

StartChar: G
Encoding: 42 71 42
Width: 1036
VWidth: 1495
GlyphClass: 2
Flags: W
LayerCount: 2
Back
Fore
SplineSet
715.599609375 565.5 m 6,0,1
 670.33984375 565.5 670.33984375 565.5 644.059570312 530.459960938 c 260,2,3
 611.940429688 489.580078125 611.940429688 489.580078125 629.459960938 431.1796875 c 5,4,-1
 629.459960938 429.719726562 l 5,5,6
 646.98046875 362.559570312 646.98046875 362.559570312 702.459960938 388.83984375 c 6,7,-1
 749.1796875 412.200195312 l 6,8,9
 766.700195312 420.959960938 766.700195312 420.959960938 787.139648438 397.599609375 c 4,10,11
 804.66015625 383 804.66015625 383 804.66015625 356.719726562 c 6,12,-1
 804.66015625 239.919921875 l 6,13,14
 804.66015625 213.639648438 804.66015625 213.639648438 779.83984375 188.8203125 c 132,-1,15
 755.01953125 164 755.01953125 164 719.98046875 164 c 4,16,17
 701 164 701 164 687.860351562 164 c 4,18,19
 549.16015625 164 549.16015625 164 452.799804688 248.6796875 c 4,20,21
 349.139648438 342.120117188 349.139648438 342.120117188 337.459960938 470.599609375 c 4,22,23
 322.860351562 623.900390625 322.860351562 623.900390625 426.51953125 733.400390625 c 4,24,25
 498.059570312 810.780273438 498.059570312 810.780273438 679.099609375 793.259765625 c 6,26,-1
 902.48046875 771.360351562 l 6,27,28
 971.099609375 765.51953125 971.099609375 765.51953125 1000.29980469 837.059570312 c 5,29,-1
 1001.75976562 838.51953125 l 6,30,31
 1026.58007812 908.599609375 1026.58007812 908.599609375 988.620117188 967 c 260,32,33
 968.1796875 996.200195312 968.1796875 996.200195312 933.139648438 999.120117188 c 4,34,35
 757.940429688 1013.71972656 757.940429688 1013.71972656 699.540039062 1013.71972656 c 4,36,37
 448.419921875 1013.71972656 448.419921875 1013.71972656 287.8203125 876.48046875 c 4,38,39
 118.459960938 733.400390625 118.459960938 733.400390625 117 486.66015625 c 4,40,41
 118.459960938 266.200195312 118.459960938 266.200195312 258.620117188 131.879882812 c 4,42,43
 407.540039062 -11.2001953125 407.540039062 -11.2001953125 674.719726562 -11.2001953125 c 4,44,45
 753.559570312 -11.2001953125 753.559570312 -11.2001953125 857.219726562 6.3203125 c 4,46,47
 883.5 10.7001953125 883.5 10.7001953125 911.240234375 15.080078125 c 4,48,49
 965.259765625 26.759765625 965.259765625 26.759765625 1000.29980469 69.099609375 c 4,50,51
 1035.33984375 112.900390625 1035.33984375 112.900390625 1036.79980469 168.379882812 c 6,52,-1
 1036.79980469 467.6796875 l 6,53,54
 1038.25976562 508.559570312 1038.25976562 508.559570312 1009.05957031 537.759765625 c 260,55,56
 979.860351562 566.959960938 979.860351562 566.959960938 938.98046875 565.5 c 6,57,-1
 715.599609375 565.5 l 6,0,1
EndSplineSet
EndChar

StartChar: H
Encoding: 43 72 43
Width: 936
VWidth: 1495
GlyphClass: 2
Flags: W
LayerCount: 2
Back
Fore
SplineSet
360.900390625 635.099609375 m 5,0,-1
 696.700195312 635.099609375 l 5,1,-1
 696.700195312 885.080078125 l 6,2,3
 696.900390625 935 696.900390625 935 730.280273438 969.759765625 c 4,4,5
 764.704101562 1004.79980469 764.704101562 1004.79980469 814.959960938 1004.79980469 c 6,6,-1
 816.419921875 1004.79980469 l 6,7,8
 865.900390625 1005 865.900390625 1005 901.100585938 969.759765625 c 4,9,10
 936.140625 934.759765625 936.140625 934.759765625 936.140625 885.080078125 c 6,11,-1
 936.140625 109.719726562 l 6,12,13
 935.900390625 60 935.900390625 60 901.100585938 25.0400390625 c 4,14,15
 865.900390625 -10 865.900390625 -10 816.419921875 -10 c 6,16,-1
 814.959960938 -10 l 6,17,18
 764.900390625 -10 764.900390625 -10 730.280273438 25.0400390625 c 4,19,20
 696.700195312 60.2099609375 696.700195312 60.2099609375 696.700195312 109.719726562 c 6,21,-1
 696.700195312 438 l 5,22,-1
 360.900390625 438 l 5,23,-1
 360.900390625 109.719726562 l 6,24,25
 360.900390625 60 360.900390625 60 325.860351562 25.0400390625 c 132,-1,26
 290.900390625 -10 290.900390625 -10 241.180664062 -10 c 6,27,-1
 238.260742188 -10 l 6,28,29
 188.900390625 -10 188.900390625 -10 155.040039062 25.0400390625 c 4,30,31
 120 59.9013671875 120 59.9013671875 120 109.719726562 c 6,32,-1
 120 885.080078125 l 6,33,34
 119.900390625 935 119.900390625 935 155.040039062 969.759765625 c 4,35,36
 188.708007812 1004.79980469 188.708007812 1004.79980469 238.260742188 1004.79980469 c 6,37,-1
 241.180664062 1004.79980469 l 6,38,39
 290.900390625 1005 290.900390625 1005 325.860351562 969.759765625 c 4,40,41
 360.900390625 935 360.900390625 935 360.900390625 885.080078125 c 6,42,-1
 360.900390625 635.099609375 l 5,0,-1
EndSplineSet
EndChar

StartChar: I
Encoding: 44 73 44
Width: 360
VWidth: 1495
GlyphClass: 2
Flags: W
LayerCount: 2
Back
Fore
SplineSet
360.900390625 109.719726562 m 6,0,1
 360.900390625 60.5341796875 360.900390625 60.5341796875 325.860351562 25.0400390625 c 4,2,3
 292.360351562 -10 292.360351562 -10 242.640625 -10 c 6,4,-1
 239.720703125 -10 l 6,5,6
 190.360351562 -10 190.360351562 -10 155.040039062 25.0400390625 c 4,7,8
 120 60.36328125 120 60.36328125 120 109.719726562 c 6,9,-1
 120 893.080078125 l 6,10,11
 120.360351562 943 120.360351562 943 155.040039062 977.759765625 c 4,12,13
 190.16015625 1012.79980469 190.16015625 1012.79980469 239.720703125 1012.79980469 c 6,14,-1
 242.640625 1012.79980469 l 6,15,16
 290.360351562 1013 290.360351562 1013 325.860351562 977.759765625 c 4,17,18
 360.900390625 943.450195312 360.900390625 943.450195312 360.900390625 893.080078125 c 6,19,-1
 360.900390625 109.719726562 l 6,0,1
EndSplineSet
EndChar

StartChar: J
Encoding: 45 74 45
Width: 558
VWidth: 1495
GlyphClass: 2
Flags: W
LayerCount: 2
Back
Fore
SplineSet
225.120117188 1000.87988281 m 6,0,1
 185.872070312 1000.87988281 185.872070312 1000.87988281 162.33984375 968.759765625 c 4,2,3
 137.959960938 937 137.959960938 937 147.740234375 900.139648438 c 5,4,-1
 147.740234375 898.6796875 l 5,5,6
 151.959960938 872 151.959960938 872 175.479492188 854.879882812 c 4,7,8
 198.486328125 837.360351562 198.486328125 837.360351562 226.580078125 837.360351562 c 6,9,-1
 333.16015625 837.360351562 l 5,10,-1
 333.16015625 350.400390625 l 6,11,12
 332.959960938 229 332.959960938 229 263.080078125 194.1796875 c 4,13,14
 230.959960938 178 230.959960938 178 203.219726562 179.580078125 c 4,15,16
 169.959960938 181 169.959960938 181 143.360351562 154.759765625 c 4,17,18
 120 130.041992188 120 130.041992188 120 93.4404296875 c 6,19,-1
 120 91.98046875 l 6,20,21
 119.959960938 32 119.959960938 32 171.099609375 11.6796875 c 4,22,23
 192.959960938 3 192.959960938 3 207.599609375 0 c 4,24,25
 375.959960938 -35 375.959960938 -35 473.3203125 89.0595703125 c 4,26,27
 558 197.090820312 558 197.090820312 558 366.459960938 c 6,28,-1
 558 889.919921875 l 6,29,30
 557.959960938 937 557.959960938 937 525.879882812 968.759765625 c 4,31,32
 494.079101562 1000.87988281 494.079101562 1000.87988281 448.5 1000.87988281 c 6,33,-1
 225.120117188 1000.87988281 l 6,0,1
EndSplineSet
EndChar

StartChar: K
Encoding: 46 75 46
Width: 830
VWidth: 1495
GlyphClass: 2
Flags: W
LayerCount: 2
Back
Fore
SplineSet
774.080078125 -5.83984375 m 2,0,1
 832.48046875 -5.83984375 832.48046875 -5.83984375 861.6796875 46.7197265625 c 0,2,3
 891.036132812 99.556640625 891.036132812 99.556640625 858.759765625 148.919921875 c 2,4,-1
 635.379882812 490.559570312 l 2,5,6
 584.24609375 569.055664062 584.24609375 569.055664062 635.379882812 651.16015625 c 2,7,-1
 750.719726562 836.360351562 l 2,8,9
 781.506835938 885.755859375 781.506835938 885.755859375 753.639648438 938.559570312 c 0,10,11
 726.462890625 989.66015625 726.462890625 989.66015625 667.5 989.66015625 c 2,12,-1
 664.580078125 989.66015625 l 2,13,14
 611.282226562 990 611.282226562 990 581.360351562 944.400390625 c 1,15,-1
 393.020507812 683.280273438 l 2,16,17
 385.534179688 672.970703125 385.534179688 672.970703125 372.580078125 677.440429688 c 128,-1,18
 359.440429688 681.9453125 359.440429688 681.9453125 359.440429688 704.959960938 c 2,19,-1
 359.440429688 878.700195312 l 2,20,21
 359.282226562 927 359.282226562 927 324.400390625 961.919921875 c 128,-1,22
 289.322265625 996.959960938 289.322265625 996.959960938 241.1796875 996.959960938 c 2,23,-1
 239.719726562 996.959960938 l 2,24,25
 190.282226562 997 190.282226562 997 155.040039062 961.919921875 c 0,26,27
 120 926.716796875 120 926.716796875 120 878.700195312 c 2,28,-1
 120 113.879882812 l 2,29,30
 120.282226562 64 120.282226562 64 155.040039062 29.2001953125 c 0,31,32
 190.122070312 -5.83984375 190.122070312 -5.83984375 239.719726562 -5.83984375 c 2,33,-1
 241.1796875 -5.83984375 l 2,34,35
 289.282226562 -6 289.282226562 -6 324.400390625 29.2001953125 c 0,36,37
 359.440429688 64.158203125 359.440429688 64.158203125 359.440429688 113.879882812 c 2,38,-1
 359.440429688 356.240234375 l 1,39,-1
 360.900390625 356.240234375 l 2,40,41
 384.282226562 383 384.282226562 383 417.83984375 382.51953125 c 256,42,43
 451.482421875 380.991210938 451.482421875 380.991210938 471.860351562 351.860351562 c 2,44,-1
 689.400390625 40.8798828125 l 2,45,46
 722.169921875 -5.83984375 722.169921875 -5.83984375 771.16015625 -5.83984375 c 2,47,-1
 774.080078125 -5.83984375 l 2,0,1
EndSplineSet
EndChar

StartChar: L
Encoding: 47 76 47
Width: 779
VWidth: 1495
GlyphClass: 2
Flags: W
LayerCount: 2
Back
Fore
SplineSet
226.583007812 1001.79980469 m 2,0,1
 287.880859375 1001.79980469 287.880859375 1001.79980469 325.86328125 966.759765625 c 0,2,3
 361.897460938 932.779296875 361.897460938 932.779296875 360.903320312 882.080078125 c 2,4,-1
 347.302734375 188.33984375 l 1,5,-1
 690.86328125 202.940429688 l 2,6,7
 728.663085938 205 728.663085938 205 756.563476562 175.200195312 c 0,8,9
 784.302734375 147.361328125 784.302734375 147.361328125 784.302734375 109.5 c 2,10,-1
 784.302734375 108.040039062 l 2,11,12
 784.663085938 55 784.663085938 55 756.563476562 26.2802734375 c 0,13,14
 730.663085938 0 730.663085938 0 690.86328125 0 c 2,15,-1
 230.962890625 0 l 2,16,17
 184.663085938 0 184.663085938 0 152.123046875 32.1201171875 c 0,18,19
 120.002929688 63.666015625 120.002929688 63.666015625 120.002929688 110.959960938 c 2,20,-1
 120.002929688 882.080078125 l 2,21,22
 119.663085938 930 119.663085938 930 155.04296875 966.759765625 c 0,23,24
 188.47265625 1001.79980469 188.47265625 1001.79980469 223.663085938 1001.79980469 c 2,25,-1
 226.583007812 1001.79980469 l 2,0,1
EndSplineSet
EndChar

StartChar: M
Encoding: 48 77 48
Width: 1223
VWidth: 1495
GlyphClass: 2
Flags: W
LayerCount: 2
Back
Fore
SplineSet
333.161132812 727.080078125 m 5,0,-1
 508.360351562 112.639648438 l 6,1,2
 522.990234375 60.0576171875 522.990234375 60.0576171875 568.220703125 25.0400390625 c 4,3,4
 613.840820312 -10 613.840820312 -10 668.9609375 -10 c 6,5,-1
 671.880859375 -10 l 6,6,7
 725.330078125 -10 725.330078125 -10 774.081054688 25.0400390625 c 4,8,9
 819.978515625 58.0986328125 819.978515625 58.0986328125 835.400390625 112.639648438 c 6,10,-1
 1009.140625 727.080078125 l 5,11,-1
 994.541015625 95.1201171875 l 6,12,13
 993.840820312 52 993.840820312 52 1025.93066406 20.66015625 c 4,14,15
 1056.84082031 -10 1056.84082031 -10 1101.12109375 -10 c 6,16,-1
 1102.58105469 -10 l 6,17,18
 1158.75585938 -10 1158.75585938 -10 1191.640625 22.1201171875 c 4,19,20
 1223.76074219 52.8828125 1223.76074219 52.8828125 1223.76074219 95.1201171875 c 6,21,-1
 1223.76074219 797.16015625 l 6,22,23
 1223.84082031 879 1223.84082031 879 1165.36035156 935.860351562 c 260,24,25
 1109.03808594 992.799804688 1109.03808594 992.799804688 1028.12109375 992.799804688 c 6,26,-1
 1025.20117188 992.799804688 l 6,27,28
 959.840820312 993 959.840820312 993 906.940429688 953.379882812 c 260,29,30
 854.829101562 913.991210938 854.829101562 913.991210938 836.860351562 851.1796875 c 6,31,-1
 671.880859375 274.48046875 l 5,32,-1
 505.440429688 852.639648438 l 6,33,34
 486.840820312 916 486.840820312 916 435.360351562 953.379882812 c 4,35,36
 383.10546875 992.799804688 383.10546875 992.799804688 318.560546875 992.799804688 c 6,37,-1
 315.640625 992.799804688 l 6,38,39
 233.840820312 993 233.840820312 993 176.940429688 935.860351562 c 260,40,41
 120.000976562 879.159179688 120.000976562 879.159179688 120.000976562 797.16015625 c 6,42,-1
 120.000976562 95.1201171875 l 6,43,44
 119.852539062 54.3876953125 119.852539062 54.3876953125 152.12109375 22.1201171875 c 4,45,46
 183.840820312 -10 183.840820312 -10 225.12109375 -10 c 6,47,-1
 242.640625 -10 l 6,48,49
 286.840820312 -10 286.840820312 -10 318.560546875 22.1201171875 c 4,50,51
 348.758789062 51.9189453125 348.758789062 51.9189453125 347.760742188 95.1201171875 c 6,52,-1
 333.161132812 727.080078125 l 5,0,-1
EndSplineSet
EndChar

StartChar: N
Encoding: 49 78 49
Width: 1060
VWidth: 1495
GlyphClass: 2
Flags: W
LayerCount: 2
Back
Fore
SplineSet
356.51953125 662.83984375 m 5,0,-1
 712.759765625 82.6796875 l 6,1,2
 767.822265625 -7.83984375 767.822265625 -7.83984375 870.439453125 -7.83984375 c 6,3,-1
 874.8203125 -7.83984375 l 6,4,5
 960.919921875 -8 960.919921875 -8 1006.21972656 47.6396484375 c 260,6,7
 1060.24023438 133.11328125 1060.24023438 133.11328125 1060.24023438 179.040039062 c 6,8,-1
 1060.24023438 880.16015625 l 6,9,10
 1059.91992188 930 1059.91992188 930 1026.66015625 963.379882812 c 260,11,12
 991.961914062 996.959960938 991.961914062 996.959960938 928.83984375 996.959960938 c 6,13,-1
 925.919921875 996.959960938 l 6,14,15
 878.919921875 997 878.919921875 997 844.16015625 963.379882812 c 4,16,17
 807.891601562 926.970703125 807.891601562 926.970703125 809.120117188 880.16015625 c 6,18,-1
 823.719726562 324.120117188 l 5,19,-1
 403.240234375 947.3203125 l 6,20,21
 369.947265625 996.959960938 369.947265625 996.959960938 306.879882812 996.959960938 c 6,22,-1
 236.799804688 996.959960938 l 6,23,24
 186.919921875 997 186.919921875 997 155.040039062 963.379882812 c 260,25,26
 120 928.081054688 120 928.081054688 120 880.16015625 c 6,27,-1
 120 110.419921875 l 6,28,29
 119.919921875 61 119.919921875 61 155.040039062 27.2001953125 c 260,30,31
 189.76171875 -7.83984375 189.76171875 -7.83984375 251.400390625 -7.83984375 c 6,32,-1
 254.3203125 -7.83984375 l 6,33,34
 303.919921875 -8 303.919921875 -8 337.540039062 27.2001953125 c 260,35,36
 372.334960938 64.4443359375 372.334960938 64.4443359375 371.120117188 110.419921875 c 6,37,-1
 356.51953125 662.83984375 l 5,0,-1
EndSplineSet
EndChar

StartChar: O
Encoding: 50 79 50
Width: 1093
VWidth: 1495
GlyphClass: 2
Flags: W
LayerCount: 2
Back
Fore
SplineSet
445.995117188 201.344726562 m 0,0,1
 368 299 368 299 368.607421875 556.182617188 c 256,2,3
 369 686 369 686 445.995117188 782.249023438 c 0,4,5
 522 877 522 877 627.5703125 876.681640625 c 0,6,7
 723 877 723 877 804.14453125 782.248046875 c 0,8,9
 885 688 885 688 885.087890625 556.182617188 c 256,10,11
 885 296 885 296 804.14453125 201.34375 c 0,12,13
 723 107 723 107 622.5 107 c 128,-1,14
 522 107 522 107 445.995117188 201.344726562 c 0,0,1
627.5703125 1011.17675781 m 0,15,16
 616 1011 616 1011 592.880859375 1008.31542969 c 0,17,18
 398 990 398 990 261.6484375 853.788085938 c 0,19,20
 120 714 120 714 120 484.642578125 c 0,21,22
 120 274 120 274 244.3046875 142.681640625 c 0,23,24
 367.917182329 11.2151540722 367.917182329 11.2151540722 592.880859375 -10.4150390625 c 0,25,26
 607.919591316 -14.0295495423 607.919591316 -14.0295495423 614.5625 -13.2763671875 c 0,27,28
 617 -13 617 -13 620.34375 -13.2763671875 c 2,29,-1
 633.3515625 -13.2763671875 l 2,30,31
 636.147571937 -14.2659285859 636.147571937 -14.2659285859 639.1328125 -13.2763671875 c 0,32,33
 646 -11 646 -11 660.814453125 -10.4150390625 c 0,34,35
 879 3 879 3 1009.39257812 142.681640625 c 0,36,37
 1134 276 1134 276 1133.6953125 484.642578125 c 0,38,39
 1134 712 1134 712 992.046875 853.788085938 c 0,40,41
 864 983 864 983 660.814453125 1008.31542969 c 0,42,43
 639 1011 639 1011 627.5703125 1011.17675781 c 0,15,16
EndSplineSet
EndChar

StartChar: P
Encoding: 51 80 51
Width: 779
VWidth: 1495
GlyphClass: 2
Flags: W
LayerCount: 2
Back
Fore
SplineSet
356.51953125 902.280273438 m 1,0,-1
 471.861328125 902.280273438 l 2,1,2
 531.720703125 902.280273438 531.720703125 902.280273438 572.599609375 857.01953125 c 0,3,4
 622.240234375 804.459960938 622.240234375 804.459960938 622.240234375 683.280273438 c 0,5,6
 622.240234375 554.799804688 622.240234375 554.799804688 572.599609375 502.240234375 c 0,7,8
 531.720703125 458.440429688 531.720703125 458.440429688 471.861328125 458.440429688 c 2,9,-1
 356.51953125 458.440429688 l 1,10,-1
 356.51953125 902.280273438 l 1,0,-1
541.94140625 347.48046875 m 2,11,12
 696.701171875 348.940429688 696.701171875 348.940429688 778.4609375 475.959960938 c 0,13,14
 839.78125 572.3203125 839.78125 572.3203125 839.78125 668.6796875 c 0,15,16
 839.78125 788.400390625 839.78125 788.400390625 760.94140625 880.379882812 c 0,17,18
 683.560546875 970.900390625 683.560546875 970.900390625 566.759765625 988.419921875 c 1,19,-1
 559.4609375 989.879882812 l 2,20,21
 536.099609375 992.799804688 536.099609375 992.799804688 515.66015625 992.799804688 c 2,22,-1
 239.720703125 992.799804688 l 2,23,24
 190.080078125 992.799804688 190.080078125 992.799804688 155.041015625 957.759765625 c 128,-1,25
 120 922.719726562 120 922.719726562 120 876 c 2,26,-1
 120 109.5 l 2,27,28
 120 58.400390625 120 58.400390625 155.041015625 26.2802734375 c 0,29,30
 187.16015625 -8.759765625 187.16015625 -8.759765625 236.80078125 -7.2998046875 c 2,31,-1
 239.720703125 -7.2998046875 l 2,32,33
 286.44140625 -8.759765625 286.44140625 -8.759765625 321.48046875 26.2802734375 c 0,34,35
 356.51953125 59.8603515625 356.51953125 59.8603515625 356.51953125 109.5 c 2,36,-1
 356.51953125 344.559570312 l 1,37,-1
 541.94140625 347.48046875 l 2,11,12
EndSplineSet
EndChar

StartChar: Q
Encoding: 52 81 52
Width: 1184
VWidth: 1495
GlyphClass: 2
Flags: W
LayerCount: 2
Back
Fore
SplineSet
454.33984375 204.400390625 m 132,-1,1
 372.580078125 300.759765625 372.580078125 300.759765625 371.120117188 493.48046875 c 260,2,3
 372.580078125 686.200195312 372.580078125 686.200195312 454.33984375 782.559570312 c 132,-1,4
 536.099609375 878.919921875 536.099609375 878.919921875 652.900390625 878.919921875 c 132,-1,5
 769.700195312 878.919921875 769.700195312 878.919921875 851.459960938 782.559570312 c 132,-1,6
 933.219726562 686.200195312 933.219726562 686.200195312 933.219726562 493.48046875 c 260,7,8
 933.219726562 300.759765625 933.219726562 300.759765625 851.459960938 204.400390625 c 132,-1,9
 769.700195312 108.040039062 769.700195312 108.040039062 652.900390625 108.040039062 c 132,-1,0
 536.099609375 108.040039062 536.099609375 108.040039062 454.33984375 204.400390625 c 132,-1,1
797.440429688 -147.459960938 m 6,10,11
 816.419921875 -220.459960938 816.419921875 -220.459960938 909.860351562 -240.900390625 c 260,12,13
 959.5 -251.120117188 959.5 -251.120117188 1000.37988281 -224.83984375 c 5,14,-1
 1000.37988281 -221.919921875 l 5,15,16
 1041.25976562 -195.639648438 1041.25976562 -195.639648438 1052.94042969 -147.459960938 c 4,17,18
 1061.70019531 -99.2802734375 1061.70019531 -99.2802734375 1035.41992188 -58.400390625 c 6,19,-1
 962.419921875 52.5595703125 l 5,20,21
 1014.98046875 84.6796875 1014.98046875 84.6796875 1058.78027344 129.940429688 c 4,22,23
 1184.33984375 265.719726562 1184.33984375 265.719726562 1184.33984375 478.879882812 c 4,24,25
 1184.33984375 711.01953125 1184.33984375 711.01953125 1041.25976562 855.559570312 c 4,26,27
 914.240234375 984.040039062 914.240234375 984.040039062 686.48046875 1013.24023438 c 4,28,29
 664.580078125 1016.16015625 664.580078125 1016.16015625 652.900390625 1016.16015625 c 4,30,31
 648.520507812 1016.16015625 648.520507812 1016.16015625 617.860351562 1013.24023438 c 4,32,33
 397.400390625 992.799804688 397.400390625 992.799804688 263.080078125 855.559570312 c 4,34,35
 120 712.48046875 120 712.48046875 120 478.879882812 c 4,36,37
 120 265.719726562 120 265.719726562 245.560546875 129.940429688 c 4,38,39
 368.200195312 0 368.200195312 0 617.860351562 -26.2802734375 c 4,40,41
 632.459960938 -29.2001953125 632.459960938 -29.2001953125 639.759765625 -29.2001953125 c 6,42,-1
 664.580078125 -29.2001953125 l 6,43,44
 667.5 -29.2001953125 667.5 -29.2001953125 686.48046875 -26.2802734375 c 4,45,46
 736.120117188 -23.3603515625 736.120117188 -23.3603515625 765.3203125 -21.900390625 c 5,47,-1
 797.440429688 -147.459960938 l 6,10,11
EndSplineSet
EndChar

StartChar: R
Encoding: 53 82 53
Width: 884
VWidth: 1495
GlyphClass: 2
Flags: W
LayerCount: 2
Back
Fore
SplineSet
356.51953125 890.599609375 m 5,0,-1
 471.859375 890.599609375 l 6,1,2
 528.799804688 890.599609375 528.799804688 890.599609375 572.599609375 843.879882812 c 4,3,4
 616.399414062 800.080078125 616.399414062 800.080078125 616.399414062 678.900390625 c 260,5,6
 616.399414062 557.719726562 616.399414062 557.719726562 572.599609375 513.919921875 c 4,7,8
 531.719726562 470.120117188 531.719726562 470.120117188 471.859375 468.66015625 c 6,9,-1
 356.51953125 468.66015625 l 5,10,-1
 356.51953125 890.599609375 l 5,0,-1
721.51953125 414.639648438 m 5,11,12
 756.2265625 444 756.2265625 444 778.459960938 478.879882812 c 4,13,14
 840.2265625 575 840.2265625 575 839.779296875 671.599609375 c 4,15,16
 840.2265625 791 840.2265625 791 760.939453125 883.299804688 c 4,17,18
 683.2265625 974 683.2265625 974 566.759765625 991.33984375 c 5,19,-1
 559.459960938 992.799804688 l 6,20,21
 546.47265625 995.719726562 546.47265625 995.719726562 515.659179688 995.719726562 c 6,22,-1
 239.719726562 995.719726562 l 6,23,24
 190.2265625 996 190.2265625 996 155.040039062 960.6796875 c 4,25,26
 120 925.774414062 120 925.774414062 120 877.459960938 c 6,27,-1
 120 100.959960938 l 6,28,29
 120.212890625 54.0283203125 120.212890625 54.0283203125 155.040039062 19.2001953125 c 4,30,31
 188.606445312 -14.3798828125 188.606445312 -14.3798828125 236.799804688 -14.3798828125 c 6,32,-1
 239.719726562 -14.3798828125 l 6,33,34
 285.235351562 -14.0234375 285.235351562 -14.0234375 321.479492188 19.2001953125 c 4,35,36
 356.51953125 51.2685546875 356.51953125 51.2685546875 356.51953125 100.959960938 c 6,37,-1
 356.51953125 347.48046875 l 5,38,-1
 533.1796875 350.400390625 l 5,39,-1
 607.639648438 127.240234375 l 6,40,41
 645.2265625 14 645.2265625 14 739.040039062 -10 c 4,42,43
 784.2265625 -22 784.2265625 -22 825.1796875 1.6796875 c 5,44,-1
 826.639648438 1.6796875 l 6,45,46
 861.762695312 2.0146484375 861.762695312 2.0146484375 879.19921875 71.759765625 c 4,47,48
 893.079101562 126.419921875 893.079101562 126.419921875 867.51953125 169.360351562 c 6,49,-1
 721.51953125 414.639648438 l 5,11,12
EndSplineSet
EndChar

StartChar: S
Encoding: 54 83 54
Width: 800
VWidth: 1495
GlyphClass: 2
Flags: W
LayerCount: 2
Back
Fore
SplineSet
401.779296875 649.700195312 m 4,1,2
 359.439453125 677.440429688 359.439453125 677.440429688 359.439453125 721.240234375 c 4,3,4
 359.439453125 759.200195312 359.439453125 759.200195312 391.55859375 785.48046875 c 4,5,6
 429.51953125 814.6796875 429.51953125 814.6796875 498.138671875 813.219726562 c 4,7,8
 552.16015625 813.219726562 552.16015625 813.219726562 619.3203125 794.240234375 c 4,9,10
 657.279296875 784.01953125 657.279296875 784.01953125 689.400390625 803 c 4,11,12
 722.98046875 823.440429688 722.98046875 823.440429688 734.66015625 859.940429688 c 6,13,-1
 736.119140625 861.400390625 l 6,14,15
 744.87890625 899.360351562 744.87890625 899.360351562 724.439453125 935.860351562 c 4,16,17
 704 970.900390625 704 970.900390625 666.0390625 979.66015625 c 4,18,19
 562.37890625 1005.94042969 562.37890625 1005.94042969 501.05859375 1005.94042969 c 4,20,21
 330.240234375 1007.40039062 330.240234375 1007.40039062 225.119140625 922.719726562 c 4,22,23
 120 840.959960938 120 840.959960938 120 703.719726562 c 4,24,25
 120 502.240234375 120 502.240234375 397.400390625 402.959960938 c 4,26,27
 487.919921875 370.83984375 487.919921875 370.83984375 524.419921875 341.639648438 c 260,28,29
 560.919921875 312.440429688 560.919921875 312.440429688 560.919921875 270.099609375 c 4,30,31
 560.919921875 221.919921875 560.919921875 221.919921875 520.0390625 195.639648438 c 4,32,33
 479.16015625 166.440429688 479.16015625 166.440429688 409.080078125 166.440429688 c 4,34,35
 350.6796875 166.440429688 350.6796875 166.440429688 254.3203125 197.099609375 c 4,36,37
 213.439453125 210.240234375 213.439453125 210.240234375 176.939453125 189.799804688 c 260,38,39
 140.439453125 169.360351562 140.439453125 169.360351562 130.21875 128.48046875 c 5,40,-1
 128.759765625 125.559570312 l 5,41,42
 120 87.599609375 120 87.599609375 140.439453125 52.5595703125 c 260,43,44
 160.87890625 17.51953125 160.87890625 17.51953125 197.37890625 8.759765625 c 4,45,46
 315.638671875 -26.2802734375 315.638671875 -26.2802734375 394.48046875 -26.2802734375 c 4,47,48
 601.798828125 -26.2802734375 601.798828125 -26.2802734375 709.83984375 73 c 4,49,50
 800.359375 157.6796875 800.359375 157.6796875 800.359375 286.16015625 c 4,51,52
 800.359375 391.280273438 800.359375 391.280273438 736.119140625 464.280273438 c 260,53,54
 674.798828125 537.280273438 674.798828125 537.280273438 540.48046875 586.919921875 c 4,55,0
 438.279296875 626.33984375 438.279296875 626.33984375 401.779296875 649.700195312 c 4,1,2
EndSplineSet
EndChar

StartChar: T
Encoding: 55 84 55
Width: 887
VWidth: 1495
GlyphClass: 2
Flags: W
LayerCount: 2
Back
Fore
SplineSet
120.442382812 880.16015625 m 1,0,1
 125.119140625 858 125.119140625 858 149.642578125 836.360351562 c 0,2,3
 172.455078125 816.7109375 172.455078125 816.7109375 199.282226562 818.83984375 c 2,4,-1
 383.2421875 833.440429688 l 1,5,-1
 383.2421875 106.799804688 l 2,6,7
 383.119140625 54 383.119140625 54 418.282226562 19.2001953125 c 0,8,9
 452.9609375 -15.83984375 452.9609375 -15.83984375 504.422851562 -15.83984375 c 2,10,-1
 505.8828125 -15.83984375 l 2,11,12
 558.119140625 -16 558.119140625 -16 593.482421875 19.2001953125 c 0,13,14
 628.522460938 54.4052734375 628.522460938 54.4052734375 628.522460938 106.799804688 c 2,15,-1
 628.522460938 833.440429688 l 1,16,-1
 812.482421875 818.83984375 l 2,17,18
 836.119140625 817 836.119140625 817 862.122070312 836.360351562 c 0,19,20
 885.119140625 854 885.119140625 854 891.322265625 880.16015625 c 1,21,-1
 891.322265625 883.080078125 l 1,22,23
 905.119140625 929 905.119140625 929 876.72265625 966.299804688 c 0,24,25
 853.149414062 996.959960938 853.149414062 996.959960938 812.482421875 996.959960938 c 2,26,-1
 199.282226562 996.959960938 l 2,27,28
 159.119140625 997 159.119140625 997 135.04296875 966.299804688 c 0,29,30
 109.119140625 933 109.119140625 933 120.442382812 883.080078125 c 1,31,-1
 120.442382812 880.16015625 l 1,0,1
EndSplineSet
EndChar

StartChar: U
Encoding: 56 85 56
Width: 988
VWidth: 1495
GlyphClass: 2
Flags: W
LayerCount: 2
Back
Fore
SplineSet
740.719726562 394.200195312 m 6,0,1
 741.4375 317.375976562 741.4375 317.375976562 683.779296875 259.879882812 c 260,2,3
 627.000976562 202.940429688 627.000976562 202.940429688 559.459960938 202.940429688 c 6,4,-1
 553.620117188 202.940429688 l 6,5,6
 485.060546875 203 485.060546875 203 426.379882812 259.879882812 c 4,7,8
 367.217773438 317.845703125 367.217773438 317.845703125 367.979492188 398.580078125 c 6,9,-1
 372.580078125 886.219726562 l 6,10,11
 373.060546875 934 373.060546875 934 339 969.440429688 c 4,12,13
 304.588867188 1004.48046875 304.588867188 1004.48046875 255.779296875 1004.48046875 c 6,14,-1
 252.859375 1004.48046875 l 6,15,16
 189.060546875 1004 189.060546875 1004 153.580078125 969.440429688 c 4,17,18
 120 935.939453125 120 935.939453125 120 886.219726562 c 6,19,-1
 120 432.16015625 l 6,20,21
 120.060546875 250 120.060546875 250 247.01953125 122.639648438 c 260,22,23
 374.901367188 -5.83984375 374.901367188 -5.83984375 556.540039062 -5.83984375 c 6,24,-1
 565.299804688 -5.83984375 l 6,25,26
 743.060546875 -6 743.060546875 -6 866.059570312 119.719726562 c 4,27,28
 988.700195312 244.6328125 988.700195312 244.6328125 988.700195312 420.48046875 c 6,29,-1
 988.700195312 886.219726562 l 6,30,31
 989.060546875 936 989.060546875 936 955.120117188 969.440429688 c 4,32,33
 920.586914062 1004.48046875 920.586914062 1004.48046875 857.299804688 1004.48046875 c 6,34,-1
 854.379882812 1004.48046875 l 6,35,36
 805.060546875 1004 805.060546875 1004 769.700195312 969.440429688 c 4,37,38
 735.66796875 934.59765625 735.66796875 934.59765625 736.120117188 886.219726562 c 6,39,-1
 740.719726562 394.200195312 l 6,0,1
EndSplineSet
EndChar

StartChar: V
Encoding: 57 86 57
Width: 1006
VWidth: 1495
GlyphClass: 2
Flags: W
LayerCount: 2
Back
Fore
SplineSet
123.6640625 840.768554688 m 2,0,1
 104.693359375 898.296875 104.693359375 898.296875 139.723632812 947.348632812 c 0,2,3
 175.1875 996.98828125 175.1875 996.98828125 234.624023438 996.98828125 c 2,4,-1
 262.36328125 996.98828125 l 2,5,6
 299.944335938 996.6484375 299.944335938 996.6484375 332.443359375 973.62890625 c 0,7,8
 363.606445312 950.895507812 363.606445312 950.895507812 373.32421875 913.768554688 c 2,9,-1
 463.84375 567.96875 l 2,10,11
 537.944335938 307.6484375 537.944335938 307.6484375 558.744140625 211.728515625 c 1,12,-1
 563.124023438 211.728515625 l 1,13,14
 568.944335938 240.6484375 568.944335938 240.6484375 659.483398438 562.12890625 c 2,15,-1
 747.083984375 915.228515625 l 2,16,17
 755.944335938 949.6484375 755.944335938 949.6484375 790.883789062 975.088867188 c 0,18,19
 821.418945312 996.98828125 821.418945312 996.98828125 881.403320312 996.98828125 c 2,20,-1
 884.32421875 996.98828125 l 2,21,22
 944.944335938 996.6484375 944.944335938 996.6484375 980.68359375 945.888671875 c 0,23,24
 1015.02734375 897.532226562 1015.02734375 897.532226562 995.284179688 839.30859375 c 2,25,-1
 752.784179688 124.12890625 l 2,26,27
 731.944335938 63.6484375 731.944335938 63.6484375 681.244140625 30.6884765625 c 0,28,29
 622.201171875 -5.8115234375 622.201171875 -5.8115234375 567.36328125 -5.8115234375 c 2,30,-1
 544.443359375 -5.8115234375 l 2,31,32
 480.944335938 -5.3515625 480.944335938 -5.3515625 430.563476562 30.6884765625 c 256,33,34
 378.387695312 68.3291015625 378.387695312 68.3291015625 359.0234375 127.048828125 c 2,35,-1
 123.6640625 840.768554688 l 2,0,1
EndSplineSet
EndChar

StartChar: W
Encoding: 58 87 58
Width: 1525
VWidth: 1495
GlyphClass: 2
Flags: W
LayerCount: 2
Back
Fore
SplineSet
1444.36132812 1006.95996094 m 2,0,1
 1403.69238281 1006.95996094 1403.69238281 1006.95996094 1375.74121094 985.059570312 c 0,2,3
 1340.49902344 957.811523438 1340.49902344 957.811523438 1331.94140625 925.200195312 c 2,4,-1
 1237.04101562 563.559570312 l 2,5,6
 1144.74316406 232 1144.74316406 232 1140.68164062 213.16015625 c 1,7,-1
 1136.30078125 213.16015625 l 1,8,9
 1073.74316406 519 1073.74316406 519 977.161132812 904.759765625 c 0,10,11
 965.743164062 950 965.743164062 950 928.981445312 979.219726562 c 0,12,13
 893.793945312 1006.95996094 893.793945312 1006.95996094 847.221679688 1006.95996094 c 2,14,-1
 844.30078125 1006.95996094 l 2,15,16
 795.743164062 1007 795.743164062 1007 762.541015625 979.219726562 c 0,17,18
 725.743164062 949 725.743164062 949 715.821289062 904.759765625 c 0,19,20
 609.743164062 469 609.743164062 469 556.681640625 213.16015625 c 1,21,-1
 552.30078125 213.16015625 l 1,22,23
 552.743164062 221 552.743164062 221 455.94140625 563.559570312 c 2,24,-1
 359.581054688 925.200195312 l 2,25,26
 348.743164062 965 348.743164062 965 318.701171875 985.059570312 c 0,27,28
 286.801757812 1006.95996094 286.801757812 1006.95996094 248.62109375 1006.95996094 c 2,29,-1
 231.1015625 1006.95996094 l 2,30,31
 169.743164062 1007 169.743164062 1007 134.741210938 956.58984375 c 0,32,33
 100.5390625 905.697265625 100.5390625 905.697265625 120.141601562 849.280273438 c 2,34,-1
 377.1015625 109.719726562 l 2,35,36
 395.743164062 56 395.743164062 56 447.181640625 19.2001953125 c 0,37,38
 496.517578125 -15.83984375 496.517578125 -15.83984375 555.221679688 -15.83984375 c 2,39,-1
 558.141601562 -15.83984375 l 2,40,41
 622.743164062 -16 622.743164062 -16 672.021484375 25.0400390625 c 256,42,43
 724.20703125 68.3857421875 724.20703125 68.3857421875 739.181640625 127.240234375 c 2,44,-1
 847.221679688 551.879882812 l 1,45,-1
 952.340820312 127.240234375 l 2,46,47
 967.743164062 65 967.743164062 65 1019.50097656 25.0400390625 c 0,48,49
 1071.5390625 -15.83984375 1071.5390625 -15.83984375 1136.30078125 -15.83984375 c 2,50,-1
 1139.22167969 -15.83984375 l 2,51,52
 1200.74316406 -16 1200.74316406 -16 1247.26074219 19.2001953125 c 0,53,54
 1295.29296875 54.66796875 1295.29296875 54.66796875 1314.42089844 109.719726562 c 2,55,-1
 1571.38085938 849.280273438 l 2,56,57
 1592.74316406 910 1592.74316406 910 1558.24121094 957.3203125 c 0,58,59
 1522.77148438 1006.95996094 1522.77148438 1006.95996094 1461.88085938 1006.95996094 c 2,60,-1
 1444.36132812 1006.95996094 l 2,0,1
EndSplineSet
EndChar

StartChar: X
Encoding: 59 88 59
Width: 846
VWidth: 1495
GlyphClass: 2
Flags: W
LayerCount: 2
Back
Fore
SplineSet
705.985351562 1006.95996094 m 6,0,1
 627.595703125 1006.95996094 627.595703125 1006.95996094 599.405273438 942.719726562 c 6,2,-1
 475.305664062 659.919921875 l 5,3,-1
 351.205078125 942.719726562 l 6,4,5
 322.79296875 1006.95996094 322.79296875 1006.95996094 244.625 1006.95996094 c 6,6,-1
 227.10546875 1006.95996094 l 6,7,8
 151.775390625 1007 151.775390625 1007 120.525390625 944.1796875 c 260,9,10
 89.78125 884.01171875 89.78125 884.01171875 126.365234375 820.080078125 c 6,11,-1
 314.92578125 490.559570312 l 5,12,-1
 126.365234375 181.040039062 l 6,13,14
 84.775390625 113 84.775390625 113 120.525390625 49.400390625 c 4,15,16
 155.6875 -14.83984375 155.6875 -14.83984375 227.10546875 -14.83984375 c 6,17,-1
 244.625 -14.83984375 l 6,18,19
 321.80078125 -15 321.80078125 -15 351.205078125 49.400390625 c 6,20,-1
 475.305664062 321.200195312 l 5,21,-1
 599.405273438 49.400390625 l 6,22,23
 628.702148438 -14.83984375 628.702148438 -14.83984375 705.985351562 -14.83984375 c 6,24,-1
 708.905273438 -14.83984375 l 6,25,26
 796.775390625 -15 796.775390625 -15 830.084960938 49.400390625 c 4,27,28
 864.63671875 114.737304688 864.63671875 114.737304688 824.245117188 181.040039062 c 6,29,-1
 635.685546875 490.559570312 l 5,30,-1
 824.245117188 820.080078125 l 6,31,32
 861.775390625 886 861.775390625 886 830.084960938 944.1796875 c 260,33,34
 794.797851562 1006.95996094 794.797851562 1006.95996094 708.905273438 1006.95996094 c 6,35,-1
 705.985351562 1006.95996094 l 6,0,1
EndSplineSet
EndChar

StartChar: Y
Encoding: 60 89 60
Width: 873
VWidth: 1495
GlyphClass: 2
Flags: W
LayerCount: 2
Back
Fore
SplineSet
365.850585938 398.280273438 m 5,0,-1
 120.810546875 841.98046875 l 6,1,2
 90.525390625 896 90.525390625 896 126.651367188 952.940429688 c 4,3,4
 160.500976562 1006.95996094 160.500976562 1006.95996094 223.010742188 1006.95996094 c 6,5,-1
 236.151367188 1006.95996094 l 6,6,7
 313.525390625 1007 313.525390625 1007 342.731445312 933.959960938 c 4,8,9
 416.525390625 749 416.525390625 749 494.331054688 576.400390625 c 5,10,-1
 647.850585938 933.959960938 l 6,11,12
 679.5078125 1006.95996094 679.5078125 1006.95996094 754.430664062 1006.95996094 c 6,13,-1
 755.890625 1006.95996094 l 6,14,15
 820.525390625 1007 820.525390625 1007 855.170898438 951.48046875 c 4,16,17
 889.698242188 894.716796875 889.698242188 894.716796875 858.090820312 840.51953125 c 6,18,-1
 605.291015625 407.040039062 l 5,19,-1
 605.291015625 113.879882812 l 6,20,21
 605.525390625 54 605.525390625 54 570.250976562 19.2001953125 c 4,22,23
 535.68359375 -15.83984375 535.68359375 -15.83984375 487.03125 -15.83984375 c 6,24,-1
 484.111328125 -15.83984375 l 6,25,26
 435.525390625 -16 435.525390625 -16 400.890625 19.2001953125 c 4,27,28
 365.850585938 53.7080078125 365.850585938 53.7080078125 365.850585938 113.879882812 c 6,29,-1
 365.850585938 398.280273438 l 5,0,-1
EndSplineSet
EndChar

StartChar: Z
Encoding: 61 90 61
Width: 941
VWidth: 1495
GlyphClass: 2
Flags: W
LayerCount: 2
Back
Fore
SplineSet
120 84.6796875 m 6,0,1
 120 116.249023438 120 116.249023438 137.51953125 140.16015625 c 6,2,-1
 626.620117188 807.700195312 l 5,3,-1
 626.620117188 813.540039062 l 5,4,-1
 228.040039062 798.940429688 l 6,5,6
 161.415039062 797 161.415039062 797 140.439453125 861.719726562 c 5,7,-1
 138.979492188 864.639648438 l 5,8,9
 122.415039062 918 122.415039062 918 153.580078125 961 c 4,10,11
 181.385742188 998.959960938 181.385742188 998.959960938 226.580078125 998.959960938 c 6,12,-1
 842.700195312 998.959960938 l 6,13,14
 883.415039062 999 883.415039062 999 909.859375 971.219726562 c 260,15,16
 939.059570312 942.3515625 939.059570312 942.3515625 939.059570312 902.599609375 c 6,17,-1
 939.059570312 902.599609375 l 6,18,19
 939.40625 870.80859375 939.40625 870.80859375 920.080078125 844.200195312 c 6,20,-1
 442.66015625 186.879882812 l 5,21,-1
 442.66015625 181.040039062 l 5,22,-1
 848.540039062 195.639648438 l 6,23,24
 915.415039062 198 915.415039062 198 936.139648438 131.400390625 c 5,25,-1
 936.139648438 129.940429688 l 5,26,27
 952.415039062 75 952.415039062 75 923 32.1201171875 c 4,28,29
 896.526367188 -5.83984375 896.526367188 -5.83984375 848.540039062 -5.83984375 c 6,30,-1
 209.059570312 -5.83984375 l 6,31,32
 171.415039062 -6 171.415039062 -6 146.280273438 20.4404296875 c 260,33,34
 120 47.42578125 120 47.42578125 120 84.6796875 c 6,35,-1
 120 84.6796875 l 6,0,1
EndSplineSet
EndChar

StartChar: bracketleft
Encoding: 62 91 62
Width: 422
VWidth: 1495
GlyphClass: 2
Flags: W
LayerCount: 2
Back
Fore
SplineSet
100.169921875 1112.51953125 m 6,0,1
 101.629882812 1138.79980469 101.629882812 1138.79980469 119.149414062 1156.3203125 c 132,-1,2
 136.669921875 1173.83984375 136.669921875 1173.83984375 161.490234375 1173.83984375 c 6,3,-1
 361.509765625 1173.83984375 l 6,4,5
 387.790039062 1173.83984375 387.790039062 1173.83984375 405.309570312 1156.3203125 c 132,-1,6
 422.830078125 1138.79980469 422.830078125 1138.79980469 422.830078125 1112.51953125 c 6,7,-1
 422.830078125 1112.51953125 l 6,8,9
 422.830078125 1087.70019531 422.830078125 1087.70019531 405.309570312 1068.71972656 c 4,10,11
 387.790039062 1051.20019531 387.790039062 1051.20019531 361.509765625 1051.20019531 c 6,12,-1
 333.76953125 1051.20019531 l 6,13,14
 308.950195312 1051.20019531 308.950195312 1051.20019531 291.4296875 1033.6796875 c 132,-1,15
 273.91015625 1016.16015625 273.91015625 1016.16015625 272.450195312 989.879882812 c 6,16,-1
 272.450195312 -35.0400390625 l 6,17,18
 273.91015625 -61.3203125 273.91015625 -61.3203125 291.4296875 -78.83984375 c 132,-1,19
 308.950195312 -96.3603515625 308.950195312 -96.3603515625 333.76953125 -96.3603515625 c 6,20,-1
 361.509765625 -96.3603515625 l 6,21,22
 387.790039062 -96.3603515625 387.790039062 -96.3603515625 405.309570312 -113.879882812 c 132,-1,23
 422.830078125 -131.400390625 422.830078125 -131.400390625 422.830078125 -157.6796875 c 6,24,-1
 422.830078125 -157.6796875 l 6,25,26
 422.830078125 -183.959960938 422.830078125 -183.959960938 405.309570312 -201.48046875 c 132,-1,27
 387.790039062 -219 387.790039062 -219 361.509765625 -219 c 6,28,-1
 161.490234375 -219 l 6,29,30
 136.669921875 -219 136.669921875 -219 119.149414062 -201.48046875 c 132,-1,31
 101.629882812 -183.959960938 101.629882812 -183.959960938 100.169921875 -157.6796875 c 6,32,-1
 100.169921875 1112.51953125 l 6,0,1
EndSplineSet
EndChar

StartChar: backslash
Encoding: 63 92 63
Width: 475
VWidth: 1495
GlyphClass: 2
Flags: W
LayerCount: 2
Back
Fore
SplineSet
471.100585938 24.48046875 m 6,0,1
 482.780273438 -13.48046875 482.780273438 -13.48046875 460.879882812 -42.6796875 c 260,2,3
 438.98046875 -71.8798828125 438.98046875 -71.8798828125 401.020507812 -71.8798828125 c 6,4,-1
 398.100585938 -71.8798828125 l 6,5,6
 342.620117188 -71.8798828125 342.620117188 -71.8798828125 326.560546875 -19.3203125 c 6,7,-1
 3.900390625 972.01953125 l 6,8,9
 -7.779296875 1008.51953125 -7.779296875 1008.51953125 14.1201171875 1040.63964844 c 4,10,11
 37.48046875 1069.83984375 37.48046875 1069.83984375 75.4404296875 1069.83984375 c 6,12,-1
 76.900390625 1069.83984375 l 6,13,14
 132.379882812 1069.83984375 132.379882812 1069.83984375 148.440429688 1017.28027344 c 6,15,-1
 471.100585938 24.48046875 l 6,0,1
EndSplineSet
EndChar

StartChar: bracketright
Encoding: 64 93 64
Width: 445
VWidth: 1495
GlyphClass: 2
Flags: W
LayerCount: 2
Back
Fore
SplineSet
445.099609375 -157.6796875 m 6,0,1
 445.099609375 -183.959960938 445.099609375 -183.959960938 427.580078125 -201.48046875 c 132,-1,2
 410.059570312 -219 410.059570312 -219 383.780273438 -219 c 6,3,-1
 185.219726562 -219 l 6,4,5
 158.940429688 -219 158.940429688 -219 141.419921875 -201.48046875 c 132,-1,6
 123.900390625 -183.959960938 123.900390625 -183.959960938 123.900390625 -157.6796875 c 6,7,-1
 123.900390625 -157.6796875 l 6,8,9
 123.900390625 -131.400390625 123.900390625 -131.400390625 141.419921875 -113.879882812 c 132,-1,10
 158.940429688 -96.3603515625 158.940429688 -96.3603515625 185.219726562 -96.3603515625 c 6,11,-1
 211.5 -96.3603515625 l 6,12,13
 237.780273438 -96.3603515625 237.780273438 -96.3603515625 255.299804688 -78.83984375 c 132,-1,14
 272.8203125 -61.3203125 272.8203125 -61.3203125 272.8203125 -35.0400390625 c 6,15,-1
 272.8203125 989.879882812 l 6,16,17
 272.8203125 1016.16015625 272.8203125 1016.16015625 255.299804688 1033.6796875 c 132,-1,18
 237.780273438 1051.20019531 237.780273438 1051.20019531 211.5 1051.20019531 c 6,19,-1
 185.219726562 1051.20019531 l 6,20,21
 158.940429688 1051.20019531 158.940429688 1051.20019531 141.419921875 1068.71972656 c 132,-1,22
 123.900390625 1086.24023438 123.900390625 1086.24023438 123.900390625 1112.51953125 c 6,23,-1
 123.900390625 1112.51953125 l 6,24,25
 123.900390625 1138.79980469 123.900390625 1138.79980469 141.419921875 1156.3203125 c 132,-1,26
 158.940429688 1173.83984375 158.940429688 1173.83984375 185.219726562 1173.83984375 c 6,27,-1
 383.780273438 1173.83984375 l 6,28,29
 410.059570312 1173.83984375 410.059570312 1173.83984375 427.580078125 1156.3203125 c 132,-1,30
 445.099609375 1138.79980469 445.099609375 1138.79980469 445.099609375 1112.51953125 c 6,31,-1
 445.099609375 -157.6796875 l 6,0,1
EndSplineSet
EndChar

StartChar: asciicircum
Encoding: 65 94 65
Width: 743
VWidth: 1495
GlyphClass: 2
Flags: W
LayerCount: 2
Back
Fore
SplineSet
532.444335938 966.51953125 m 6,0,1
 502.385742188 1010.3203125 502.385742188 1010.3203125 430.245117188 1010.3203125 c 132,-1,2
 358.103515625 1010.3203125 358.103515625 1010.3203125 328.044921875 966.51953125 c 6,3,-1
 123.64453125 668.6796875 l 6,4,5
 106.125 642.400390625 106.125 642.400390625 144.084960938 617.580078125 c 132,-1,6
 182.044921875 592.759765625 182.044921875 592.759765625 225.844726562 592.759765625 c 4,7,8
 279.1796875 592.759765625 279.1796875 592.759765625 298.844726562 624.879882812 c 6,9,-1
 430.245117188 839.5 l 5,10,-1
 560.184570312 624.879882812 l 6,11,12
 579.89453125 592.759765625 579.89453125 592.759765625 631.724609375 592.759765625 c 6,13,-1
 636.104492188 592.759765625 l 6,14,15
 700.344726562 592.759765625 700.344726562 592.759765625 727.354492188 617.580078125 c 4,16,17
 754.680664062 642.690429688 754.680664062 642.690429688 736.844726562 668.6796875 c 6,18,-1
 532.444335938 966.51953125 l 6,0,1
EndSplineSet
EndChar

StartChar: underscore
Encoding: 66 95 66
Width: 818
VWidth: 1495
GlyphClass: 2
Flags: W
LayerCount: 2
Back
Fore
SplineSet
818.279296875 -245.280273438 m 6,0,1
 818.279296875 -271.559570312 818.279296875 -271.559570312 799.30078125 -289.080078125 c 260,2,3
 780.3203125 -306.599609375 780.3203125 -306.599609375 752.580078125 -306.599609375 c 6,4,-1
 172.9609375 -306.599609375 l 6,5,6
 146.6796875 -306.599609375 146.6796875 -306.599609375 126.240234375 -289.080078125 c 4,7,8
 108.720703125 -271.559570312 108.720703125 -271.559570312 108.720703125 -245.280273438 c 6,9,-1
 108.720703125 -245.280273438 l 6,10,11
 108.720703125 -219 108.720703125 -219 126.240234375 -200.01953125 c 4,12,13
 146.6796875 -181.040039062 146.6796875 -181.040039062 172.9609375 -181.040039062 c 6,14,-1
 752.580078125 -181.040039062 l 6,15,16
 780.3203125 -181.040039062 780.3203125 -181.040039062 799.30078125 -200.01953125 c 260,17,18
 818.279296875 -219 818.279296875 -219 818.279296875 -245.280273438 c 6,19,-1
 818.279296875 -245.280273438 l 6,0,1
EndSplineSet
EndChar

StartChar: grave
Encoding: 67 96 67
Width: 439
VWidth: 1495
GlyphClass: 2
Flags: W
LayerCount: 2
Back
Fore
SplineSet
435.142578125 797.16015625 m 6,0,1
 440.982421875 788.400390625 440.982421875 788.400390625 438.0625 779.639648438 c 132,-1,2
 435.142578125 770.879882812 435.142578125 770.879882812 424.922851562 770.879882812 c 6,3,-1
 277.462890625 770.879882812 l 6,4,5
 268.703125 770.879882812 268.703125 770.879882812 259.942382812 776.719726562 c 6,6,-1
 116.862304688 887.6796875 l 6,7,8
 96.4228515625 902.280273438 96.4228515625 902.280273438 102.262695312 924.1796875 c 4,9,10
 105.182617188 943.16015625 105.182617188 943.16015625 128.54296875 943.16015625 c 6,11,-1
 286.22265625 943.16015625 l 6,12,13
 306.663085938 943.16015625 306.663085938 943.16015625 321.262695312 928.559570312 c 6,14,-1
 435.142578125 797.16015625 l 6,0,1
EndSplineSet
EndChar

StartChar: a
Encoding: 68 97 68
Width: 840
VWidth: 1495
GlyphClass: 2
Flags: W
LayerCount: 2
Back
Fore
SplineSet
309 378.139648438 m 6,0,1
 309 475.959960938 309 475.959960938 327.979492188 519.759765625 c 4,2,3
 349.879882812 566.48046875 349.879882812 566.48046875 384.919921875 582.540039062 c 4,4,5
 457.919921875 617.580078125 457.919921875 617.580078125 530.919921875 589.83984375 c 4,6,7
 595.16015625 565.01953125 595.16015625 565.01953125 609.759765625 519.759765625 c 5,8,-1
 609.759765625 249.66015625 l 6,9,10
 609.759765625 160.599609375 609.759765625 160.599609375 533.83984375 134.3203125 c 4,11,12
 495.879882812 122.639648438 495.879882812 122.639648438 459.379882812 127.01953125 c 5,13,14
 396.599609375 125.559570312 396.599609375 125.559570312 352.799804688 183.959960938 c 132,-1,15
 309 242.360351562 309 242.360351562 309 325.580078125 c 6,16,-1
 309 378.139648438 l 6,0,1
192.200195312 102.200195312 m 260,17,18
 294.399414062 -5.83984375 294.399414062 -5.83984375 440.399414062 -5.83984375 c 4,19,20
 481.280273438 -5.83984375 481.280273438 -5.83984375 560.120117188 45.259765625 c 4,21,22
 579.099609375 58.400390625 579.099609375 58.400390625 601 55.48046875 c 132,-1,23
 622.899414062 52.5595703125 622.899414062 52.5595703125 638.959960938 35.0400390625 c 4,24,25
 676.919921875 -5.83984375 676.919921875 -5.83984375 697.360351562 -5.83984375 c 6,26,-1
 793.719726562 -5.83984375 l 6,27,28
 812.700195312 -5.83984375 812.700195312 -5.83984375 827.299804688 8.759765625 c 4,29,30
 840.439453125 20.4404296875 840.439453125 20.4404296875 840.439453125 40.8798828125 c 6,31,-1
 840.439453125 624.879882812 l 6,32,33
 840.439453125 659.919921875 840.439453125 659.919921875 815.620117188 686.200195312 c 4,34,35
 790.799804688 709.559570312 790.799804688 709.559570312 755.759765625 709.559570312 c 6,36,-1
 694.439453125 709.559570312 l 6,37,38
 659.399414062 709.559570312 659.399414062 709.559570312 636.040039062 686.200195312 c 260,39,40
 609.759765625 659.919921875 609.759765625 659.919921875 609.759765625 624.879882812 c 6,41,-1
 609.759765625 624.879882812 l 5,42,43
 563.040039062 732.919921875 563.040039062 732.919921875 440.399414062 732.919921875 c 4,44,45
 294.399414062 732.919921875 294.399414062 732.919921875 192.200195312 624.879882812 c 260,46,47
 90 516.83984375 90 516.83984375 90 363.540039062 c 132,-1,48
 90 210.240234375 90 210.240234375 192.200195312 102.200195312 c 260,17,18
EndSplineSet
EndChar

StartChar: b
Encoding: 69 98 69
Width: 861
VWidth: 1495
GlyphClass: 2
Flags: W
LayerCount: 2
Back
Fore
SplineSet
632.900390625 318.280273438 m 6,0,1
 631.440429688 236.51953125 631.440429688 236.51953125 587.640625 178.120117188 c 132,-1,2
 543.83984375 119.719726562 543.83984375 119.719726562 482.520507812 119.719726562 c 5,3,4
 444.560546875 113.879882812 444.560546875 113.879882812 406.600585938 125.559570312 c 4,5,6
 330.680664062 151.83984375 330.680664062 151.83984375 330.680664062 242.360351562 c 6,7,-1
 330.680664062 519.759765625 l 5,8,9
 348.200195312 565.01953125 348.200195312 565.01953125 410.98046875 589.83984375 c 4,10,11
 483.98046875 619.040039062 483.98046875 619.040039062 556.98046875 582.540039062 c 4,12,13
 590.560546875 566.48046875 590.560546875 566.48046875 612.459960938 519.759765625 c 4,14,15
 632.900390625 475.959960938 632.900390625 475.959960938 632.900390625 421.940429688 c 6,16,-1
 632.900390625 318.280273438 l 6,0,1
330.680664062 686.200195312 m 5,17,-1
 330.680664062 927.099609375 l 6,18,19
 331 971 331 971 295.640625 1007.40039062 c 4,20,21
 273.018554688 1030.98046875 273.018554688 1030.98046875 216.799804688 1030.98046875 c 6,22,-1
 213.879882812 1030.98046875 l 6,23,24
 167 1031 167 1031 133.640625 1002.359375 c 4,25,26
 100 974 100 974 100 927.099609375 c 6,27,-1
 100 40.8798828125 l 6,28,29
 100 23 100 23 114.600585938 8.759765625 c 4,30,31
 129.833007812 -5.83984375 129.833007812 -5.83984375 146.720703125 -5.83984375 c 6,32,-1
 283.959960938 -5.83984375 l 6,33,34
 301 -6 301 -6 316.080078125 8.759765625 c 4,35,36
 330.680664062 22.6953125 330.680664062 22.6953125 330.680664062 40.8798828125 c 6,37,-1
 330.680664062 40.8798828125 l 5,38,39
 409 -6 409 -6 500.040039062 -5.83984375 c 4,40,41
 646 -6 646 -6 748.240234375 102.200195312 c 260,42,43
 852 212 852 212 851.900390625 363.540039062 c 132,-1,44
 852 515 852 515 748.240234375 624.879882812 c 260,45,46
 646 733 646 733 500.040039062 732.919921875 c 4,47,48
 409 733 409 733 330.680664062 686.200195312 c 5,17,-1
EndSplineSet
EndChar

StartChar: c
Encoding: 70 99 70
Width: 675
VWidth: 1495
GlyphClass: 2
Flags: W
LayerCount: 2
Back
Fore
SplineSet
675.240234375 84.6796875 m 6,0,1
 675.240234375 122.639648438 675.240234375 122.639648438 646.040039062 146 c 260,2,3
 616.83984375 172.280273438 616.83984375 172.280273438 580.33984375 166.440429688 c 132,-1,4
 543.83984375 160.599609375 543.83984375 160.599609375 513.1796875 163.51953125 c 5,5,6
 438.719726562 163.51953125 438.719726562 163.51953125 383.240234375 221.919921875 c 132,-1,7
 327.759765625 280.3203125 327.759765625 280.3203125 327.759765625 362.080078125 c 6,8,-1
 327.759765625 370.83984375 l 6,9,10
 327.759765625 424.860351562 327.759765625 424.860351562 352.580078125 468.66015625 c 4,11,12
 378.860351562 515.379882812 378.860351562 515.379882812 421.200195312 531.440429688 c 4,13,14
 497.120117188 560.639648438 497.120117188 560.639648438 575.959960938 546.040039062 c 4,15,16
 613.919921875 537.280273438 613.919921875 537.280273438 646.040039062 560.639648438 c 4,17,18
 675.240234375 584 675.240234375 584 675.240234375 624.879882812 c 6,19,-1
 675.240234375 630.719726562 l 6,20,21
 675.240234375 657 675.240234375 657 660.639648438 680.360351562 c 4,22,23
 643.120117188 700.799804688 643.120117188 700.799804688 616.83984375 709.559570312 c 4,24,25
 561.360351562 724.16015625 561.360351562 724.16015625 502.959960938 725.620117188 c 4,26,27
 336.520507812 725.620117188 336.520507812 725.620117188 219.719726562 617.580078125 c 4,28,29
 100 509.540039062 100 509.540039062 100 356.240234375 c 4,30,31
 100 204.400390625 100 204.400390625 219.719726562 96.3603515625 c 4,32,33
 336.520507812 -11.6796875 336.520507812 -11.6796875 502.959960938 -11.6796875 c 4,34,35
 561.360351562 -11.6796875 561.360351562 -11.6796875 616.83984375 2.919921875 c 4,36,37
 643.120117188 8.759765625 643.120117188 8.759765625 660.639648438 32.1201171875 c 4,38,39
 675.240234375 54.01953125 675.240234375 54.01953125 675.240234375 81.759765625 c 6,40,-1
 675.240234375 84.6796875 l 6,0,1
EndSplineSet
EndChar

StartChar: d
Encoding: 71 100 71
Width: 852
VWidth: 1495
GlyphClass: 2
Flags: W
LayerCount: 2
Back
Fore
SplineSet
319 421.940429688 m 6,0,1
 319 475.959960938 319 475.959960938 339.440429688 519.759765625 c 4,2,3
 359.879882812 566.48046875 359.879882812 566.48046875 394.919921875 582.540039062 c 4,4,5
 467.919921875 617.580078125 467.919921875 617.580078125 540.919921875 589.83984375 c 4,6,7
 605.16015625 565.01953125 605.16015625 565.01953125 621.219726562 519.759765625 c 5,8,-1
 621.219726562 249.66015625 l 6,9,10
 619.759765625 160.599609375 619.759765625 160.599609375 543.83984375 134.3203125 c 4,11,12
 505.879882812 122.639648438 505.879882812 122.639648438 470.83984375 127.01953125 c 5,13,14
 406.599609375 125.559570312 406.599609375 125.559570312 362.799804688 183.959960938 c 132,-1,15
 319 242.360351562 319 242.360351562 319 325.580078125 c 6,16,-1
 319 421.940429688 l 6,0,1
450.400390625 732.919921875 m 4,17,18
 304.400390625 732.919921875 304.400390625 732.919921875 202.200195312 624.879882812 c 260,19,20
 100 516.83984375 100 516.83984375 100 363.540039062 c 132,-1,21
 100 210.240234375 100 210.240234375 202.200195312 102.200195312 c 260,22,23
 304.400390625 -5.83984375 304.400390625 -5.83984375 450.400390625 -5.83984375 c 4,24,25
 540.919921875 -5.83984375 540.919921875 -5.83984375 621.219726562 40.8798828125 c 5,26,-1
 621.219726562 40.8798828125 l 6,27,28
 619.759765625 23.3603515625 619.759765625 23.3603515625 634.360351562 8.759765625 c 4,29,30
 647.5 -5.83984375 647.5 -5.83984375 667.940429688 -5.83984375 c 6,31,-1
 805.1796875 -5.83984375 l 6,32,33
 824.16015625 -5.83984375 824.16015625 -5.83984375 838.759765625 8.759765625 c 132,-1,34
 853.360351562 23.3603515625 853.360351562 23.3603515625 851.900390625 40.8798828125 c 6,35,-1
 851.900390625 927.099609375 l 6,36,37
 851.900390625 973.8203125 851.900390625 973.8203125 818.3203125 1007.40039062 c 260,38,39
 784.740234375 1040.98046875 784.740234375 1040.98046875 738.01953125 1040.98046875 c 6,40,-1
 735.099609375 1040.98046875 l 6,41,42
 688.379882812 1040.98046875 688.379882812 1040.98046875 654.799804688 1007.40039062 c 260,43,44
 621.219726562 973.8203125 621.219726562 973.8203125 621.219726562 927.099609375 c 6,45,-1
 621.219726562 686.200195312 l 5,46,47
 540.919921875 732.919921875 540.919921875 732.919921875 450.400390625 732.919921875 c 4,17,18
EndSplineSet
EndChar

StartChar: e
Encoding: 72 101 72
Width: 776
VWidth: 1495
GlyphClass: 2
Flags: W
LayerCount: 2
Back
Fore
SplineSet
447.700195312 589.139648438 m 260,0,1
 507 589 507 589 555.12109375 562.75 c 4,2,3
 611 531 611 531 637.720703125 438 c 5,4,-1
 287.3203125 438 l 5,5,6
 301 508 301 508 336 540 c 4,7,8
 390.623046875 588.8515625 390.623046875 588.8515625 447.700195312 589.139648438 c 260,0,1
446.459960938 731.459960938 m 4,9,10
 295 734 295 734 187.310546875 625.610351562 c 4,11,12
 80 517 80 517 80 363.5 c 132,-1,13
 80 210 80 210 193.879882812 100.740234375 c 4,14,15
 303 -4 303 -4 423.100585938 -4.3798828125 c 4,16,17
 590 -5 590 -5 685.240234375 47.51953125 c 4,18,19
 751 83 751 83 759.16015625 118.919921875 c 5,20,-1
 760.620117188 120.379882812 l 5,21,22
 771 163 771 163 745.830078125 199.650390625 c 4,23,24
 712.979492188 245.029296875 712.979492188 245.029296875 659.400390625 221.040039062 c 6,25,-1
 576.759765625 184.0390625 l 6,26,27
 429 118 429 118 340.379882812 199.51953125 c 4,28,29
 316 222 316 222 293.16015625 294.919921875 c 5,30,-1
 738.459960938 294.919921875 l 6,31,32
 802.700195312 295 802.700195312 295 802.700195312 362.080078125 c 6,33,-1
 802.700195312 363.540039062 l 6,34,35
 803 524 803 524 695.500976562 626.33984375 c 4,36,37
 588 729 588 729 446.459960938 731.459960938 c 4,9,10
EndSplineSet
EndChar

StartChar: f
Encoding: 73 102 73
Width: 624
VWidth: 1495
GlyphClass: 2
Flags: W
LayerCount: 2
Back
Fore
SplineSet
621.219726562 923.599609375 m 5,0,1
 632 969 632 969 600.780273438 1003.90039062 c 260,2,3
 570 1038 570 1038 530.700195312 1037.48046875 c 4,4,5
 366 1035 366 1035 276.66015625 932.360351562 c 4,6,7
 203.66015625 847.60546875 203.66015625 847.60546875 203.66015625 763 c 6,8,-1
 203.66015625 656.419921875 l 5,9,-1
 181.759765625 656.419921875 l 6,10,11
 150 656 150 656 124.8203125 631.599609375 c 260,12,13
 100 607 100 607 100 574.66015625 c 6,14,-1
 100 573.200195312 l 6,15,16
 100 540 100 540 124.8203125 514.799804688 c 4,17,18
 147.571289062 491.440429688 147.571289062 491.440429688 181.759765625 491.440429688 c 6,19,-1
 203.66015625 491.440429688 l 5,20,-1
 203.66015625 96.3603515625 l 6,21,22
 204 50 204 50 232.860351562 21.900390625 c 4,23,24
 264.75 -8.759765625 264.75 -8.759765625 308.780273438 -8.759765625 c 6,25,-1
 311.700195312 -8.759765625 l 6,26,27
 355 -9 355 -9 386.16015625 21.900390625 c 4,28,29
 416.8203125 52.818359375 416.8203125 52.818359375 416.8203125 96.3603515625 c 6,30,-1
 416.8203125 491.440429688 l 5,31,-1
 479.599609375 491.440429688 l 6,32,33
 515 491 515 491 538 514.799804688 c 4,34,35
 561.360351562 538.36328125 561.360351562 538.36328125 561.360351562 573.200195312 c 6,36,-1
 561.360351562 574.66015625 l 6,37,38
 561 608 561 608 538 631.599609375 c 4,39,40
 512.569335938 656.419921875 512.569335938 656.419921875 479.599609375 656.419921875 c 6,41,-1
 416.8203125 656.419921875 l 5,42,-1
 416.8203125 722.120117188 l 6,43,44
 417 847 417 847 554.060546875 853.51953125 c 4,45,46
 606 856 606 856 621.219726562 920.6796875 c 5,47,-1
 621.219726562 923.599609375 l 5,0,1
EndSplineSet
EndChar

StartChar: g
Encoding: 74 103 74
Width: 851
VWidth: 1495
GlyphClass: 2
Flags: W
LayerCount: 2
Back
Fore
SplineSet
621.220703125 245.280273438 m 6,0,1
 619.760742188 154.759765625 619.760742188 154.759765625 543.840820312 128.48046875 c 4,2,3
 505.880859375 116.799804688 505.880859375 116.799804688 470.840820312 122.639648438 c 5,4,5
 408.060546875 122.639648438 408.060546875 122.639648438 362.80078125 181.040039062 c 4,6,7
 319.000976562 239.440429688 319.000976562 239.440429688 319.000976562 321.200195312 c 6,8,-1
 319.000976562 408.799804688 l 6,9,10
 319.000976562 464.280273438 319.000976562 464.280273438 339.440429688 508.080078125 c 4,11,12
 359.880859375 553.33984375 359.880859375 553.33984375 394.920898438 570.860351562 c 4,13,14
 467.920898438 607.360351562 467.920898438 607.360351562 540.920898438 578.16015625 c 4,15,16
 605.161132812 554.799804688 605.161132812 554.799804688 621.220703125 508.080078125 c 5,17,-1
 621.220703125 245.280273438 l 6,0,1
660.640625 727.080078125 m 6,18,19
 644.801757812 727.080078125 644.801757812 727.080078125 632.900390625 715.400390625 c 4,20,21
 621.720703125 704 621.720703125 704 621.220703125 689.120117188 c 5,22,-1
 621.220703125 689.120117188 l 5,23,24
 540.720703125 736 540.720703125 736 450.400390625 735.83984375 c 4,25,26
 304.720703125 736 304.720703125 736 202.201171875 627.799804688 c 4,27,28
 99.720703125 520 99.720703125 520 100.000976562 366.459960938 c 4,29,30
 99.720703125 213 99.720703125 213 202.201171875 105.120117188 c 260,31,32
 304.720703125 -3 304.720703125 -3 450.400390625 -2.919921875 c 4,33,34
 540.720703125 -3 540.720703125 -3 619.760742188 43.7998046875 c 5,35,36
 625.720703125 -121 625.720703125 -121 482.520507812 -120.959960938 c 4,37,38
 387.509765625 -120.984375 387.509765625 -120.984375 304.400390625 -119.5 c 4,39,40
 243.720703125 -118 243.720703125 -118 222.640625 -176.440429688 c 5,41,-1
 221.180664062 -177.900390625 l 5,42,43
 206.720703125 -219 206.720703125 -219 231.400390625 -255.280273438 c 4,44,45
 257.720703125 -292 257.720703125 -292 301.48046875 -291.780273438 c 4,46,47
 394.720703125 -293 394.720703125 -293 462.081054688 -293.240234375 c 4,48,49
 473.63671875 -291.780273438 473.63671875 -291.780273438 482.520507812 -291.780273438 c 4,50,51
 494.627929688 -293.161132812 494.627929688 -293.161132812 502.9609375 -293.240234375 c 4,52,53
 647.720703125 -295 647.720703125 -295 742.400390625 -215.860351562 c 4,54,55
 847.720703125 -130 847.720703125 -130 850.440429688 37.9599609375 c 5,56,-1
 851.900390625 37.9599609375 l 5,57,-1
 851.900390625 629.259765625 l 6,58,59
 851.720703125 669 851.720703125 669 822.701171875 697.879882812 c 4,60,61
 793.640625 727.080078125 793.640625 727.080078125 754.081054688 727.080078125 c 6,62,-1
 660.640625 727.080078125 l 6,18,19
EndSplineSet
EndChar

StartChar: h
Encoding: 75 104 75
Width: 851
VWidth: 1495
GlyphClass: 2
Flags: W
LayerCount: 2
Back
Fore
SplineSet
850.440429688 359.83984375 m 6,0,1
 850.440429688 530.66015625 850.440429688 530.66015625 765.759765625 638.700195312 c 4,2,3
 681.638671875 747.038085938 681.638671875 747.038085938 500.040039062 727.759765625 c 4,4,5
 420.200195312 719 420.200195312 719 330.680664062 640.16015625 c 5,6,-1
 327.759765625 923.400390625 l 6,7,8
 327.759765625 970.120117188 327.759765625 970.120117188 295.640625 1002.24023438 c 4,9,10
 262.060546875 1034.36035156 262.060546875 1034.36035156 215.33984375 1034.36035156 c 6,11,-1
 213.879882812 1034.36035156 l 6,12,13
 167.16015625 1034.36035156 167.16015625 1034.36035156 132.120117188 1002.24023438 c 4,14,15
 100 968.66015625 100 968.66015625 100 921.940429688 c 6,16,-1
 100 101.419921875 l 6,17,18
 100 53.240234375 100 53.240234375 132.120117188 21.1201171875 c 260,19,20
 164.240234375 -11 164.240234375 -11 212.419921875 -11 c 6,21,-1
 213.879882812 -11 l 6,22,23
 260.600585938 -11 260.600585938 -11 294.180664062 21.1201171875 c 260,24,25
 327.759765625 53.240234375 327.759765625 53.240234375 327.759765625 101.419921875 c 6,26,-1
 327.759765625 440.139648438 l 6,27,28
 327.759765625 441.599609375 l 5,29,30
 327.759765625 453.280273438 327.759765625 453.280273438 330.680664062 459.120117188 c 4,31,32
 339.440429688 508.759765625 339.440429688 508.759765625 406.600585938 549.639648438 c 4,33,34
 483.98046875 596.360351562 483.98046875 596.360351562 556.98046875 561.3203125 c 4,35,36
 625.600585938 527.740234375 625.600585938 527.740234375 625.600585938 405.099609375 c 6,37,-1
 625.600585938 99.9599609375 l 6,38,39
 625.600585938 53.240234375 625.600585938 53.240234375 657.719726562 21.1201171875 c 260,40,41
 689.83984375 -11 689.83984375 -11 736.560546875 -11 c 6,42,-1
 739.48046875 -11 l 6,43,44
 786.200195312 -11 786.200195312 -11 818.3203125 21.1201171875 c 260,45,46
 851.900390625 53.240234375 851.900390625 53.240234375 851.900390625 99.9599609375 c 6,47,-1
 850.440429688 359.83984375 l 6,0,1
EndSplineSet
EndChar

StartChar: i
Encoding: 76 105 76
Width: 335
VWidth: 1495
GlyphClass: 2
Flags: W
LayerCount: 2
Back
Fore
SplineSet
215.560546875 -5.83984375 m 6,0,1
 165.9609375 -5.83984375 165.9609375 -5.83984375 130.880859375 29.2001953125 c 132,-1,2
 95.83984375 64.2802734375 95.83984375 64.2802734375 95.83984375 113.879882812 c 6,3,-1
 95.83984375 585.6796875 l 6,4,5
 96.12109375 635 96.12109375 635 130.880859375 670.360351562 c 4,6,7
 166.52734375 705.400390625 166.52734375 705.400390625 215.560546875 705.400390625 c 6,8,-1
 217.021484375 705.400390625 l 6,9,10
 265.12109375 705 265.12109375 705 300.240234375 670.360351562 c 260,11,12
 335.28125 634.837890625 335.28125 634.837890625 335.28125 585.6796875 c 6,13,-1
 335.28125 113.879882812 l 6,14,15
 335.12109375 64 335.12109375 64 300.240234375 29.2001953125 c 4,16,17
 265.28125 -5.83984375 265.28125 -5.83984375 217.021484375 -5.83984375 c 6,18,-1
 215.560546875 -5.83984375 l 6,0,1
290.240234375 807.599609375 m 4,19,20
 253.12109375 771 253.12109375 771 202.640625 771.099609375 c 260,21,22
 151.12109375 771 151.12109375 771 115.041015625 807.599609375 c 4,23,24
 80.12109375 843 80.12109375 843 80 895.200195312 c 260,25,26
 80.12109375 946 80.12109375 946 115.041015625 981.33984375 c 4,27,28
 151.12109375 1018 151.12109375 1018 202.640625 1017.83984375 c 260,29,30
 252.12109375 1018 252.12109375 1018 290.240234375 981.33984375 c 4,31,32
 325.12109375 948 325.12109375 948 325.28125 895.200195312 c 260,33,34
 325.12109375 843 325.12109375 843 290.240234375 807.599609375 c 4,19,20
EndSplineSet
EndChar

StartChar: j
Encoding: 77 106 77
Width: 538
VWidth: 1495
GlyphClass: 2
Flags: W
LayerCount: 2
Back
Fore
SplineSet
538 67.16015625 m 6,0,1
 538 -102.068359375 538 -102.068359375 453.3203125 -210.240234375 c 4,2,3
 355.922851562 -334.424804688 355.922851562 -334.424804688 187.599609375 -300.759765625 c 4,4,5
 173.040039062 -298 173.040039062 -298 151.099609375 -287.620117188 c 4,6,7
 100 -262.98046875 100 -262.98046875 100 -207.3203125 c 6,8,-1
 100 -207.3203125 l 6,9,10
 100.040039062 -172 100.040039062 -172 123.360351562 -146 c 4,11,12
 147.040039062 -120 147.040039062 -120 183.219726562 -119.719726562 c 4,13,14
 214.040039062 -120 214.040039062 -120 243.080078125 -105.120117188 c 4,15,16
 313.16015625 -71.9482421875 313.16015625 -71.9482421875 313.16015625 51.099609375 c 6,17,-1
 313.16015625 582.759765625 l 6,18,19
 313.040039062 629 313.040039062 629 345.280273438 661.599609375 c 260,20,21
 376.765625 693.719726562 376.765625 693.719726562 424.120117188 693.719726562 c 6,22,-1
 427.040039062 693.719726562 l 6,23,24
 474.040039062 694 474.040039062 694 505.879882812 661.599609375 c 260,25,26
 538 629.008789062 538 629.008789062 538 582.759765625 c 6,27,-1
 538 67.16015625 l 6,0,1
502.48046875 801.759765625 m 4,28,29
 467.040039062 764 467.040039062 764 414.879882812 763.799804688 c 260,30,31
 365.040039062 764 365.040039062 764 327.280273438 801.759765625 c 4,32,33
 292.040039062 837 292.040039062 837 292.240234375 887.900390625 c 260,34,35
 292.040039062 939 292.040039062 939 327.280273438 975.5 c 4,36,37
 362.040039062 1012 362.040039062 1012 414.879882812 1012 c 260,38,39
 467.040039062 1012 467.040039062 1012 502.48046875 975.5 c 4,40,41
 537.040039062 939 537.040039062 939 537.520507812 887.900390625 c 260,42,43
 537.040039062 840 537.040039062 840 502.48046875 801.759765625 c 4,28,29
EndSplineSet
EndChar

StartChar: k
Encoding: 78 107 78
Width: 720
VWidth: 1495
GlyphClass: 2
Flags: W
LayerCount: 2
Back
Fore
SplineSet
512.162109375 384.879882812 m 5,0,-1
 691.961914062 593.879882812 l 6,1,2
 723.721679688 631 723.721679688 631 695.102539062 691.700195312 c 4,3,4
 670.600585938 744.259765625 670.600585938 744.259765625 611.881835938 744.259765625 c 6,5,-1
 610.421875 744.259765625 l 6,6,7
 569.247070312 743.997070312 569.247070312 743.997070312 541.801757812 713.599609375 c 6,8,-1
 367.40234375 520.440429688 l 6,9,10
 359.721679688 512 359.721679688 512 344.041992188 505.83984375 c 4,11,12
 329.442382812 500.905273438 329.442382812 500.905273438 329.442382812 514.599609375 c 6,13,-1
 329.442382812 874.780273438 l 6,14,15
 329.721679688 923 329.721679688 923 294.40234375 958 c 4,16,17
 259.682617188 993.040039062 259.682617188 993.040039062 221.182617188 993.040039062 c 6,18,-1
 219.72265625 993.040039062 l 6,19,20
 169.721679688 993 169.721679688 993 135.041992188 958 c 4,21,22
 100.001953125 923.27734375 100.001953125 923.27734375 100.001953125 874.780273438 c 6,23,-1
 100.001953125 118.639648438 l 6,24,25
 99.7216796875 69 99.7216796875 69 135.041992188 33.9599609375 c 4,26,27
 169.801757812 -1.080078125 169.801757812 -1.080078125 219.72265625 -1.080078125 c 6,28,-1
 221.182617188 -1.080078125 l 6,29,30
 259.721679688 -1 259.721679688 -1 294.40234375 33.9599609375 c 4,31,32
 329.442382812 68.72265625 329.442382812 68.72265625 329.442382812 118.639648438 c 6,33,-1
 329.442382812 263.83984375 l 5,34,-1
 361.5625 293.040039062 l 5,35,-1
 525.7421875 48.5595703125 l 5,36,37
 553.767578125 -1.080078125 553.767578125 -1.080078125 611.881835938 -1.080078125 c 6,38,-1
 614.801757812 -1.080078125 l 6,39,40
 675.721679688 -1 675.721679688 -1 706.782226562 55.8603515625 c 4,41,42
 737.721679688 111 737.721679688 111 699.482421875 162.440429688 c 5,43,-1
 512.162109375 384.879882812 l 5,0,-1
EndSplineSet
EndChar

StartChar: l
Encoding: 79 108 79
Width: 323
VWidth: 1495
GlyphClass: 2
Flags: W
LayerCount: 2
Back
Fore
SplineSet
320.8984375 113.879882812 m 2,0,1
 320.8984375 63.6845703125 320.8984375 63.6845703125 285.859375 29.2001953125 c 0,2,3
 251.376953125 -5.83984375 251.376953125 -5.83984375 201.1796875 -5.83984375 c 2,4,-1
 198.259765625 -5.83984375 l 2,5,6
 150.232421875 -5.9931640625 150.232421875 -5.9931640625 115.0390625 29.2001953125 c 128,-1,7
 80 64.2197265625 80 64.2197265625 80 113.879882812 c 2,8,-1
 80 878.700195312 l 2,9,10
 80.21875 928 80.21875 928 115.0390625 963.379882812 c 0,11,12
 148.1796875 996.959960938 148.1796875 996.959960938 198.259765625 996.959960938 c 2,13,-1
 201.1796875 996.959960938 l 2,14,15
 251.21875 997 251.21875 997 285.859375 963.379882812 c 0,16,17
 320.8984375 928.3203125 320.8984375 928.3203125 320.8984375 878.700195312 c 2,18,-1
 320.8984375 113.879882812 l 2,0,1
EndSplineSet
EndChar

StartChar: m
Encoding: 80 109 80
Width: 1275
VWidth: 1495
GlyphClass: 2
Flags: W
LayerCount: 2
Back
Fore
SplineSet
1275.30371094 377.459960938 m 6,0,1
 1275.30371094 549.48046875 1275.30371094 549.48046875 1189.1640625 656.3203125 c 4,2,3
 1090.68359375 777 1090.68359375 777 923.443359375 743.919921875 c 4,4,5
 864.68359375 732 864.68359375 732 752.624023438 621.280273438 c 5,6,-1
 748.243164062 621.280273438 l 5,7,8
 645.559570312 790.856445312 645.559570312 790.856445312 459.1640625 743.919921875 c 4,9,10
 427.68359375 736 427.68359375 736 380.323242188 703.040039062 c 4,11,12
 371.68359375 697 371.68359375 697 352.583984375 676.759765625 c 4,13,14
 337.68359375 662 337.68359375 662 329.223632812 656.3203125 c 5,15,-1
 329.223632812 656.3203125 l 6,16,17
 329.68359375 687 329.68359375 687 307.323242188 708.879882812 c 4,18,19
 286.35546875 729.3203125 286.35546875 729.3203125 257.68359375 729.3203125 c 6,20,-1
 173.00390625 729.3203125 l 6,21,22
 140.68359375 729 140.68359375 729 120.443359375 708.879882812 c 4,23,24
 100.00390625 688.322265625 100.00390625 688.322265625 100.00390625 656.3203125 c 6,25,-1
 100.00390625 90.2802734375 l 6,26,27
 99.68359375 46 99.68359375 46 129.203125 17.2802734375 c 4,28,29
 151.522460938 -4.83984375 151.522460938 -4.83984375 205.124023438 -4.83984375 c 6,30,-1
 219.723632812 -4.83984375 l 6,31,32
 273.68359375 -5 273.68359375 -5 295.643554688 17.2802734375 c 4,33,34
 326.303710938 47.640625 326.303710938 47.640625 326.303710938 90.2802734375 c 6,35,-1
 326.303710938 467.98046875 l 6,36,37
 326.68359375 517 326.68359375 517 361.34375 558.5 c 4,38,39
 394.68359375 598 394.68359375 598 447.483398438 599.379882812 c 4,40,41
 502.68359375 601 502.68359375 601 540.923828125 562.879882812 c 4,42,43
 578.883789062 524.833007812 578.883789062 524.833007812 578.883789062 472.360351562 c 6,44,-1
 578.883789062 90.2802734375 l 6,45,46
 578.68359375 49 578.68359375 49 609.543945312 17.2802734375 c 4,47,48
 630.53125 -4.83984375 630.53125 -4.83984375 684.00390625 -4.83984375 c 6,49,-1
 704.443359375 -4.83984375 l 6,50,51
 759.68359375 -5 759.68359375 -5 780.36328125 17.2802734375 c 4,52,53
 809.563476562 48.7998046875 809.563476562 48.7998046875 809.563476562 90.2802734375 c 6,54,-1
 809.563476562 467.98046875 l 6,55,56
 809.68359375 520 809.68359375 520 844.603515625 558.5 c 4,57,58
 879.68359375 598 879.68359375 598 932.203125 599.379882812 c 4,59,60
 984.68359375 601 984.68359375 601 1024.18359375 562.879882812 c 4,61,62
 1063.60351562 525.076171875 1063.60351562 525.076171875 1063.60351562 472.360351562 c 6,63,-1
 1063.60351562 90.2802734375 l 6,64,65
 1063.68359375 46 1063.68359375 46 1092.80371094 17.2802734375 c 4,66,67
 1114.52636719 -4.83984375 1114.52636719 -4.83984375 1168.72363281 -4.83984375 c 6,68,-1
 1170.18359375 -4.83984375 l 6,69,70
 1223.68359375 -5 1223.68359375 -5 1244.64355469 17.2802734375 c 4,71,72
 1275.30371094 48.59375 1275.30371094 48.59375 1275.30371094 90.2802734375 c 6,73,-1
 1275.30371094 377.459960938 l 6,0,1
EndSplineSet
EndChar

StartChar: n
Encoding: 81 110 81
Width: 853
VWidth: 1495
GlyphClass: 2
Flags: W
LayerCount: 2
Back
Fore
SplineSet
851.904296875 372.080078125 m 6,0,1
 850.975585938 556.509765625 850.975585938 556.509765625 795.764648438 629.48046875 c 4,2,3
 693.344726562 761.049804688 693.344726562 761.049804688 501.504882812 728.540039062 c 4,4,5
 445.604492188 719 445.604492188 719 330.684570312 650.940429688 c 5,6,-1
 330.684570312 652.400390625 l 6,7,8
 330.604492188 679 330.604492188 679 310.244140625 702.040039062 c 4,9,10
 289.244140625 725.400390625 289.244140625 725.400390625 257.684570312 725.400390625 c 6,11,-1
 174.46484375 725.400390625 l 6,12,13
 146.604492188 725 146.604492188 725 121.904296875 702.040039062 c 4,14,15
 100.004882812 682.359375 100.004882812 682.359375 100.004882812 650.940429688 c 6,16,-1
 100.004882812 82.2001953125 l 6,17,18
 99.6044921875 37 99.6044921875 37 133.584960938 3.3603515625 c 260,19,20
 155.368164062 -18.759765625 155.368164062 -18.759765625 212.424804688 -18.759765625 c 6,21,-1
 216.8046875 -18.759765625 l 6,22,23
 273.604492188 -19 273.604492188 -19 295.64453125 3.3603515625 c 260,24,25
 327.764648438 35.158203125 327.764648438 35.158203125 327.764648438 82.2001953125 c 6,26,-1
 327.764648438 420.919921875 l 6,27,28
 327.764648438 422.379882812 l 5,29,30
 327.604492188 425 327.604492188 425 330.684570312 439.900390625 c 4,31,32
 338.604492188 480 338.604492188 480 408.064453125 521.879882812 c 4,33,34
 485.604492188 569 485.604492188 569 558.444335938 533.559570312 c 4,35,36
 625.604492188 500 625.604492188 500 625.604492188 385.879882812 c 6,37,-1
 625.604492188 82.2001953125 l 6,38,39
 625.604492188 35 625.604492188 35 659.184570312 3.3603515625 c 260,40,41
 681.36328125 -18.759765625 681.36328125 -18.759765625 738.024414062 -18.759765625 c 6,42,-1
 739.484375 -18.759765625 l 6,43,44
 796.604492188 -19 796.604492188 -19 819.784179688 3.3603515625 c 260,45,46
 853.591796875 36.9873046875 853.591796875 36.9873046875 853.364257812 82.2001953125 c 6,47,-1
 851.904296875 372.080078125 l 6,0,1
EndSplineSet
EndChar

StartChar: o
Encoding: 82 111 82
Width: 840
VWidth: 1495
GlyphClass: 2
Flags: W
LayerCount: 2
Back
Fore
SplineSet
357.400390625 182.580078125 m 0,1,2
 304 241 304 241 303.380859375 420.559570312 c 256,3,4
 303 501 303 501 357.400390625 562.1796875 c 256,5,6
 403 613 403 613 464.419921875 613.280273438 c 256,7,8
 536 613 536 613 582.900390625 562.1796875 c 0,9,10
 625 516 625 516 625.4609375 420.559570312 c 256,11,12
 625 231 625 231 582.900390625 182.580078125 c 0,13,14
 530 123 530 123 464.419921875 122.719726562 c 256,15,0
 411 123 411 123 357.400390625 182.580078125 c 0,1,2
464.419921875 750.51953125 m 0,16,17
 453 751 453 751 442.51953125 750.51953125 c 0,18,19
 304 751 304 751 192.419921875 639.559570312 c 0,20,21
 81 529 81 529 80 368 c 0,22,23
 80 210 80 210 192.419921875 97.900390625 c 0,24,25
 298 -8 298 -8 442.51953125 -14.51953125 c 0,26,27
 453 -15 453 -15 464.419921875 -14.51953125 c 0,28,29
 475 -15 475 -15 486.3203125 -14.51953125 c 0,30,31
 622 -15 622 -15 736.419921875 97.900390625 c 0,32,33
 850 210 850 210 850.30078125 368 c 0,34,35
 850 526 850 526 736.419921875 639.559570312 c 0,36,37
 632 744 632 744 486.3203125 750.51953125 c 0,38,39
 475 751 475 751 464.419921875 750.51953125 c 0,16,17
EndSplineSet
EndChar

StartChar: p
Encoding: 83 112 83
Width: 850
VWidth: 1495
GlyphClass: 2
Flags: W
LayerCount: 2
Back
Fore
SplineSet
631.44140625 309.51953125 m 6,0,1
 631.44140625 254.040039062 631.44140625 254.040039062 612.4609375 210.240234375 c 4,2,3
 590.560546875 163.51953125 590.560546875 163.51953125 555.521484375 148.919921875 c 4,4,5
 482.521484375 113.879882812 482.521484375 113.879882812 409.521484375 140.16015625 c 4,6,7
 345.28125 163.51953125 345.28125 163.51953125 330.6796875 210.240234375 c 5,8,-1
 330.6796875 481.799804688 l 6,9,10
 330.6796875 572.3203125 330.6796875 572.3203125 406.6015625 597.139648438 c 4,11,12
 444.560546875 610.280273438 444.560546875 610.280273438 481.060546875 604.440429688 c 5,13,14
 543.83984375 604.440429688 543.83984375 604.440429688 587.640625 546.040039062 c 132,-1,15
 631.44140625 487.639648438 631.44140625 487.639648438 631.44140625 405.879882812 c 6,16,-1
 631.44140625 309.51953125 l 6,0,1
500.041015625 -2.919921875 m 4,17,18
 646.12109375 -3 646.12109375 -3 748.240234375 105.120117188 c 260,19,20
 850.12109375 213 850.12109375 213 850.44140625 367.919921875 c 4,21,22
 850.12109375 520 850.12109375 520 748.240234375 627.799804688 c 260,23,24
 646.12109375 736 646.12109375 736 500.041015625 735.83984375 c 4,25,26
 409.12109375 736 409.12109375 736 330.6796875 689.120117188 c 5,27,-1
 330.6796875 689.120117188 l 6,28,29
 331.0703125 705.836914062 331.0703125 705.836914062 316.080078125 722.700195312 c 4,30,31
 304.263671875 735.83984375 304.263671875 735.83984375 283.9609375 735.83984375 c 6,32,-1
 146.720703125 735.83984375 l 6,33,34
 125.1328125 736.025390625 125.1328125 736.025390625 113.140625 722.700195312 c 4,35,36
 100 707.864257812 100 707.864257812 100 689.120117188 c 6,37,-1
 100 -205.639648438 l 6,38,39
 100.12890625 -255.41015625 100.12890625 -255.41015625 132.12109375 -287.400390625 c 260,40,41
 163.6484375 -319.51953125 163.6484375 -319.51953125 213.880859375 -319.51953125 c 6,42,-1
 216.80078125 -319.51953125 l 6,43,44
 263.12109375 -320 263.12109375 -320 295.640625 -287.400390625 c 260,45,46
 330.6796875 -252.430664062 330.6796875 -252.430664062 330.6796875 -205.639648438 c 6,47,-1
 330.6796875 43.7998046875 l 5,48,49
 409.12109375 -3 409.12109375 -3 500.041015625 -2.919921875 c 4,17,18
EndSplineSet
EndChar

StartChar: q
Encoding: 84 113 84
Width: 850
VWidth: 1495
GlyphClass: 2
Flags: W
LayerCount: 2
Back
Fore
SplineSet
319.000976562 405.879882812 m 6,0,1
 319.000976562 490.559570312 319.000976562 490.559570312 362.80078125 546.040039062 c 4,2,3
 406.600585938 604.440429688 406.600585938 604.440429688 469.380859375 604.440429688 c 5,4,5
 507.340820312 610.280273438 507.340820312 610.280273438 543.840820312 597.139648438 c 4,6,7
 619.760742188 572.3203125 619.760742188 572.3203125 619.760742188 481.799804688 c 6,8,-1
 619.760742188 204.400390625 l 5,9,10
 602.240234375 160.599609375 602.240234375 160.599609375 540.920898438 134.3203125 c 4,11,12
 467.920898438 105.120117188 467.920898438 105.120117188 394.920898438 140.16015625 c 4,13,14
 359.880859375 157.6796875 359.880859375 157.6796875 337.98046875 204.400390625 c 4,15,16
 319.000976562 248.200195312 319.000976562 248.200195312 319.000976562 300.759765625 c 6,17,-1
 319.000976562 405.879882812 l 6,0,1
619.760742188 43.7998046875 m 5,19,-1
 619.760742188 -205.639648438 l 6,20,21
 619.720703125 -252 619.720703125 -252 654.80078125 -287.400390625 c 260,22,23
 686.25 -319.51953125 686.25 -319.51953125 733.640625 -319.51953125 c 6,24,-1
 736.560546875 -319.51953125 l 6,25,26
 785.700195312 -320.020507812 785.700195312 -320.020507812 818.3203125 -287.400390625 c 260,27,28
 850.440429688 -255.077148438 850.440429688 -255.077148438 850.440429688 -205.639648438 c 6,29,-1
 850.440429688 689.120117188 l 6,30,31
 850.743164062 711.702148438 850.743164062 711.702148438 837.30078125 722.700195312 c 4,32,33
 821.908203125 735.83984375 821.908203125 735.83984375 803.720703125 735.83984375 c 6,34,-1
 666.48046875 735.83984375 l 6,35,36
 645.720703125 736 645.720703125 736 634.360351562 722.700195312 c 4,37,38
 619.760742188 707.04296875 619.760742188 707.04296875 619.760742188 689.120117188 c 6,39,-1
 619.760742188 689.120117188 l 5,40,41
 540.720703125 736 540.720703125 736 450.400390625 735.83984375 c 4,42,43
 304.720703125 736 304.720703125 736 202.201171875 627.799804688 c 260,44,45
 99.720703125 520 99.720703125 520 100.000976562 367.919921875 c 4,46,47
 99.720703125 213 99.720703125 213 202.201171875 105.120117188 c 260,48,49
 304.720703125 -3 304.720703125 -3 450.400390625 -2.919921875 c 4,50,18
 540.720703125 -3 540.720703125 -3 619.760742188 43.7998046875 c 5,19,-1
EndSplineSet
EndChar

StartChar: r
Encoding: 85 114 85
Width: 581
VWidth: 1495
GlyphClass: 2
Flags: W
LayerCount: 2
Back
Fore
SplineSet
377.400390625 699.33984375 m 0,1,2
 353.959960938 683 353.959960938 683 329.219726562 645.3203125 c 1,3,4
 275.102539062 728.780273438 275.102539062 728.780273438 216.799804688 728.780273438 c 2,5,-1
 212.419921875 728.780273438 l 2,6,7
 166.959960938 729 166.959960938 729 132.120117188 695.200195312 c 0,8,9
 100 663.040039062 100 663.040039062 100 616.360351562 c 2,10,-1
 100 108.040039062 l 2,11,12
 99.9599609375 61 99.9599609375 61 132.120117188 29.2001953125 c 0,13,14
 164.32421875 -4.3798828125 164.32421875 -4.3798828125 210.959960938 -4.3798828125 c 2,15,-1
 213.879882812 -4.3798828125 l 2,16,17
 260.959960938 -4 260.959960938 -4 292.719726562 29.2001953125 c 0,18,19
 326.299804688 63.345703125 326.299804688 63.345703125 326.299804688 108.040039062 c 2,20,-1
 326.299804688 417.559570312 l 1,21,22
 327.759765625 417.559570312 l 1,23,24
 327.759765625 419.01953125 l 2,25,26
 327.959960938 427 327.959960938 427 329.219726562 436.540039062 c 0,27,28
 338.959960938 479 338.959960938 479 392 516.83984375 c 0,29,30
 443.959960938 554 443.959960938 554 517.559570312 541.879882812 c 0,31,32
 561.959960938 535 561.959960938 535 573.040039062 606.120117188 c 1,33,-1
 589.099609375 680.580078125 l 2,34,35
 592.959960938 700 592.959960938 700 580.33984375 717.080078125 c 0,36,37
 568.959960938 732 568.959960938 732 546.759765625 731.6796875 c 0,38,0
 423.959960938 732 423.959960938 732 377.400390625 699.33984375 c 0,1,2
EndSplineSet
EndChar

StartChar: s
Encoding: 86 115 86
Width: 624
VWidth: 1495
GlyphClass: 2
Flags: W
LayerCount: 2
Back
Fore
SplineSet
102.8828125 113.879882812 m 1,0,1
 110.206054688 144 110.206054688 144 142.302734375 163.51953125 c 256,2,3
 171.206054688 181 171.206054688 181 205.08203125 169.360351562 c 0,4,5
 269.206054688 149 269.206054688 149 318.962890625 150.379882812 c 0,6,7
 415.206054688 152 415.206054688 152 415.322265625 210.240234375 c 0,8,9
 415.206054688 237 415.206054688 237 393.422851562 255.5 c 0,10,11
 374.206054688 270 374.206054688 270 310.202148438 292.459960938 c 0,12,13
 102.206054688 364 102.206054688 364 104.342773438 510 c 0,14,15
 106.206054688 615 106.206054688 615 184.642578125 679.360351562 c 0,16,17
 264.206054688 746 264.206054688 746 397.802734375 746.51953125 c 0,18,19
 460.206054688 747 460.206054688 747 526.282226562 729 c 0,20,21
 556.206054688 721 556.206054688 721 573.002929688 693.959960938 c 0,22,23
 590.206054688 666 590.206054688 666 581.762695312 635.559570312 c 1,24,-1
 581.762695312 634.099609375 l 1,25,26
 576.206054688 604 576.206054688 604 546.72265625 585.919921875 c 256,27,28
 517.206054688 568 517.206054688 568 485.40234375 577.16015625 c 0,29,30
 441.206054688 589 441.206054688 589 405.102539062 590.299804688 c 0,31,32
 319.206054688 592 319.206054688 592 318.962890625 533.360351562 c 0,33,34
 319.206054688 509 319.206054688 509 345.2421875 489.559570312 c 0,35,36
 368.206054688 472 368.206054688 472 435.762695312 448.6796875 c 0,37,38
 628.206054688 381 628.206054688 381 629.942382812 227.759765625 c 0,39,40
 631.206054688 123 631.206054688 123 552.5625 58.400390625 c 0,41,42
 473.206054688 -7 473.206054688 -7 318.962890625 -7.2998046875 c 0,43,44
 238.206054688 -7 238.206054688 -7 158.362304688 14.599609375 c 0,45,46
 130.206054688 22 130.206054688 22 111.642578125 52.5595703125 c 256,47,48
 94.2060546875 81 94.2060546875 81 102.8828125 110.959960938 c 1,49,-1
 102.8828125 113.879882812 l 1,0,1
EndSplineSet
EndChar

StartChar: t
Encoding: 87 116 87
Width: 518
VWidth: 1495
GlyphClass: 2
Flags: W
LayerCount: 2
Back
Fore
SplineSet
382.8828125 341.639648438 m 2,1,-1
 382.8828125 552.3203125 l 1,2,-1
 450.04296875 552.3203125 l 2,3,4
 481.765625 552 481.765625 552 502.602539062 572.759765625 c 0,5,6
 524.502929688 592.759765625 524.502929688 592.759765625 524.502929688 626.780273438 c 2,7,-1
 524.502929688 628.240234375 l 2,8,9
 524.765625 658 524.765625 658 502.602539062 680.799804688 c 0,10,11
 479.607421875 704.16015625 479.607421875 704.16015625 450.04296875 704.16015625 c 2,12,-1
 382.8828125 704.16015625 l 1,13,-1
 382.8828125 785.48046875 l 2,14,15
 382.765625 823 382.765625 823 359.522460938 852.639648438 c 0,16,17
 327.145507812 893.51953125 327.145507812 893.51953125 299.663085938 893.51953125 c 2,18,-1
 296.743164062 893.51953125 l 2,19,20
 252.765625 894 252.765625 894 228.922851562 874.540039062 c 256,21,22
 185.123046875 841.271484375 185.123046875 841.271484375 185.123046875 785.48046875 c 2,23,-1
 185.123046875 704.16015625 l 1,24,-1
 155.922851562 704.16015625 l 2,25,26
 123.765625 704 123.765625 704 101.903320312 680.799804688 c 0,27,28
 80.0029296875 659.233398438 80.0029296875 659.233398438 80.0029296875 628.240234375 c 2,29,-1
 80.0029296875 626.780273438 l 2,30,31
 79.765625 593 79.765625 593 101.903320312 572.759765625 c 256,32,33
 123.427734375 552.3203125 123.427734375 552.3203125 155.922851562 552.3203125 c 2,34,-1
 185.123046875 552.3203125 l 1,35,-1
 185.123046875 356.240234375 l 1,36,-1
 185.123046875 356.240234375 l 1,37,38
 184.765625 206 184.765625 206 234.762695312 108.040039062 c 0,39,40
 292.765625 -6 292.765625 -6 388.72265625 -5.83984375 c 0,41,42
 447.765625 -6 447.765625 -6 474.86328125 75.919921875 c 0,43,44
 486.765625 111 486.765625 111 482.163085938 137.240234375 c 0,45,46
 476.765625 169 476.765625 169 450.04296875 183.959960938 c 0,47,0
 382.765625 219 382.765625 219 382.8828125 341.639648438 c 2,1,-1
EndSplineSet
EndChar

StartChar: u
Encoding: 88 117 88
Width: 850
VWidth: 1495
GlyphClass: 2
Flags: W
LayerCount: 2
Back
Fore
SplineSet
100 345 m 6,0,1
 100 190.563476562 100 190.563476562 184.681640625 82.2001953125 c 4,2,3
 283.44140625 -43 283.44140625 -43 450.400390625 -8.3203125 c 4,4,5
 520.44140625 6 520.44140625 6 619.76171875 64.6796875 c 5,6,-1
 619.76171875 64.6796875 l 6,7,8
 619.44140625 39 619.44140625 39 643.12109375 13.580078125 c 4,9,10
 663.7421875 -8.3203125 663.7421875 -8.3203125 692.76171875 -8.3203125 c 6,11,-1
 777.44140625 -8.3203125 l 6,12,13
 809.44140625 -8 809.44140625 -8 830 13.580078125 c 132,-1,14
 850.44140625 35 850.44140625 35 850.44140625 64.6796875 c 6,15,-1
 850.44140625 624.879882812 l 6,16,17
 850.44140625 672 850.44140625 672 818.3203125 703.719726562 c 260,18,19
 796.59765625 725.83984375 796.59765625 725.83984375 739.48046875 725.83984375 c 6,20,-1
 736.560546875 725.83984375 l 6,21,22
 679.44140625 726 679.44140625 726 656.26171875 703.719726562 c 260,23,24
 622.681640625 672.225585938 622.681640625 672.225585938 622.681640625 624.879882812 c 6,25,-1
 622.681640625 293.900390625 l 6,26,-1
 622.681640625 292.440429688 l 5,27,28
 622.44140625 288 622.44140625 288 619.76171875 274.919921875 c 4,29,30
 609.44140625 224 609.44140625 224 543.841796875 184.400390625 c 4,31,32
 479.44140625 146 479.44140625 146 394.921875 187.3203125 c 4,33,34
 324.841796875 220.80859375 324.841796875 220.80859375 324.841796875 328.940429688 c 6,35,-1
 324.841796875 634.879882812 l 6,36,37
 324.44140625 672 324.44140625 672 292.720703125 703.719726562 c 260,38,39
 270.6015625 725.83984375 270.6015625 725.83984375 213.880859375 725.83984375 c 6,40,-1
 210.9609375 725.83984375 l 6,41,42
 154.44140625 726 154.44140625 726 132.12109375 703.719726562 c 260,43,44
 100 671.55859375 100 671.55859375 100 634.879882812 c 6,45,-1
 100 345 l 6,0,1
EndSplineSet
EndChar

StartChar: v
Encoding: 89 118 89
Width: 781
VWidth: 1495
GlyphClass: 2
Flags: W
LayerCount: 2
Back
Fore
SplineSet
666.643554688 725.400390625 m 6,0,1
 632.744140625 725.400390625 632.744140625 725.400390625 600.943359375 703.5 c 260,2,3
 570.163085938 681 570.163085938 681 560.063476562 646.559570312 c 4,4,5
 466.163085938 342 466.163085938 342 438.8828125 213.16015625 c 5,6,-1
 434.502929688 213.16015625 l 5,7,8
 405.60546875 362.528320312 405.60546875 362.528320312 329.163085938 646.559570312 c 4,9,10
 320.163085938 680 320.163085938 680 288.283203125 703.5 c 260,11,12
 256.583984375 725.400390625 256.583984375 725.400390625 221.123046875 725.400390625 c 6,13,-1
 206.5234375 725.400390625 l 6,14,15
 148.163085938 725 148.163085938 725 116.002929688 678.6796875 c 260,16,17
 83.4033203125 633.333984375 83.4033203125 633.333984375 101.403320312 576.48046875 c 6,18,-1
 243.243164062 128.48046875 l 6,19,20
 261.163085938 72 261.163085938 72 313.323242188 32.1201171875 c 4,21,22
 362.954101562 -5.83984375 362.954101562 -5.83984375 427.203125 -5.83984375 c 6,23,-1
 430.123046875 -5.83984375 l 6,24,25
 493.163085938 -6 493.163085938 -6 544.002929688 30.66015625 c 4,26,27
 596.642578125 67.333984375 596.642578125 67.333984375 617.002929688 125.559570312 c 6,28,-1
 774.68359375 576.48046875 l 6,29,30
 794.163085938 633 794.163085938 633 761.54296875 678.6796875 c 260,31,32
 727.875 725.400390625 727.875 725.400390625 669.563476562 725.400390625 c 6,33,-1
 666.643554688 725.400390625 l 6,0,1
EndSplineSet
EndChar

StartChar: w
Encoding: 90 119 90
Width: 1160
VWidth: 1495
GlyphClass: 2
Flags: W
LayerCount: 2
Back
Fore
SplineSet
1059.1484375 724.959960938 m 2,0,1
 986.036132812 724.959960938 986.036132812 724.959960938 962.7890625 657.799804688 c 2,2,-1
 883.948242188 430.040039062 l 2,3,4
 857.619140625 327 857.619140625 327 831.388671875 224.83984375 c 1,5,6
 742.5390625 596.12890625 742.5390625 596.12890625 729.188476562 649.040039062 c 0,7,8
 720.619140625 683 720.619140625 683 694.1484375 704.51953125 c 0,9,10
 667.670898438 724.959960938 667.670898438 724.959960938 629.908203125 724.959960938 c 2,11,-1
 606.548828125 724.959960938 l 2,12,13
 574.619140625 725 574.619140625 725 545.228515625 704.51953125 c 256,14,15
 515.619140625 684 515.619140625 684 507.268554688 649.040039062 c 0,16,17
 457.619140625 437 457.619140625 437 407.98828125 224.83984375 c 1,18,19
 353.8203125 426.248046875 353.8203125 426.248046875 352.508789062 430.040039062 c 2,20,-1
 273.668945312 657.799804688 l 2,21,22
 250.6328125 724.959960938 250.6328125 724.959960938 177.30859375 724.959960938 c 2,23,-1
 175.848632812 724.959960938 l 2,24,25
 123.619140625 725 123.619140625 725 92.62890625 681.16015625 c 0,26,27
 62.623046875 638.006835938 62.623046875 638.006835938 80.9482421875 587.719726562 c 2,28,-1
 260.528320312 94.900390625 l 2,29,30
 277.619140625 49 277.619140625 49 317.46875 21.900390625 c 0,31,32
 358.3828125 -5.83984375 358.3828125 -5.83984375 407.98828125 -5.83984375 c 2,33,-1
 409.448242188 -5.83984375 l 2,34,35
 460.619140625 -6 460.619140625 -6 504.348632812 26.2802734375 c 256,36,37
 547.250976562 59.490234375 547.250976562 59.490234375 561.2890625 110.959960938 c 2,38,-1
 618.228515625 319.740234375 l 1,39,-1
 676.62890625 110.959960938 l 2,40,41
 691.619140625 58 691.619140625 58 732.108398438 26.2802734375 c 256,42,43
 774.408203125 -5.83984375 774.408203125 -5.83984375 828.46875 -5.83984375 c 2,44,-1
 831.388671875 -5.83984375 l 2,45,46
 879.619140625 -6 879.619140625 -6 918.98828125 21.900390625 c 0,47,48
 960.83984375 49.486328125 960.83984375 49.486328125 977.388671875 94.900390625 c 2,49,-1
 1156.96875 587.719726562 l 2,50,51
 1175.61914062 638 1175.61914062 638 1146.74902344 681.16015625 c 0,52,53
 1117.64550781 724.959960938 1117.64550781 724.959960938 1062.06835938 724.959960938 c 2,54,-1
 1059.1484375 724.959960938 l 2,0,1
EndSplineSet
EndChar

StartChar: x
Encoding: 91 120 91
Width: 715
VWidth: 1495
GlyphClass: 2
Flags: W
LayerCount: 2
Back
Fore
SplineSet
605.842773438 733.940429688 m 6,0,1
 547.981445312 733.940429688 547.981445312 733.940429688 516.782226562 685.759765625 c 6,2,-1
 401.442382812 507.639648438 l 5,3,-1
 287.5625 685.759765625 l 6,4,5
 256.517578125 733.940429688 256.517578125 733.940429688 197.04296875 733.940429688 c 6,6,-1
 195.583007812 733.940429688 l 6,7,8
 129.479492188 734 129.479492188 734 100.682617188 674.080078125 c 4,9,10
 73.3876953125 615.803710938 73.3876953125 615.803710938 112.362304688 561.66015625 c 6,11,-1
 261.282226562 354.780273438 l 5,12,-1
 112.362304688 166.440429688 l 6,13,14
 72.4794921875 116 72.4794921875 116 100.682617188 55.48046875 c 4,15,16
 129.404296875 -5.83984375 129.404296875 -5.83984375 195.583007812 -5.83984375 c 6,17,-1
 197.04296875 -5.83984375 l 6,18,19
 255.459960938 -6 255.459960938 -6 287.5625 43.7998046875 c 6,20,-1
 401.442382812 220.459960938 l 5,21,-1
 516.782226562 43.7998046875 l 6,22,23
 549.374023438 -5.83984375 549.374023438 -5.83984375 605.842773438 -5.83984375 c 6,24,-1
 608.762695312 -5.83984375 l 6,25,26
 675.479492188 -6 675.479492188 -6 705.123046875 55.48046875 c 4,27,28
 732.591796875 113.235351562 732.591796875 113.235351562 690.522460938 166.440429688 c 6,29,-1
 541.602539062 354.780273438 l 5,30,-1
 690.522460938 561.66015625 l 6,31,32
 730.479492188 617 730.479492188 617 705.123046875 674.080078125 c 4,33,34
 677.506835938 733.940429688 677.506835938 733.940429688 608.762695312 733.940429688 c 6,35,-1
 605.842773438 733.940429688 l 6,0,1
EndSplineSet
EndChar

StartChar: y
Encoding: 92 121 92
Width: 785
VWidth: 1495
GlyphClass: 2
Flags: W
LayerCount: 2
Back
Fore
SplineSet
678.380859375 742.48046875 m 6,0,1
 639.830078125 742.48046875 639.830078125 742.48046875 614.060546875 722.040039062 c 4,2,3
 582.4921875 697 582.4921875 697 577.560546875 669.48046875 c 4,4,5
 523.4921875 353 523.4921875 353 454.919921875 210.240234375 c 5,6,-1
 324.840820312 672.400390625 l 6,7,8
 314.4921875 710 314.4921875 710 286.880859375 723.5 c 4,9,10
 243.391601562 742.48046875 243.391601562 742.48046875 227.020507812 742.48046875 c 6,11,-1
 208.040039062 742.48046875 l 6,12,13
 152.4921875 742 152.4921875 742 121.900390625 695.759765625 c 4,14,15
 91.4921875 649 91.4921875 649 114.600585938 597.940429688 c 4,16,17
 258.4921875 274 258.4921875 274 304.620117188 46.7197265625 c 5,18,-1
 304.620117188 43.7998046875 l 6,19,20
 304.4921875 -80 304.4921875 -80 236 -113.879882812 c 4,21,22
 206.4921875 -128 206.4921875 -128 174.680664062 -128.48046875 c 4,23,24
 133.4921875 -128 133.4921875 -128 116.280273438 -154.759765625 c 4,25,26
 90 -198.825195312 90 -198.825195312 90 -214.620117188 c 6,27,-1
 90 -216.080078125 l 6,28,29
 90.4921875 -275 90.4921875 -275 142.560546875 -294.919921875 c 4,30,31
 165.4921875 -304 165.4921875 -304 180.520507812 -308.059570312 c 4,32,33
 312.4921875 -335 312.4921875 -335 417.040039062 -262.799804688 c 4,34,35
 510.4921875 -198 510.4921875 -198 551.360351562 -75.919921875 c 4,36,37
 770.4921875 581 770.4921875 581 779.120117188 605.240234375 c 4,38,39
 797.4921875 657 797.4921875 657 764.520507812 700.139648438 c 4,40,41
 731.11328125 742.48046875 731.11328125 742.48046875 679.840820312 742.48046875 c 6,42,-1
 678.380859375 742.48046875 l 6,0,1
EndSplineSet
EndChar

StartChar: z
Encoding: 93 122 93
Width: 718
VWidth: 1495
GlyphClass: 2
Flags: W
LayerCount: 2
Back
Fore
SplineSet
390.545898438 166.440429688 m 5,0,-1
 691.305664062 590.099609375 l 6,1,2
 708.826171875 615.278320312 708.826171875 615.278320312 708.826171875 644.120117188 c 6,3,-1
 708.826171875 644.120117188 l 6,4,5
 708.6328125 679 708.6328125 679 684.005859375 705.440429688 c 260,6,7
 657.911132812 731.719726562 657.911132812 731.719726562 622.685546875 731.719726562 c 6,8,-1
 203.666015625 731.719726562 l 6,9,10
 159.6328125 732 159.6328125 732 135.045898438 696.6796875 c 4,11,12
 110.6328125 662 110.6328125 662 124.826171875 620.759765625 c 5,13,-1
 124.826171875 617.83984375 l 5,14,15
 145.668945312 560.900390625 145.668945312 560.900390625 203.666015625 560.900390625 c 6,16,-1
 427.045898438 560.900390625 l 5,17,-1
 117.525390625 128.48046875 l 6,18,19
 100.005859375 104.510742188 100.005859375 104.510742188 100.005859375 78.83984375 c 6,20,-1
 100.005859375 78.83984375 l 6,21,22
 99.6328125 45 99.6328125 45 124.826171875 18.98046875 c 4,23,24
 148.479492188 -5.83984375 148.479492188 -5.83984375 183.225585938 -5.83984375 c 6,25,-1
 628.525390625 -5.83984375 l 6,26,27
 683.6328125 -6 683.6328125 -6 697.145507812 10.66015625 c 4,28,29
 720.661132812 37.0322265625 720.661132812 37.0322265625 718.826171875 76.580078125 c 6,30,-1
 717.366210938 108.040039062 l 6,31,32
 714.611328125 166.440429688 714.611328125 166.440429688 627.065429688 166.440429688 c 6,33,-1
 390.545898438 166.440429688 l 5,0,-1
EndSplineSet
EndChar

StartChar: braceleft
Encoding: 94 123 94
Width: 622
VWidth: 1495
GlyphClass: 2
Flags: W
LayerCount: 2
Back
Fore
SplineSet
622.6796875 -188.33984375 m 6,0,1
 622.6796875 -143.080078125 622.6796875 -143.080078125 575.9609375 -119.719726562 c 4,2,3
 470.83984375 -70.080078125 470.83984375 -70.080078125 470.83984375 -11.6796875 c 4,4,5
 470.83984375 29.2001953125 470.83984375 29.2001953125 481.060546875 90.51953125 c 5,6,7
 491.279296875 183.959960938 491.279296875 183.959960938 491.279296875 214.620117188 c 4,8,9
 494.19921875 318.280273438 494.19921875 318.280273438 359.880859375 397.120117188 c 4,10,11
 345.279296875 405.879882812 345.279296875 405.879882812 348.19921875 420.48046875 c 132,-1,12
 351.119140625 435.080078125 351.119140625 435.080078125 365.720703125 440.919921875 c 4,13,14
 494.19921875 484.719726562 494.19921875 484.719726562 491.279296875 633.639648438 c 4,15,16
 491.279296875 668.6796875 491.279296875 668.6796875 481.060546875 757.740234375 c 5,17,18
 470.83984375 817.599609375 470.83984375 817.599609375 470.83984375 858.48046875 c 4,19,20
 470.83984375 916.879882812 470.83984375 916.879882812 575.9609375 967.98046875 c 4,21,22
 622.6796875 989.879882812 622.6796875 989.879882812 622.6796875 1035.13964844 c 6,23,-1
 622.6796875 1036.59960938 l 6,24,25
 622.6796875 1076.01953125 622.6796875 1076.01953125 584.720703125 1099.37988281 c 4,26,27
 546.759765625 1124.20019531 546.759765625 1124.20019531 505.880859375 1109.59960938 c 4,28,29
 231.400390625 1024.91992188 231.400390625 1024.91992188 231.400390625 896.440429688 c 4,30,31
 231.400390625 852.639648438 231.400390625 852.639648438 244.541015625 756.280273438 c 5,32,33
 254.759765625 635.099609375 254.759765625 635.099609375 254.759765625 616.120117188 c 4,34,35
 251.83984375 522.6796875 251.83984375 522.6796875 155.48046875 499.3203125 c 4,36,37
 88.3203125 484.719726562 88.3203125 484.719726562 88.3203125 424.860351562 c 6,38,-1
 88.3203125 423.400390625 l 6,39,40
 88.3203125 362.080078125 88.3203125 362.080078125 152.560546875 348.940429688 c 4,41,42
 254.759765625 327.040039062 254.759765625 327.040039062 254.759765625 233.599609375 c 4,43,44
 254.759765625 216.080078125 254.759765625 216.080078125 244.541015625 94.900390625 c 5,45,46
 231.400390625 -1.4599609375 231.400390625 -1.4599609375 231.400390625 -46.7197265625 c 4,47,48
 231.400390625 -181.040039062 231.400390625 -181.040039062 505.880859375 -262.799804688 c 4,49,50
 549.6796875 -274.48046875 549.6796875 -274.48046875 584.720703125 -251.120117188 c 4,51,52
 622.6796875 -227.759765625 622.6796875 -227.759765625 622.6796875 -189.799804688 c 6,53,-1
 622.6796875 -188.33984375 l 6,0,1
EndSplineSet
EndChar

StartChar: bar
Encoding: 95 124 95
Width: 272
VWidth: 1495
GlyphClass: 2
Flags: W
LayerCount: 2
Back
Fore
SplineSet
272.275390625 -192.719726562 m 6,0,1
 272.275390625 -226.299804688 272.275390625 -226.299804688 247.455078125 -251.120117188 c 260,2,3
 224.09375 -274.48046875 224.09375 -274.48046875 189.0546875 -274.48046875 c 6,4,-1
 187.59375 -274.48046875 l 6,5,6
 147.4453125 -274.48046875 147.4453125 -274.48046875 124.083984375 -251.120117188 c 260,7,8
 100.724609375 -227.759765625 100.724609375 -227.759765625 100.724609375 -192.719726562 c 6,9,-1
 100.724609375 1106.6796875 l 6,10,11
 100.724609375 1141.71972656 100.724609375 1141.71972656 124.083984375 1165.08007812 c 260,12,13
 148.904296875 1189.90039062 148.904296875 1189.90039062 187.59375 1189.90039062 c 6,14,-1
 189.0546875 1189.90039062 l 6,15,16
 221.173828125 1189.90039062 221.173828125 1189.90039062 247.455078125 1165.08007812 c 260,17,18
 272.275390625 1141.71972656 272.275390625 1141.71972656 272.275390625 1106.6796875 c 6,19,-1
 272.275390625 -192.719726562 l 6,0,1
EndSplineSet
EndChar

StartChar: braceright
Encoding: 96 125 96
Width: 611
VWidth: 1495
GlyphClass: 2
Flags: W
LayerCount: 2
Back
Fore
SplineSet
76.1171875 -189.799804688 m 6,0,1
 74.6572265625 -227.759765625 74.6572265625 -227.759765625 112.6171875 -251.120117188 c 132,-1,2
 150.577148438 -274.48046875 150.577148438 -274.48046875 194.376953125 -262.799804688 c 4,3,4
 468.857421875 -181.040039062 468.857421875 -181.040039062 467.397460938 -46.7197265625 c 4,5,6
 467.397460938 -1.4599609375 467.397460938 -1.4599609375 454.2578125 94.900390625 c 5,7,8
 442.577148438 216.080078125 442.577148438 216.080078125 442.577148438 233.599609375 c 4,9,10
 442.577148438 327.040039062 442.577148438 327.040039062 544.77734375 348.940429688 c 4,11,12
 611.9375 362.080078125 611.9375 362.080078125 611.9375 423.400390625 c 6,13,-1
 611.9375 424.860351562 l 6,14,15
 611.9375 484.719726562 611.9375 484.719726562 544.77734375 499.3203125 c 4,16,17
 448.416992188 521.219726562 448.416992188 521.219726562 442.577148438 616.120117188 c 4,18,19
 442.577148438 633.639648438 442.577148438 633.639648438 454.2578125 756.280273438 c 5,20,21
 467.397460938 852.639648438 467.397460938 852.639648438 467.397460938 896.440429688 c 4,22,23
 467.397460938 1024.91992188 467.397460938 1024.91992188 192.916992188 1109.59960938 c 4,24,25
 150.577148438 1122.74023438 150.577148438 1122.74023438 112.6171875 1099.37988281 c 132,-1,26
 74.6572265625 1076.01953125 74.6572265625 1076.01953125 76.1171875 1036.59960938 c 6,27,-1
 76.1171875 1035.13964844 l 6,28,29
 77.5771484375 989.879882812 77.5771484375 989.879882812 124.296875 967.98046875 c 4,30,31
 229.416992188 916.879882812 229.416992188 916.879882812 229.416992188 858.48046875 c 4,32,33
 229.416992188 819.059570312 229.416992188 819.059570312 217.737304688 757.740234375 c 5,34,35
 206.057617188 667.219726562 206.057617188 667.219726562 206.057617188 633.639648438 c 4,36,37
 203.137695312 484.719726562 203.137695312 484.719726562 333.077148438 440.919921875 c 4,38,39
 349.137695312 435.080078125 349.137695312 435.080078125 352.057617188 420.48046875 c 4,40,41
 352.057617188 405.879882812 352.057617188 405.879882812 337.45703125 397.120117188 c 4,42,43
 203.137695312 318.280273438 203.137695312 318.280273438 206.057617188 214.620117188 c 4,44,45
 206.057617188 183.959960938 206.057617188 183.959960938 217.737304688 90.51953125 c 5,46,47
 229.416992188 29.2001953125 229.416992188 29.2001953125 229.416992188 -11.6796875 c 4,48,49
 229.416992188 -70.080078125 229.416992188 -70.080078125 122.836914062 -119.719726562 c 4,50,51
 76.1171875 -143.080078125 76.1171875 -143.080078125 76.1171875 -188.33984375 c 6,52,-1
 76.1171875 -189.799804688 l 6,0,1
EndSplineSet
EndChar

StartChar: asciitilde
Encoding: 97 126 97
Width: 646
VWidth: 1495
GlyphClass: 2
Flags: W
LayerCount: 2
Back
Fore
SplineSet
476.9453125 383.98046875 m 4,1,2
 450.665039062 382.51953125 450.665039062 382.51953125 421.465820312 391.280273438 c 4,3,4
 393.725585938 400.040039062 393.725585938 400.040039062 336.78515625 429.240234375 c 260,5,6
 278.385742188 458.440429688 278.385742188 458.440429688 246.265625 458.440429688 c 4,7,8
 208.305664062 458.440429688 208.305664062 458.440429688 158.665039062 420.48046875 c 4,9,10
 139.684570312 405.879882812 139.684570312 405.879882812 119.245117188 414.639648438 c 4,11,12
 97.3447265625 426.3203125 97.3447265625 426.3203125 97.3447265625 449.6796875 c 4,13,14
 94.42578125 473.040039062 94.42578125 473.040039062 103.184570312 502.240234375 c 4,15,16
 120.704101562 560.639648438 120.704101562 560.639648438 179.10546875 592.759765625 c 4,17,18
 208.305664062 610.280273438 208.305664062 610.280273438 260.864257812 608.8203125 c 4,19,20
 284.225585938 608.8203125 284.225585938 608.8203125 309.043945312 601.51953125 c 4,21,22
 333.864257812 592.759765625 333.864257812 592.759765625 382.043945312 569.400390625 c 132,-1,23
 430.225585938 546.040039062 430.225585938 546.040039062 450.665039062 540.200195312 c 260,24,25
 471.10546875 534.360351562 471.10546875 534.360351562 490.084960938 534.360351562 c 4,26,27
 495.92578125 534.360351562 495.92578125 534.360351562 570.385742188 573.780273438 c 4,28,29
 602.504882812 592.759765625 602.504882812 592.759765625 625.864257812 578.16015625 c 4,30,31
 646.305664062 566.48046875 646.305664062 566.48046875 646.305664062 534.360351562 c 4,32,33
 649.225585938 456.98046875 649.225585938 456.98046875 544.10546875 398.580078125 c 4,34,0
 519.28515625 383.98046875 519.28515625 383.98046875 476.9453125 383.98046875 c 4,1,2
EndSplineSet
EndChar

StartChar: anuswara
Encoding: 98 3330 98
Width: 686
GlyphClass: 2
Flags: W
LayerCount: 2
Back
Fore
SplineSet
684 286 m 4,0,1
 684 150 684 150 594 72 c 5,2,3
 514 0 514 0 396 0 c 4,4,5
 274 0 274 0 196 82 c 5,6,7
 120 168 120 168 120 302 c 4,8,9
 120 422 120 422 196 504 c 5,10,11
 274 584 274 584 402 584 c 4,12,13
 542 584 542 584 618 490 c 4,14,15
 684 406 684 406 684 286 c 4,0,1
486 288 m 4,16,17
 486 560 486 560 402 560 c 4,18,19
 312 560 312 560 312 284 c 4,20,21
 312 26 312 26 398 26 c 4,22,23
 486 26 486 26 486 288 c 4,16,17
EndSplineSet
EndChar

StartChar: visarga
Encoding: 99 3331 99
Width: 400
GlyphClass: 2
Flags: W
LayerCount: 2
Back
Fore
SplineSet
400 596 m 132,-1,1
 400 540 400 540 358 498 c 5,2,3
 314 458 314 458 262 458 c 4,4,5
 204 458 204 458 164 498 c 4,6,7
 122 540 122 540 122 596 c 132,-1,8
 122 652 122 652 164 694 c 5,9,10
 202 736 202 736 262 736 c 4,11,12
 316 736 316 736 358 694 c 132,-1,0
 400 652 400 652 400 596 c 132,-1,1
314 596 m 132,-1,14
 314 650 314 650 262 650 c 4,15,16
 208 650 208 650 208 596 c 132,-1,17
 208 542 208 542 262 542 c 4,18,13
 314 542 314 542 314 596 c 132,-1,14
400 170 m 4,19,20
 400 116 400 116 358 74 c 132,-1,21
 316 32 316 32 262 32 c 4,22,23
 202 32 202 32 164 74 c 5,24,25
 122 116 122 116 122 170 c 4,26,27
 122 226 122 226 164 268 c 5,28,29
 202 310 202 310 262 310 c 4,30,31
 316 310 316 310 358 268 c 132,-1,32
 400 226 400 226 400 170 c 4,19,20
314 170 m 4,33,34
 314 224 314 224 262 224 c 4,35,36
 208 224 208 224 208 170 c 4,37,38
 208 118 208 118 262 118 c 4,39,40
 314 118 314 118 314 170 c 4,33,34
EndSplineSet
EndChar

StartChar: ml_a
Encoding: 100 3333 100
Width: 1878
GlyphClass: 2
Flags: W
LayerCount: 2
Back
Fore
SplineSet
1876 360 m 0,0,1
 1876 194 1876 194 1826 108 c 1,2,3
 1766 -2 1766 -2 1610 -2 c 0,4,5
 1474 -2 1474 -2 1402 120 c 1,6,7
 1344 224 1344 224 1344 366 c 0,8,9
 1344 658 1344 658 1506 724 c 1,10,11
 1502 726 1502 726 1493 730 c 128,-1,12
 1484 734 1484 734 1480 736 c 0,13,14
 1456 746 1456 746 1444 746 c 0,15,16
 1364 746 1364 746 1306 710 c 0,17,18
 1244 672 1244 672 1244 594 c 2,19,-1
 1246 118 l 2,20,21
 1246 76 1246 76 1218 36 c 0,22,23
 1192 0 1192 0 1146 0 c 0,24,25
 1098 0 1098 0 1072 38 c 1,26,27
 1044 72 1044 72 1044 118 c 2,28,-1
 1044 546 l 2,29,30
 1044 742 1044 742 898 742 c 0,31,32
 844 742 844 742 814 730 c 1,33,34
 952 652 952 652 952 544 c 0,35,36
 952 490 952 490 928 442 c 0,37,38
 900 390 900 390 848 378 c 1,39,40
 952 354 952 354 952 226 c 0,41,42
 952 -2 952 -2 704 -2 c 0,43,44
 434 -2 434 -2 434 378 c 0,45,46
 434 608 434 608 628 730 c 1,47,48
 584 748 584 748 534 748 c 0,49,50
 426 748 426 748 350 644 c 1,51,52
 286 546 286 546 286 434 c 0,53,54
 286 396 286 396 324 276 c 0,55,56
 336 242 336 242 382 176 c 1,57,58
 426 118 426 118 426 72 c 0,59,60
 426 0 426 0 320 0 c 0,61,62
 208 0 208 0 160 146 c 0,63,64
 126 244 126 244 126 388 c 0,65,66
 126 586 126 586 238 694 c 0,67,68
 350 800 350 800 546 800 c 0,69,70
 640 800 640 800 720 766 c 1,71,72
 780 800 780 800 876 800 c 0,73,74
 976 800 976 800 1024 788 c 1,75,76
 1094 774 1094 774 1150 718 c 1,77,78
 1224 798 1224 798 1418 798 c 0,79,80
 1634 798 1634 798 1756 688 c 1,81,82
 1876 576 1876 576 1876 360 c 0,0,1
1702 362 m 128,-1,84
 1702 662 1702 662 1614 662 c 0,85,86
 1522 662 1522 662 1522 362 c 128,-1,87
 1522 62 1522 62 1614 62 c 0,88,83
 1702 62 1702 62 1702 362 c 128,-1,84
770 532 m 0,89,90
 770 640 770 640 710 676 c 1,91,92
 604 616 604 616 604 388 c 0,93,94
 604 54 604 54 712 54 c 0,95,96
 752 54 752 54 762 118 c 0,97,98
 764 126 764 126 764 210 c 0,99,100
 764 356 764 356 678 356 c 0,101,102
 648 356 648 356 648 374 c 0,103,104
 648 402 648 402 688 402 c 0,105,106
 770 402 770 402 770 532 c 0,89,90
EndSplineSet
EndChar

StartChar: ml_aa
Encoding: 101 3334 101
Width: 2138
GlyphClass: 2
Flags: W
LayerCount: 2
Back
Fore
SplineSet
2136 164 m 0,0,1
 2136 -80 2136 -80 2004 -214 c 1,2,3
 1876 -348 1876 -348 1646 -348 c 0,4,5
 1528 -348 1528 -348 1426 -290 c 0,6,7
 1302 -220 1302 -220 1302 -110 c 0,8,9
 1302 -78 1302 -78 1332 -54 c 1,10,11
 1360 -28 1360 -28 1392 -28 c 0,12,13
 1452 -28 1452 -28 1554 -96 c 1,14,15
 1652 -164 1652 -164 1722 -164 c 0,16,17
 1868 -164 1868 -164 1958 -62 c 0,18,19
 2046 36 2046 36 2046 176 c 0,20,21
 2046 278 2046 278 2008 398 c 1,22,23
 1960 532 1960 532 1888 564 c 1,24,25
 1906 536 1906 536 1924 460 c 0,26,27
 1940 392 1940 392 1940 362 c 0,28,29
 1940 214 1940 214 1882 116 c 1,30,31
 1806 -2 1806 -2 1662 -2 c 0,32,33
 1348 -2 1348 -2 1348 344 c 0,34,35
 1348 494 1348 494 1432 584 c 1,36,37
 1516 670 1516 670 1658 674 c 1,38,39
 1592 746 1592 746 1450 746 c 0,40,41
 1226 746 1226 746 1226 594 c 2,42,-1
 1228 118 l 2,43,44
 1228 74 1228 74 1202 36 c 1,45,46
 1172 0 1172 0 1130 0 c 0,47,48
 1084 0 1084 0 1054 38 c 0,49,50
 1028 70 1028 70 1028 118 c 2,51,-1
 1028 546 l 2,52,53
 1028 742 1028 742 880 742 c 0,54,55
 828 742 828 742 796 730 c 1,56,57
 936 652 936 652 936 544 c 0,58,59
 936 490 936 490 912 442 c 0,60,61
 884 390 884 390 832 378 c 1,62,63
 936 354 936 354 936 226 c 0,64,65
 936 -2 936 -2 688 -2 c 0,66,67
 418 -2 418 -2 418 378 c 0,68,69
 418 610 418 610 612 730 c 1,70,71
 564 748 564 748 518 748 c 0,72,73
 408 748 408 748 334 644 c 1,74,75
 270 546 270 546 270 434 c 0,76,77
 270 388 270 388 308 276 c 1,78,79
 314 250 314 250 366 176 c 1,80,81
 410 118 410 118 410 72 c 0,82,83
 410 0 410 0 304 0 c 0,84,85
 188 0 188 0 144 146 c 1,86,87
 110 244 110 244 110 388 c 0,88,89
 110 586 110 586 222 694 c 0,90,91
 332 800 332 800 530 800 c 0,92,93
 624 800 624 800 704 766 c 1,94,95
 764 800 764 800 860 800 c 128,-1,96
 956 800 956 800 1008 788 c 0,97,98
 1078 774 1078 774 1134 718 c 1,99,100
 1210 800 1210 800 1426 800 c 0,101,102
 1750 800 1750 800 1836 670 c 1,103,104
 2136 604 2136 604 2136 164 c 0,0,1
1746 334 m 0,105,106
 1746 606 1746 606 1646 606 c 0,107,108
 1542 606 1542 606 1542 334 c 0,109,110
 1542 40 1542 40 1646 40 c 0,111,112
 1746 40 1746 40 1746 334 c 0,105,106
754 532 m 0,113,114
 754 640 754 640 694 676 c 1,115,116
 588 616 588 616 588 388 c 0,117,118
 588 54 588 54 696 54 c 0,119,120
 736 54 736 54 746 118 c 0,121,122
 746 120 746 120 747 133 c 128,-1,123
 748 146 748 146 748 167 c 128,-1,124
 748 188 748 188 748 210 c 0,125,126
 748 356 748 356 662 356 c 0,127,128
 630 356 630 356 630 374 c 0,129,130
 630 402 630 402 672 402 c 0,131,132
 754 402 754 402 754 532 c 0,113,114
EndSplineSet
EndChar

StartChar: ml_i
Encoding: 102 3335 102
Width: 1290
GlyphClass: 2
Flags: W
LayerCount: 2
Back
Fore
SplineSet
1288 -196 m 0,0,1
 1288 -290 1288 -290 1160 -290 c 0,2,3
 934 -290 934 -290 774 -288 c 0,4,5
 682 -288 682 -288 562 -287 c 128,-1,6
 442 -286 442 -286 414 -286 c 0,7,8
 250 -286 250 -286 208 -272 c 0,9,10
 132 -244 132 -244 132 -134 c 0,11,12
 132 4 132 4 320 4 c 0,13,14
 334 4 334 4 518 0 c 0,15,16
 698 -4 698 -4 728 -4 c 0,17,18
 1078 -4 1078 -4 1078 392 c 0,19,20
 1078 492 1078 492 1052 590 c 1,21,22
 1018 738 1018 738 952 738 c 0,23,24
 850 738 850 738 850 576 c 0,25,26
 850 454 850 454 852 356 c 128,-1,27
 854 258 854 258 854 136 c 0,28,29
 854 104 854 104 820 82 c 0,30,31
 796 66 796 66 756 66 c 0,32,33
 722 66 722 66 692 84 c 0,34,35
 664 102 664 102 664 136 c 2,36,-1
 664 538 l 2,37,38
 664 738 664 738 506 738 c 0,39,40
 410 738 410 738 346 674 c 0,41,42
 286 614 286 614 280 514 c 1,43,44
 316 548 316 548 362 548 c 0,45,46
 476 548 476 548 534 484 c 0,47,48
 594 420 594 420 594 310 c 0,49,50
 594 208 594 208 528 138 c 0,51,52
 462 66 462 66 362 66 c 0,53,54
 240 66 240 66 178 164 c 0,55,56
 124 248 124 248 124 376 c 0,57,58
 124 556 124 556 224 668 c 1,59,60
 318 780 318 780 502 780 c 0,61,62
 606 780 606 780 636 774 c 0,63,64
 722 760 722 760 762 688 c 1,65,66
 782 748 782 748 840 770 c 1,67,68
 880 780 880 780 956 780 c 0,69,70
 1130 780 1130 780 1216 658 c 0,71,72
 1294 550 1294 550 1288 382 c 1,73,-1
 1288 380 l 1,74,75
 1280 144 1280 144 1192 60 c 0,76,77
 1096 -34 1096 -34 816 -40 c 2,78,-1
 516 -46 l 2,79,80
 336 -48 336 -48 336 -130 c 0,81,82
 336 -168 336 -168 376 -192 c 0,83,84
 422 -218 422 -218 476 -218 c 0,85,86
 568 -218 568 -218 662 -188 c 1,87,88
 812 -136 812 -136 830 -134 c 1,89,90
 972 -100 972 -100 1160 -100 c 0,91,92
 1288 -100 1288 -100 1288 -196 c 0,0,1
420 318 m 0,93,94
 420 520 420 520 354 520 c 0,95,96
 286 520 286 520 286 296 c 0,97,98
 286 106 286 106 354 106 c 0,99,100
 420 106 420 106 420 318 c 0,93,94
EndSplineSet
EndChar

StartChar: ml_ii
Encoding: 103 3336 103
Width: 2214
GlyphClass: 2
Flags: W
LayerCount: 2
Back
Fore
SplineSet
2214 448 m 0,0,1
 2214 230 2214 230 2132 118 c 0,2,3
 2030 -22 2030 -22 1778 -22 c 0,4,5
 1536 -22 1536 -22 1536 86 c 0,6,7
 1536 130 1536 130 1570 130 c 128,-1,8
 1604 130 1604 130 1666 74 c 0,9,10
 1726 20 1726 20 1796 20 c 0,11,12
 1930 20 1930 20 1984 198 c 0,13,14
 2020 312 2020 312 2020 476 c 0,15,16
 2020 548 2020 548 2004 624 c 1,17,18
 1984 738 1984 738 1934 738 c 0,19,20
 1886 738 1886 738 1886 674 c 2,21,-1
 1886 346 l 2,22,23
 1886 312 1886 312 1856 288 c 1,24,25
 1828 262 1828 262 1790 262 c 0,26,27
 1748 262 1748 262 1714 286 c 1,28,29
 1682 312 1682 312 1682 348 c 2,30,-1
 1682 672 l 2,31,32
 1682 738 1682 738 1636 738 c 0,33,34
 1560 738 1560 738 1560 518 c 0,35,36
 1560 490 1560 490 1572 436 c 128,-1,37
 1584 382 1584 382 1584 352 c 0,38,39
 1584 318 1584 318 1558 288 c 1,40,41
 1532 262 1532 262 1498 262 c 0,42,43
 1388 262 1388 262 1388 512 c 0,44,45
 1388 622 1388 622 1452 704 c 1,46,47
 1516 782 1516 782 1626 782 c 0,48,49
 1764 782 1764 782 1788 688 c 1,50,51
 1818 782 1818 782 1942 782 c 0,52,53
 2214 782 2214 782 2214 448 c 0,0,1
1288 -196 m 0,54,55
 1288 -290 1288 -290 1160 -290 c 0,56,57
 1094 -290 1094 -290 774 -298 c 0,58,59
 450 -306 450 -306 414 -306 c 0,60,61
 270 -306 270 -306 208 -280 c 0,62,63
 132 -246 132 -246 132 -134 c 0,64,65
 132 4 132 4 320 4 c 0,66,67
 334 4 334 4 518 0 c 0,68,69
 698 -4 698 -4 728 -4 c 0,70,71
 1078 -4 1078 -4 1078 392 c 0,72,73
 1078 492 1078 492 1052 590 c 1,74,75
 1018 738 1018 738 952 738 c 0,76,77
 850 738 850 738 850 576 c 0,78,79
 850 454 850 454 852 356 c 128,-1,80
 854 258 854 258 854 136 c 0,81,82
 854 104 854 104 820 82 c 0,83,84
 796 66 796 66 756 66 c 0,85,86
 722 66 722 66 692 84 c 0,87,88
 664 102 664 102 664 136 c 2,89,-1
 664 538 l 2,90,91
 664 738 664 738 506 738 c 0,92,93
 410 738 410 738 346 674 c 0,94,95
 286 614 286 614 280 514 c 1,96,97
 316 548 316 548 362 548 c 0,98,99
 476 548 476 548 534 484 c 0,100,101
 594 420 594 420 594 310 c 0,102,103
 594 208 594 208 528 138 c 0,104,105
 462 66 462 66 362 66 c 0,106,107
 240 66 240 66 178 164 c 0,108,109
 124 248 124 248 124 376 c 0,110,111
 124 556 124 556 224 668 c 1,112,113
 318 780 318 780 502 780 c 0,114,115
 606 780 606 780 636 774 c 0,116,117
 722 760 722 760 762 688 c 1,118,119
 782 748 782 748 840 770 c 1,120,121
 880 780 880 780 956 780 c 0,122,123
 1130 780 1130 780 1216 658 c 0,124,125
 1294 550 1294 550 1288 382 c 1,126,-1
 1288 380 l 1,127,128
 1280 144 1280 144 1192 60 c 0,129,130
 1096 -34 1096 -34 816 -40 c 2,131,-1
 516 -46 l 2,132,133
 336 -48 336 -48 336 -130 c 0,134,135
 336 -168 336 -168 376 -192 c 0,136,137
 422 -218 422 -218 476 -218 c 0,138,139
 568 -218 568 -218 662 -188 c 1,140,141
 812 -136 812 -136 830 -134 c 1,142,143
 972 -100 972 -100 1160 -100 c 0,144,145
 1288 -100 1288 -100 1288 -196 c 0,54,55
420 318 m 0,146,147
 420 520 420 520 354 520 c 0,148,149
 286 520 286 520 286 296 c 0,150,151
 286 106 286 106 354 106 c 0,152,153
 420 106 420 106 420 318 c 0,146,147
EndSplineSet
EndChar

StartChar: ml_u
Encoding: 104 3337 104
Width: 1038
GlyphClass: 2
Flags: W
LayerCount: 2
Back
Fore
SplineSet
1036 -206 m 0,0,1
 1028 -292 1028 -292 926 -292 c 0,2,3
 612 -292 612 -292 388 -306 c 1,4,5
 274 -306 274 -306 232 -286 c 0,6,7
 158 -254 158 -254 158 -134 c 0,8,9
 158 2 158 2 310 2 c 2,10,-1
 346 2 l 1,11,12
 362 0 362 0 376 0 c 2,13,-1
 592 -4 l 2,14,15
 818 -10 818 -10 818 398 c 0,16,17
 818 502 818 502 754 608 c 0,18,19
 678 738 678 738 562 738 c 0,20,21
 454 738 454 738 386 670 c 0,22,23
 318 600 318 600 316 506 c 1,24,25
 350 540 350 540 406 540 c 0,26,27
 530 540 530 540 594 476 c 1,28,29
 658 408 658 408 658 300 c 0,30,31
 658 204 658 204 590 132 c 1,32,33
 516 58 516 58 406 58 c 0,34,35
 264 58 264 58 190 156 c 1,36,37
 122 242 122 242 122 368 c 0,38,39
 122 780 122 780 558 780 c 0,40,41
 1030 780 1030 780 1030 380 c 0,42,43
 1030 -28 1030 -28 650 -40 c 1,44,-1
 468 -48 l 2,45,46
 350 -52 350 -52 350 -130 c 0,47,48
 350 -166 350 -166 376 -192 c 1,49,50
 406 -218 406 -218 440 -218 c 0,51,52
 470 -218 470 -218 620 -158 c 0,53,54
 768 -98 768 -98 926 -98 c 0,55,56
 972 -98 972 -98 1006 -132 c 1,57,58
 1042 -162 1042 -162 1036 -206 c 0,0,1
466 308 m 0,59,60
 466 514 466 514 396 514 c 0,61,62
 322 514 322 514 322 286 c 0,63,64
 322 96 322 96 396 96 c 0,65,66
 466 96 466 96 466 308 c 0,59,60
EndSplineSet
EndChar

